<!-- Generator: Adobe Illustrator 21.0.0, SVG Export Plug-In  -->
<svg version="1.1"
	 xmlns="http://www.w3.org/2000/svg" xmlns:xlink="http://www.w3.org/1999/xlink" xmlns:a="http://ns.adobe.com/AdobeSVGViewerExtensions/3.0/"
	 x="0px" y="0px" width="491.689px" height="359.481px" viewBox="0 0 491.689 359.481"
	 style="enable-background:new 0 0 491.689 359.481;" xml:space="preserve">
<style type="text/css">
	.st0{stroke:#000000;stroke-width:4;stroke-miterlimit:10;}
</style>
<defs>
</defs>
<g>
	<g>
		<path d="M4.477,278.264c1.245-4.897,2.413-9.489,3.824-15.041c-2.971,1.36-5.459,2.498-8.301,3.799
			c-0.012-7.081,5.018-9.491,9.77-12.024c-2.147-3.428-4.178-6.671-6.209-9.914c0.311-0.38,0.621-0.76,0.932-1.14
			c1.893,0.898,3.787,1.797,6.038,2.865c0.392-1.726,0.774-3.407,1.287-5.664c1.192,0.904,2.112,1.601,3.039,2.304
			c4.861-5.315,7.081-5.99,11.844-3.754c-1.938,2.407-3.93,4.881-5.921,7.354c11.841-2.427,14.682-2.409,19.972,1.416
			c-4.797,1.91-9.169,3.651-13.865,5.521c2.335,1.567,4.686,3.144,7.037,4.722c-0.154,0.451-0.308,0.901-0.462,1.352
			c-2.693,0.12-5.385,0.241-9.309,0.416c6.147,4.818,11.408,9.133,16.919,13.103c1.132,0.816,3.203,0.508,4.828,0.431
			c10.479-0.499,20.965-0.943,31.426-1.708c3.423-0.25,6.78-1.402,11.083-2.341c-2.836-3.058-5.325-5.743-8.169-8.81
			c8.344-2.088,13.938,1.47,19.644,6.753c2.182-10.134,5.54-18.685,17.269-20.894c-2.177,5.999-4.115,11.337-6.278,17.296
			c8.067-6.812,16.849-11.317,28.232-10.459c-0.441-4.642-0.584-8.585-1.258-12.434c-0.508-2.901,0.107-4.216,3.15-4.886
			c4.014-0.884,7.893-2.387,11.549-3.535c7.428,11.754,6.061,23.758,1.754,35.629c8.511,1.864,8.57,1.731,10.536-5.28
			c1.023-3.649,2.764-7.099,3.756-10.753c2.126-7.831,3.877-15.765,5.989-23.6c0.887-3.289,2.299-6.437,3.986-11.055
			c-7.776,1.488-14.551,2.184-20.947,4.125c-16.984,5.155-33.8,10.86-50.691,16.321c-7.097,2.294-14.083,5.186-21.352,6.638
			c-12.487,2.494-22.66-3.218-32.277-9.944c0.128-0.421,0.256-0.843,0.384-1.264c3.855,0.977,7.755,1.804,11.555,2.963
			c8.453,2.577,15.926,0.019,23.426-3.715c27.335-13.61,53.262-29.318,76.668-49.111c17.709-14.975,37.785-26.062,59.913-33.049
			c5.269-1.664,11.163-1.529,16.791-1.836c10.763-0.586,21.544-0.819,32.306-1.412c1.407-0.077,3.17-1.084,4.046-2.218
			c6.006-7.781,9.773-16.472,10.269-26.452c0.934-18.789,1.233-37.65,3.165-56.339c1.943-18.793,6.784-36.897,20.464-51.266
			c2.149-2.257,3.592-5.182,5.721-7.462c5.238-5.609,11.194-5.097,15.896,0.951c1.08,1.389,2.778,2.292,4.169,3.446
			c1.25,1.037,3.049,1.886,3.569,3.221c0.835,2.142,1.69,5.024,0.859,6.815c-0.591,1.275-3.941,1.732-6.057,1.725
			c-2.775-0.01-5.538-0.911-8.328-1.26c-0.724-0.091-1.527,0.444-3.728,1.154c5.461,1.257,9.568,2.202,13.858,3.189
			c-0.297,4.328-3.311,4.729-6.608,4.86c-2.958,0.118-5.73-1.466-8.901,1.048c-4.595,3.643-8.267,7.658-10.142,13.172
			c-5.333,15.681-6.826,31.845-5.437,48.26c1.896,22.415,0.296,44.657-4.027,66.609c-1.472,7.477-5.65,14.42-8.592,21.608
			c-1.674,4.089-3.783,8.06-4.938,12.291c-3.624,13.28-7.795,26.513-9.946,40.052c-1.26,7.935,0.796,16.43,1.609,24.649
			c0.399,4.034,1.366,8.012,2.279,13.16c6.248,0,13.143-0.074,20.037,0.017c10.953,0.144,10.922,0.177,15.362-9.905
			c2.232-5.067,4.601-10.074,7.372-16.121c-8.901,0-16.517-0.195-24.103,0.191c-1.266,0.064-2.902,2.467-3.511,4.107
			c-2.226,5.996-4.09,12.127-6.25,18.691c-1.331-7.705-2.321-14.812-3.836-21.805c-1.447-6.676,0.779-12.403,3.596-18.129
			c14.314-29.086,31.437-56.318,53.101-80.56c0.2-0.223,0.208-0.617,0.359-1.101c-2.866-0.684-5.74-1.37-8.936-2.133
			c-0.073,0.457-0.282,1.778-0.58,3.65c-1.465-0.822-2.501-1.403-3.765-2.112c-0.657,0.982-1.332,1.99-2.163,3.232
			c-1.217-1.072-2.181-1.921-3.145-2.771c0.102,0.463,0.204,0.927,0.306,1.39c-4.218,0.922-8.436,1.844-12.77,2.792
			c-1.5-8.525,2.981-12.334,9.517-15.086c4.438-1.869,4.516-3.529,0.82-7.922c-0.17,1.185-0.313,2.107-0.43,3.032
			c-0.103,0.812-0.178,1.627-0.279,2.556c-4.832,1.696-4.081-3.04-5.883-5.245c-0.866,0.97-1.553,1.74-2.483,2.782
			c0.501-6.048,0.974-11.764,1.46-17.632c2.987,0,5.775,0.069,8.555-0.05c0.659-0.028,1.664-0.562,1.834-1.085
			c0.184-0.563-0.345-1.428-0.701-2.087c-0.778-1.439-1.644-2.832-2.609-4.472c-0.29,0-2.026,0.503-3.126-0.119
			c-1.594-0.901-3.458-2.4-3.937-4.019c-2.522-8.527-1.538-9.739,7.101-9.523c11.945,0.298,18.89,7.627,24.057,17.35
			c1.206,2.271,2.269,4.617,3.466,7.067c1.963-3.705,3.556-6.935,5.355-10.046c1.828-3.161,3.662-2.608,5.628,0.086
			c4.755,6.52,7.655,13.296,3.169,21.207c21.535,3.791,32.036,12.04,34.667,27.744c-5.43-2.08-10.466-4.008-16.332-6.255
			c-0.023-0.15-0.237-1.557-0.507-3.333c-5.395,5.723-7.924,1.993-10.017-3.128c-0.464,0.166-0.929,0.333-1.393,0.499
			c0.436,2.232,0.389,4.712,1.386,6.656c5.882,11.47,5.747,22.994,0.84,34.661c-0.367,0.872-1.161,1.564-2.208,2.926
			c-2.616-4.446-5.013-8.522-7.709-13.105c0.461-0.727,1.304-2.054,2.779-4.378c-2.107,0.926-3.293,1.446-4.485,1.966
			c-3.368-3.44-2.599-6.697,0.228-10.307c-1.634,0.879-3.267,1.758-4.901,2.637c-0.339-0.243-0.678-0.487-1.017-0.73
			c0.809-1.723,1.618-3.446,2.545-5.418c-1.366,0.185-2.78,0.378-5.292,0.719c1.277-2.077,2.038-3.315,3.078-5.006
			c-2.536,0.176-5.695,1.058-4.043-3.667c-12.379,7.579-48.878,74.761-51.217,91.06c5.085-1.111,10.386-2.269,16.333-3.568
			c-2.109-1.899-4.154-3.739-6.204-5.585c4.196-2.874,7.61-1.871,14.889,4.424c1.031-1.918,1.793-3.925,3.062-5.531
			c1.246-1.577,3.006-2.747,5.435-3.457c-0.356,1.927-0.711,3.854-1.116,6.046c2.122-0.13,3.878-0.237,6.178-0.378
			c-0.574,1.423-1.009,2.503-1.523,3.78c4.891,1.31,8.752,3.439,8.771,9.522c-3.222-1.064-6.157-2.034-9.093-3.003
			c-0.287,0.344-0.575,0.688-0.862,1.031c3.529,5.367,9.016,10.056,6.524,18.225c-3.749-3.673-7.209-7.063-10.723-10.506
			c-0.445,2.416-0.952,5.174-1.46,7.932c-0.451-0.042-0.901-0.083-1.352-0.125c-0.994-2.342-1.988-4.684-2.982-7.025
			c-0.428-0.058-0.856-0.115-1.284-0.173c-1.831,6.112-3.662,12.224-5.826,19.445c10.289,0,19.8-0.703,29.154,0.208
			c8.445,0.822,13.591-2.165,18.574-8.76c7.259-9.606,15.775-18.261,23.689-27.378c1.165-1.343,1.965-3.004,3.118-4.805
			c-7.387,1.221-13.55,2.239-20.469,3.382c2.6-6.211,6.516-9.726,11.632-12.061c2.928-1.337,4.319-3.01,1.079-6.195
			c-0.395,1.674-0.706,2.99-1.296,5.493c-1.675-1.916-2.72-3.111-3.767-4.308c-3.454,2.742-3.602,2.689-4.668-1.535
			c-6.828,4.634-12.837-2.077-20.043-0.919c2.602-5.75,7.301-7.528,11.823-9.016c8.494-2.795,17.076-1.903,25.588,0.438
			c1.385,0.381,2.964,0.053,4.454,0.053c-0.012-0.517-0.024-1.034-0.035-1.551c-0.99,0.104-1.979,0.207-2.764,0.289
			c-2.825-7.002-8.354-10.791-16.24-12.383c4.305-5.246,9.552-6.466,14.633-4.964c4.783,1.414,9.028,4.647,13.746,7.207
			c0.555-1.923,1.306-4.528,2.057-7.132c0.441-0.124,0.882-0.249,1.323-0.373c1.673,3.844,3.346,7.687,5.43,12.474
			c3.063-2.822,6.695-6.168,10.769-9.922c2.399,10.805-1.761,18.474-8.726,25.226c19.182,5.519,26.328,11.248,26.698,21.733
			c-4.881-1.979-9.518-3.859-13.917-5.643c-1.801,0-3.542,0-6.21,0c7.617,9.074,12.633,18.678,11.937,30.336
			c3.325,1.779,6.456,3.454,10.591,5.666c-0.91-3.397-1.618-6.039-2.372-8.853c5.882,1.032,8.519,4.178,9.958,11.485
			c3.639-1.559,7.289-3.123,10.938-4.687c0.34,0.429,0.68,0.858,1.02,1.287c-1.107,1.545-2.215,3.091-3.595,5.017
			c1.418,0.824,2.888,1.678,4.627,2.688c-0.406,0.946-0.819,1.909-1.213,2.826c7.641,0.647,15.249,1.291,22.857,1.935
			c-0.038,0.441-0.075,0.882-0.113,1.323C329.289,278.264,167.001,278.264,4.477,278.264z M378.257,270.431
			c23.6,1.056,45.761,2.047,69.327,3.101c-4.438-3.098-7.043-7.021-12.035-4.25c-2.932-4.118-5.801-8.146-8.793-12.348
			c0.533-0.862,1.17-1.892,1.804-2.917c-1.75-0.115-4.236,0.197-4.462-0.378c-0.914-2.329-1.132-4.931-1.679-7.812
			c-0.41,0-1.882,0-3.354,0c0.348-1.486,0.696-2.973,1.012-4.323c-1.196,0-2.375,0-3.554,0c0.304-1.489,0.608-2.977,0.902-4.411
			c-6.97,0.358-3.968-8.982-10.741-10.237C397.653,240.697,388.279,255.067,378.257,270.431z M237.235,268.608
			c-1.157-5.736-1.116-10.102,4.893-12.224c1.234-0.436,2.227-3.745,2.053-5.611c-0.913-9.771-10.805-17.844-4.146-29.561
			c-5.944,0.334-10.689-0.015-15.106,1.024c-4.395,1.034-8.983,2.801-12.461,5.546c-1.865,1.471-1.561,5.68-2.257,8.648
			c-0.19,0.809-0.552,1.586-0.669,2.402c-1.221,8.518-2.556,17.026-3.444,25.58c-0.133,1.285,1.83,3.973,2.893,4.01
			C218.26,268.743,227.546,268.608,237.235,268.608z M267.809,268.008c0-2.977,0.6-6.143-0.104-8.987
			c-2.965-11.977-8.117-23.585-5.43-36.402c0.014-0.067-0.203-0.182-0.6-0.517c-4.845,5.335-5.861,11.85-4.487,18.333
			c2.307,10.88,1.691,20.379-8.599,27.574C254.771,268.008,260.953,268.008,267.809,268.008z M192.62,240.653
			c-0.622,0.997-1.542,2.261-2.245,3.636c-2.853,5.584-5.886,11.098-8.313,16.865c-0.812,1.929-0.515,6.345,0.133,6.525
			c3.161,0.875,6.647,1.015,9.934,0.653c0.726-0.08,1.61-3.266,1.567-5.001C193.511,255.788,193.009,248.252,192.62,240.653z
			 M12.296,274.949c6.763,0,12.911,0,19.058,0c0.588-0.849,1.176-1.698,1.765-2.546c-4.579-4.369-9.157-8.737-13.736-13.106
			c-0.594,0.414-1.187,0.829-1.781,1.243C15.872,265.238,14.142,269.936,12.296,274.949z M140.144,259.977
			c-3.105,1.286-6.826,1.668-7.612,3.389c-1.766,3.867-3.823,4.098-7.25,2.141c2.008,4.964,5.874,5.727,16.346,3.477
			C141.135,265.993,140.639,262.977,140.144,259.977z"/>
		<path d="M129.287,199.437c-3.496-14.784-6.87-29.048-10.255-43.36c-2.768,1.234-4.688,2.089-6.411,2.857
			c-2.41,2.838-4.91,5.78-8.448,9.947c-1.026-2.391-1.879-4.38-2.732-6.369c-0.567,0.473-1.133,0.946-1.7,1.419
			c0.8,1.902,1.6,3.804,2.428,5.772c-2.365,4.622-4.538,0.616-6.412-0.321c-0.332,2.399-0.646,4.664-0.96,6.93
			c-2.335-1.12-4.67-2.24-7.115-3.413c0.565,2.396,1.171,4.962,1.959,8.302c-2.159-0.684-3.33-1.055-3.97-1.258
			c-0.847,1.86-1.676,3.68-2.639,5.797c-1.942-2.211-3.224-3.67-4.38-4.986c-0.265,2.642-0.518,5.162-0.771,7.682
			c-1.524-0.256-3.048-0.513-4.818-0.811c0.982,3.346,0.398,5.63-2.869,4.137c-3.276,2.778-6.07,5.148-9.05,7.676
			c-4.795-12.877,9.634-38.066,31.026-48.592c-1.9-0.617-3.8-1.234-6.232-2.023c-0.069-0.708-0.206-2.124-0.339-3.503
			c-2.803-0.304-1.212,7.198-6.219,3.093c-1.24-1.017-4.022-0.152-5.244-0.152c-3.895,0.464-6.966,0.831-10.431,1.244
			c4.977-14.175,22.548-20.01,46.136-15.687c-5.992-12.526-7.209-24.757,0.548-36.987c5.817,6.652,8.007,13.574,5.399,16.369
			c2.396,0.562,4.792,1.127,7.694,1.812c-0.459-1.366-0.87-2.587-1.372-4.08c3.923-3.408,7.845-6.815,11.766-10.222
			c0.487,0.356,0.974,0.712,1.461,1.068c-0.576,3.923-1.151,7.846-1.806,12.309c20.777-8.404,33.208-5.68,38.15,8.369
			c-3.425,0-6.653-0.234-9.831,0.068c-2.971,0.282-5.888,1.133-9.553,1.881c-0.104-0.147-0.923-1.299-2.244-3.159
			c0.21,2.505,0.353,4.213,0.55,6.572c-1.775-0.857-2.963-1.43-4.41-2.128c2.286,9.165-2.354,4.894-6.023,2.471
			c0.668,4.301,2.72,5.302,6.22,5.43c13.082,0.48,25.262,3.8,35.069,13.055c2.935,2.77,5.322,6.119,7.973,9.218
			c-6.559,5.218-10.209,5.404-11.718,1.888c-4.296,0.253-8.255,0.487-12.644,0.746c0.165-2.211,0.303-4.065,0.44-5.893
			c-2.233,1.662-4.279,3.184-6.324,4.706c-0.609-1.707-1.219-3.415-1.925-5.393c-2.383,0.596-2.513,6.792-7.179,3.092
			c0.188-1.683,0.418-3.746,0.648-5.808c-0.301-0.163-0.601-0.325-0.902-0.488c-1.261,1.821-2.522,3.643-3.963,5.723
			c6.495,6.653,12.518,13.4,11.652,24.205c-6.301-2.85-11.945-5.556-16.449-10.056c-1.098-1.854-7.405,4.097-3.965-3.863
			c-1.862,0.268-3.328,0.479-4.794,0.69c0.067-1.46,0.134-2.921,0.209-4.571c-4.518,0.627-3.401,3.706-2.431,6.391
			c1.968,5.449,4.194,10.803,6.257,16.218C140.247,193.701,140.23,193.707,129.287,199.437z"/>
		<path d="M190.942,107.86c4.943-5.979,10.604-8.789,17.119-9.51c6.324-0.7,12.731-0.652,20.403-0.991
			c-4.31-4.101-8.294-7.892-12.567-11.958c5.498-3.277,10.805-1.73,15.53,0.953c4.466,2.535,8.326,6.139,12.924,9.63
			c2.693-7.348,7.217-13.601,16.95-15.882c-1.422,3.832-2.491,6.666-3.519,9.514c-0.272,0.752-0.419,1.549-0.624,2.325
			c0.864,0.133,1.743,0.442,2.59,0.368c3.22-0.281,6.429-0.685,9.642-1.043c0.188,0.422,0.377,0.845,0.565,1.267
			c-1.801,1.621-3.601,3.243-6.016,5.417c6.436,1.221,11.987,3.108,14.328,9.025c1.131,2.859,1.1,6.178,1.583,9.216
			c-6.939-2.822-13.025-5.297-20.804-8.461c1.655,2.698,2.404,4.573,3.7,5.92c6.393,6.641,10.036,14.258,9.309,23.859
			c-4.764,1.416-8.28-0.077-10.729-3.947c-0.732-1.158-0.641-2.836-0.943-4.356c-3.517,0.341-3.517,0.341-2.537-3.396
			c-1.274-0.081-2.496-0.159-4.196-0.267c0.713-1.534,1.268-2.728,1.823-3.922c-0.463-0.265-0.926-0.531-1.389-0.796
			c-0.822,1.618-2.201,3.184-2.358,4.865c-0.422,4.52-1.307,8.691-5.373,13.183c-1.806-5.991-3.283-10.89-4.933-16.361
			c-0.643,0.545-1.929,1.164-2.461,2.179c-1.306,2.488-2.812,5.067-3.26,7.772c-1.409,8.507-7.64,9.016-15.082,9.445
			c5.332-8.767,10.389-16.966,15.294-25.253c0.862-1.456,1.091-3.287,1.612-4.945c-1.811-0.291-3.617-0.611-5.433-0.865
			c-3.714-0.52-7.701,0.852-11.146-1.628c-0.235-0.169-0.783-0.053-1.117,0.09c-2.82,1.209-2.815,1.22-3.582-1.668
			c-4.038,3.751-7.032,3.85-8.205,1.739C202.041,108.844,196.964,108.394,190.942,107.86z"/>
		<path d="M465.51,63.334c-6.086,4.073-12.117,8.23-18.273,12.194c-6.015,3.874-7.621,10.07-9.309,16.68
			c-1.267,1.556-5.103-5.324-5.355,2.55c-7.861-10.312-16.251-7.718-25.23-2.776c2.487-2.87,4.974-5.74,8.042-9.28
			c-5.386-2.447-10.152-5.024-15.202-6.79c-4.913-1.718-10.116-2.606-15.237-3.869c10.159-3.039,20.181-4.72,29.285,3.088
			c3.179,2.726,6.046,3.09,9.611,0.081c3.208-2.707,7.198-4.487,11.555-5.968c-3.124,3.354-6.247,6.708-9.371,10.062
			c0.469,0.546,0.939,1.091,1.408,1.637c2.09-1.515,4.833-2.599,6.163-4.616C441.249,64.726,453.876,65.28,465.51,63.334z"/>
		<path d="M174.215,75.298c-3.665-2.209-7.036-4.241-11.062-6.667c-2.471,1.51-5.35,3.269-8.133,4.969
			c-0.437-1.146-0.9-2.362-1.41-3.699c-1.464,0.887-2.508,1.519-3.977,2.409c-0.092-8.393-3.059-14.265-10.449-18.161
			c-3.896-2.054-6.742-6.098-9.88-9.07c8.028-0.47,19.446,5.555,25.802,13.54c1.374,1.725,3.483,2.865,5.254,4.274
			c0.534-0.432,1.068-0.865,1.602-1.297c-1.752-3.522-3.503-7.045-5.255-10.567c0.201-0.25,0.402-0.5,0.602-0.75
			c2.241,2.322,4.806,4.416,6.641,7.023c2.309,3.281,4.478,3.49,7.885,1.622c9.683-5.308,13.861-5.304,23.552-1.094
			c-6.37,1.743-13.379,3.449-20.248,5.603c-5.97,1.872-5.873,2.082-2.948,7.386C172.962,72.216,173.515,73.731,174.215,75.298z"/>
		<path d="M441.693,128.652c-0.61,1.261-1.219,2.523-1.829,3.784c5.716-2.376,9.043-8.899,16.943-7.902
			c-2.024,1.759-3.873,3.074-5.347,4.724c-1.582,1.772-3.079,3.726-4.13,5.84c-1.434,2.884-2.915,3.898-6.379,2.861
			c-2.167-0.648-4.917,0.656-7.474,1.097c0.324-0.729,0.917-2.062,1.835-4.125c-4.523-1.423-8.814-2.773-14.401-4.531
			c3.806-0.392,7.207-1.829,9.22-0.729C434.562,132.095,437.971,132.931,441.693,128.652z"/>
		<path d="M230.147,243.846c-2.521-0.612-5.093-1.069-7.55-1.874c-3.429-1.123-4.886-5.272-2.708-8.069
			c0.513-0.659,2.982-0.807,3.585-0.211c2.831,2.794,5.324,5.929,7.938,8.943C230.99,243.038,230.569,243.442,230.147,243.846z"/>
	</g>
	<g>
		<path class="st0" d="M65.211,337.682c-0.144-0.648,0.072-0.864,0.72-1.08l3.24-0.576c2.305-0.504,4.608-1.152,6.625-2.232
			c0.216-0.144,0.504-0.144,0.576-0.36c1.08-0.936,2.304-1.44,3.601-2.016c1.655-0.864,3.384-1.584,4.896-2.52
			c3.456-2.232,6.192-5.112,7.056-9.361c0.288-1.656,1.152-3.384,0.937-5.112c-0.288-1.729-0.504-3.601-0.864-5.329
			c-1.008-4.032-3.601-8.137-5.904-11.305c-0.864-1.512-2.16-2.592-3.601-3.672c-3.384-2.808-7.272-4.536-11.448-5.76
			c-1.801-0.576-5.257-0.432-7.201-0.72c-1.008-0.144-1.08,0-1.08,0.936c0,1.512-0.072,3.097-0.216,4.608
			c0,1.729-0.072,3.601-0.072,5.329c-0.072,3.096,0.072,6.048,0.072,9.073c-0.145,4.464,0.432,8.569,0.432,12.601
			c-0.144,2.232,0.145,4.537,0.145,6.913c-0.072,3.312,0.144,6.697,0.071,10.081c-0.144,0.72-0.216,1.368-0.792,1.944
			c-0.504-0.504-0.504-0.936-0.504-1.44c0.145-0.936,0.216-1.944,0.216-3.024c0.072-2.736-0.504-5.544-0.504-8.353
			c-0.071-3.888-0.288-7.705-0.359-11.521c0-2.16-0.145-4.393,0.071-6.625c0.072-2.592-0.144-5.112-0.216-7.705
			c-0.072-2.448-0.072-4.969-0.072-7.345c0-1.152,0.288-2.304,0.36-3.457c0-0.504,0.145-2.16,0-1.728
			c-0.072,0.072,0.216-2.448,0.648-2.808c0.359-0.288,1.8-0.144,2.16,0.144c0.288,0.144,0.576,0.288,0.864,0.288
			c1.943,0.36,3.888,0.792,5.832,1.584c1.729,0.576,3.456,1.152,5.185,1.8c3.456,1.368,6.696,3.312,9.289,5.904
			c0.936,0.864,1.728,1.872,2.376,2.88c1.368,1.944,2.592,3.888,3.672,5.904c0.721,1.368,1.152,2.809,1.585,4.176
			c0.72,2.953,1.008,5.977,0.936,8.929c-0.072,3.6-1.512,6.696-3.456,9.577c-1.08,1.44-2.448,2.592-3.889,3.672
			c-2.376,1.8-5.185,3.096-7.992,4.32c-0.864,0.36-1.729,1.08-2.593,1.368c-3.456,1.368-6.841,2.592-10.729,2.664
			C65.211,338.042,65.211,337.898,65.211,337.682z"/>
		<path class="st0" d="M107.833,327.169c0-1.44-0.144-2.809-0.216-4.249c0-1.224-0.216-2.664-0.216-3.96
			c-0.145-1.656-0.145-3.312-0.36-4.968v-0.576c0.288-2.736-0.072-5.617-0.072-8.497c0-1.44,0.145-2.88,0.145-4.249
			c0.144-1.944,0-3.96,0-5.833c0.216-1.512,0-3.096,0.216-4.608c0.072-0.936-0.072-1.872-0.072-2.808
			c0-0.504,0.072-0.936,0.217-1.224c0.288-0.72,0.936-0.432,1.008,0.432c0.216,0.36,0.216,0.864,0.216,1.296
			c-0.144,4.176-0.216,8.209-0.144,12.313v5.833c0,2.448,0.216,5.041,0.216,7.417l0.504,7.993c0,3.096,0,6.192,0.288,9.289
			c0,1.224,0,2.376,0.072,3.6c0,1.512,0.216,2.953,0.288,4.249c0.071,0.576,0,1.152,0,1.8c0,0.216,0,0.504-0.145,0.576
			c-0.144,0.432-0.504,0.864-0.72,0.864c-0.504-0.072-0.576-0.648-0.576-1.08c-0.145-1.152-0.36-2.304-0.36-3.456
			c0-0.72,0-1.224-0.144-1.8C107.977,332.641,107.977,329.833,107.833,327.169z"/>
		<path class="st0" d="M153.34,321.264c0.144-3.384-0.217-8.137-0.217-11.449c-0.071-5.041-0.216-16.417,0.576-21.89
			c0-1.368,1.225-2.736,1.08-0.648c-0.863,10.153,0.433,23.114-0.288,33.195c-0.216,2.88,0.072,5.833-0.288,8.713
			c-0.359,2.808,0.793,7.993-0.287,9.073c-0.433,0.432-1.297,0.36-1.585-0.288c-0.792-1.728-2.448-3.384-3.312-4.968
			c-1.225-2.592-2.593-5.185-3.961-7.633c-1.944-4.104-4.608-9.577-6.696-13.753c-1.152-2.232-2.232-4.68-3.24-7.057
			c-1.513-3.168-3.312-6.192-4.824-9.217c-0.937-1.44-2.232-4.608-3.097-6.048c-0.144-0.432-0.36-0.72-0.72-0.792
			c0,1.728-0.145,4.968-0.145,6.696c0.072,5.113,0,10.009-0.216,15.049c-0.216,3.96-0.216,8.065-0.216,12.169
			c0,2.16,0.216,4.32,0.216,6.552c-0.144,2.088-0.216,4.393-0.432,6.553c-0.072,1.152-0.145,2.448-0.145,3.672
			c0,1.584-0.432,2.952-1.008,1.44c-0.145-0.432-0.145-0.936-0.145-1.368c0.145-2.232,0.217-4.536,0.288-6.625
			c0.072-2.376,0.145-4.824,0.145-6.984c0-3.601-0.072-7.273,0-10.801c0.144-4.896,0.432-9.937,0.504-14.833
			c0-3.528-0.072-6.841-0.072-10.297c-0.144-0.72-0.144-1.368-0.144-2.088c0-0.792,0.216-1.224,0.864-1.728
			c0.575-0.216,1.224-0.216,1.8,0.504c0.144,0.144,0.288,0.288,0.36,0.648c1.439,2.448,2.231,4.896,3.6,7.344
			c0.721,1.729,1.872,3.024,2.448,5.113c0.217,0.648,0.792,1.368,1.08,2.016l1.297,2.736c0.792,1.728,1.584,3.456,2.16,5.184
			c0.863,1.944,1.728,3.745,2.664,5.4c1.08,2.017,2.664,5.617,3.744,7.561c0.216,0.36,0.288,0.648,0.432,0.936
			c1.513,2.952,2.952,5.544,4.249,8.425c0.359,0.72,2.592,3.312,3.384,3.888C153.771,331.129,152.907,325.801,153.34,321.264z"/>
		<path class="st0" d="M169.391,302.543c2.448-6.913,5.977-15.049,12.889-17.209c2.809-0.864,5.329-0.936,8.137,0
			c3.457,1.008,6.121,3.096,7.993,7.129c0.576,1.08,1.08,2.232,1.584,3.528c2.16,4.68,3.024,10.009,3.528,15.409
			c0.36,5.329-0.792,10.153-2.232,14.761c-0.647,2.664-1.656,4.752-2.664,7.201c-1.512,3.312-4.464,6.336-8.064,6.984
			c-17.498,2.736-23.475-14.473-22.61-28.082C168.023,308.807,168.239,305.639,169.391,302.543z M169.391,314.712
			c1.944,12.529,5.832,27.362,20.521,24.266c4.465-0.936,5.329-2.664,7.345-5.976c0.288-0.432,0.576-0.937,0.72-1.296
			c1.513-3.6,2.377-7.272,3.312-11.305c1.44-5.473,1.152-10.657-0.144-15.698c-2.16-7.488-5.041-18.649-14.041-18.649
			C173.928,286.053,169.103,303.119,169.391,314.712z"/>
		<path class="st0" d="M241.609,336.53c0.072,0.792-2.736,0.936-3.744,0.864c-5.904,0.144-13.97-0.072-17.93-0.288
			c-1.368-0.144-3.097,0.576-2.88-0.576c-0.217-2.017,0-3.528-0.072-5.401c-0.576-6.12-0.433-15.409-0.288-21.458
			c0.072-4.249,0.36-8.353,0.432-12.529c0-1.944-0.144-3.96-0.144-5.904c0-1.584,0.144-3.024,0.072-4.537
			c0.071-0.216,0.071-0.432,0.071-0.576c0.145-0.216,0.288-0.504,0.433-0.504c0.071,0.072,0.359,0.288,0.359,0.36
			c0.072,0.36,0.433,0.792,0.433,1.368l-0.216,6.697c0.071,3.024,0.216,6.121,0.144,9.217c0,2.664-0.072,5.473-0.216,8.137
			c0.072,4.68-0.145,12.385-0.145,16.921c0.072,1.872,0.217,3.601,0.36,5.329c-0.072,0.072-0.072,0.36,0.072,0.432
			c0.072,1.728,0.144,1.8,1.368,1.728c9.001,0.72,14.113-0.288,21.817,0.144C241.537,336.098,241.609,336.386,241.609,336.53z"/>
		<path class="st0" d="M252.623,315.144c0.648-2.376,1.44-4.68,2.232-6.984c0.576-1.728,1.008-3.528,1.512-5.256
			c0.504-1.8,1.08-3.528,1.584-5.257c0-0.072,0.072-0.288,0.072-0.36c0.432-2.52,1.368-4.824,2.088-7.272
			c0.504-1.224,0.864-2.448,1.368-3.672c0.433-0.504,0.721-1.008,1.225-0.936c0.647,0.144,1.151,0.504,1.368,1.152
			c0.288,1.008,0.647,2.088,1.08,2.952c0.72,1.729,1.224,3.384,2.376,4.969c0.432,0.792,0.72,1.872,1.152,2.88
			c0.504,1.296,0.936,2.664,1.224,3.96c0.433,1.08,0.648,2.16,0.937,3.168c0.647,2.592,1.584,5.185,2.16,7.633
			c0.359,1.44,0.647,2.592,0.936,4.032l0.648,1.872c0.432,1.728,0.936,3.528,1.512,5.256c0.792,2.448,1.729,4.896,2.593,7.417
			c0.792,2.16,1.296,3.312,1.944,6.12c0,0.576-0.36,0.937-0.864,0.937c-1.008,0.36-1.513-3.745-1.729-4.393
			c-0.288-0.648-0.576-1.584-0.936-2.232c-0.288-0.648-0.505-1.296-0.721-1.872c-0.216-0.36-0.288-0.648-0.432-1.008
			c-0.072-0.432-0.288-0.72-0.288-1.008c-0.145-1.296-0.72-3.312-1.656-3.384l-4.536-0.432c-1.225-0.216-2.376-0.288-3.528-0.504
			c-1.584-0.072-3.024-0.288-4.536-0.576c-1.009-0.072-2.089-0.072-3.241-0.288c-0.863-0.072-1.8-0.216-2.592-0.432l-2.952-0.36
			c-1.729,5.833-2.88,11.737-4.32,17.786c-0.288,1.296-1.872,1.224-1.44-0.576L252.623,315.144z M274.009,322.273
			c-0.504-1.8-1.008-3.672-1.44-5.544c-0.432-1.08-0.72-2.376-1.08-3.528c-0.216-0.576-0.359-1.08-0.504-1.656
			c-0.288-1.296-0.504-2.664-1.008-3.888c-0.648-2.16-0.937-4.249-1.8-6.409c-0.505-1.512-1.009-3.024-1.729-4.608
			c-0.432-1.08-2.017-4.464-2.448-5.544l-1.296-2.809c-0.288,0.288-0.433,0.504-0.433,0.72c-0.576,1.368-1.656,5.185-2.16,6.48
			c-0.071,0.288-0.216,0.792-0.432,1.08c-0.576,1.368-1.008,2.809-1.368,4.393c0,0.144-0.072,0.504-0.145,0.72
			c-0.792,2.448-1.728,4.824-2.447,7.344c-0.36,1.224-1.009,2.521-1.368,3.745c-0.505,1.44-0.505,2.952-1.009,4.392
			c-0.071,0.504-0.432,1.008-0.432,1.656c-0.072,0.648-0.216,0.936,0.288,0.936c0.864,0.144,2.952,0.36,3.888,0.432
			c0.217,0,0.648-0.072,0.793,0c2.16,0.792,4.392,0.792,6.48,1.152c1.368,0.216,2.664,0.432,3.888,0.576
			c1.225,0.216,3.024,0.504,4.32,0.792h1.368C274.009,322.489,274.009,322.417,274.009,322.273z"/>
		<path class="st0" d="M320.378,321.264c0.144-3.384-0.217-8.137-0.217-11.449c-0.071-5.041-0.216-16.417,0.576-21.89
			c0-1.368,1.225-2.736,1.08-0.648c-0.863,10.153,0.433,23.114-0.288,33.195c-0.216,2.88,0.072,5.833-0.288,8.713
			c-0.359,2.808,0.793,7.993-0.287,9.073c-0.433,0.432-1.297,0.36-1.585-0.288c-0.792-1.728-2.448-3.384-3.312-4.968
			c-1.225-2.592-2.593-5.185-3.961-7.633c-1.944-4.104-4.608-9.577-6.696-13.753c-1.152-2.232-2.232-4.68-3.24-7.057
			c-1.513-3.168-3.312-6.192-4.824-9.217c-0.937-1.44-2.232-4.608-3.097-6.048c-0.144-0.432-0.36-0.72-0.72-0.792
			c0,1.728-0.145,4.968-0.145,6.696c0.072,5.113,0,10.009-0.216,15.049c-0.216,3.96-0.216,8.065-0.216,12.169
			c0,2.16,0.216,4.32,0.216,6.552c-0.144,2.088-0.216,4.393-0.432,6.553c-0.072,1.152-0.145,2.448-0.145,3.672
			c0,1.584-0.432,2.952-1.008,1.44c-0.145-0.432-0.145-0.936-0.145-1.368c0.145-2.232,0.217-4.536,0.288-6.625
			c0.072-2.376,0.145-4.824,0.145-6.984c0-3.601-0.072-7.273,0-10.801c0.144-4.896,0.432-9.937,0.504-14.833
			c0-3.528-0.072-6.841-0.072-10.297c-0.144-0.72-0.144-1.368-0.144-2.088c0-0.792,0.216-1.224,0.864-1.728
			c0.575-0.216,1.224-0.216,1.8,0.504c0.144,0.144,0.288,0.288,0.36,0.648c1.439,2.448,2.231,4.896,3.6,7.344
			c0.721,1.729,1.872,3.024,2.448,5.113c0.217,0.648,0.792,1.368,1.08,2.016l1.297,2.736c0.792,1.728,1.584,3.456,2.16,5.184
			c0.863,1.944,1.728,3.745,2.664,5.4c1.08,2.017,2.664,5.617,3.744,7.561c0.216,0.36,0.288,0.648,0.432,0.936
			c1.513,2.952,2.952,5.544,4.249,8.425c0.359,0.72,2.592,3.312,3.384,3.888C320.809,331.129,319.945,325.801,320.378,321.264z"/>
		<path class="st0" d="M340.463,337.682c-0.144-0.648,0.072-0.864,0.72-1.08l3.24-0.576c2.305-0.504,4.608-1.152,6.625-2.232
			c0.216-0.144,0.504-0.144,0.576-0.36c1.08-0.936,2.304-1.44,3.601-2.016c1.655-0.864,3.384-1.584,4.896-2.52
			c3.456-2.232,6.192-5.112,7.056-9.361c0.288-1.656,1.152-3.384,0.937-5.112c-0.288-1.729-0.504-3.601-0.864-5.329
			c-1.008-4.032-3.601-8.137-5.904-11.305c-0.864-1.512-2.16-2.592-3.601-3.672c-3.384-2.808-7.272-4.536-11.448-5.76
			c-1.801-0.576-5.257-0.432-7.201-0.72c-1.008-0.144-1.08,0-1.08,0.936c0,1.512-0.072,3.097-0.216,4.608
			c0,1.729-0.072,3.601-0.072,5.329c-0.072,3.096,0.072,6.048,0.072,9.073c-0.145,4.464,0.432,8.569,0.432,12.601
			c-0.144,2.232,0.145,4.537,0.145,6.913c-0.072,3.312,0.144,6.697,0.071,10.081c-0.144,0.72-0.216,1.368-0.792,1.944
			c-0.504-0.504-0.504-0.936-0.504-1.44c0.145-0.936,0.216-1.944,0.216-3.024c0.072-2.736-0.504-5.544-0.504-8.353
			c-0.071-3.888-0.288-7.705-0.359-11.521c0-2.16-0.145-4.393,0.071-6.625c0.072-2.592-0.144-5.112-0.216-7.705
			c-0.072-2.448-0.072-4.969-0.072-7.345c0-1.152,0.288-2.304,0.36-3.457c0-0.504,0.145-2.16,0-1.728
			c-0.072,0.072,0.216-2.448,0.648-2.808c0.359-0.288,1.8-0.144,2.16,0.144c0.288,0.144,0.576,0.288,0.864,0.288
			c1.943,0.36,3.888,0.792,5.832,1.584c1.729,0.576,3.456,1.152,5.185,1.8c3.456,1.368,6.696,3.312,9.289,5.904
			c0.936,0.864,1.728,1.872,2.376,2.88c1.368,1.944,2.592,3.888,3.672,5.904c0.721,1.368,1.152,2.809,1.585,4.176
			c0.72,2.953,1.008,5.977,0.936,8.929c-0.072,3.6-1.512,6.696-3.456,9.577c-1.08,1.44-2.448,2.592-3.889,3.672
			c-2.376,1.8-5.185,3.096-7.992,4.32c-0.864,0.36-1.729,1.08-2.593,1.368c-3.456,1.368-6.841,2.592-10.729,2.664
			C340.463,338.042,340.463,337.898,340.463,337.682z"/>
		<path class="st0" d="M383.085,327.169c0-1.44-0.144-2.809-0.216-4.249c0-1.224-0.216-2.664-0.216-3.96
			c-0.145-1.656-0.145-3.312-0.36-4.968v-0.576c0.288-2.736-0.072-5.617-0.072-8.497c0-1.44,0.145-2.88,0.145-4.249
			c0.144-1.944,0-3.96,0-5.833c0.216-1.512,0-3.096,0.216-4.608c0.072-0.936-0.072-1.872-0.072-2.808
			c0-0.504,0.072-0.936,0.217-1.224c0.288-0.72,0.936-0.432,1.008,0.432c0.216,0.36,0.216,0.864,0.216,1.296
			c-0.144,4.176-0.216,8.209-0.144,12.313v5.833c0,2.448,0.216,5.041,0.216,7.417l0.504,7.993c0,3.096,0,6.192,0.288,9.289
			c0,1.224,0,2.376,0.072,3.6c0,1.512,0.216,2.953,0.288,4.249c0.071,0.576,0,1.152,0,1.8c0,0.216,0,0.504-0.145,0.576
			c-0.144,0.432-0.504,0.864-0.72,0.864c-0.504-0.072-0.576-0.648-0.576-1.08c-0.145-1.152-0.36-2.304-0.36-3.456
			c0-0.72,0-1.224-0.144-1.8C383.229,332.641,383.229,329.833,383.085,327.169z"/>
		<path class="st0" d="M401.948,315.144c0.648-2.376,1.44-4.68,2.232-6.984c0.576-1.728,1.008-3.528,1.512-5.256
			c0.504-1.8,1.08-3.528,1.584-5.257c0-0.072,0.072-0.288,0.072-0.36c0.432-2.52,1.368-4.824,2.088-7.272
			c0.504-1.224,0.864-2.448,1.368-3.672c0.433-0.504,0.721-1.008,1.225-0.936c0.647,0.144,1.152,0.504,1.368,1.152
			c0.288,1.008,0.647,2.088,1.08,2.952c0.72,1.729,1.224,3.384,2.376,4.969c0.432,0.792,0.72,1.872,1.152,2.88
			c0.504,1.296,0.936,2.664,1.224,3.96c0.433,1.08,0.648,2.16,0.937,3.168c0.647,2.592,1.584,5.185,2.16,7.633
			c0.359,1.44,0.647,2.592,0.936,4.032l0.648,1.872c0.432,1.728,0.936,3.528,1.512,5.256c0.792,2.448,1.729,4.896,2.593,7.417
			c0.792,2.16,1.296,3.312,1.944,6.12c0,0.576-0.36,0.937-0.864,0.937c-1.008,0.36-1.513-3.745-1.729-4.393
			c-0.288-0.648-0.576-1.584-0.936-2.232c-0.288-0.648-0.505-1.296-0.721-1.872c-0.216-0.36-0.288-0.648-0.432-1.008
			c-0.072-0.432-0.288-0.72-0.288-1.008c-0.145-1.296-0.72-3.312-1.656-3.384l-4.536-0.432c-1.225-0.216-2.376-0.288-3.528-0.504
			c-1.584-0.072-3.024-0.288-4.536-0.576c-1.009-0.072-2.089-0.072-3.241-0.288c-0.863-0.072-1.8-0.216-2.592-0.432l-2.952-0.36
			c-1.729,5.833-2.88,11.737-4.32,17.786c-0.288,1.296-1.872,1.224-1.44-0.576L401.948,315.144z M423.334,322.273
			c-0.504-1.8-1.008-3.672-1.44-5.544c-0.432-1.08-0.72-2.376-1.08-3.528c-0.216-0.576-0.359-1.08-0.504-1.656
			c-0.288-1.296-0.504-2.664-1.008-3.888c-0.648-2.16-0.937-4.249-1.8-6.409c-0.505-1.512-1.009-3.024-1.729-4.608
			c-0.432-1.08-2.017-4.464-2.448-5.544l-1.296-2.809c-0.288,0.288-0.433,0.504-0.433,0.72c-0.576,1.368-1.656,5.185-2.16,6.48
			c-0.071,0.288-0.216,0.792-0.432,1.08c-0.576,1.368-1.008,2.809-1.368,4.393c0,0.144-0.072,0.504-0.145,0.72
			c-0.792,2.448-1.728,4.824-2.447,7.344c-0.36,1.224-1.009,2.521-1.368,3.745c-0.505,1.44-0.505,2.952-1.009,4.392
			c-0.071,0.504-0.432,1.008-0.432,1.656c-0.072,0.648-0.216,0.936,0.288,0.936c0.864,0.144,2.952,0.36,3.888,0.432
			c0.217,0,0.648-0.072,0.793,0c2.16,0.792,4.392,0.792,6.48,1.152c1.368,0.216,2.664,0.432,3.888,0.576
			c1.225,0.216,3.024,0.504,4.32,0.792h1.368C423.334,322.489,423.334,322.417,423.334,322.273z"/>
	</g>
</g>
</svg>