<!-- Generator: Adobe Illustrator 21.0.0, SVG Export Plug-In  -->
<svg version="1.1"
	 xmlns="http://www.w3.org/2000/svg" xmlns:xlink="http://www.w3.org/1999/xlink" xmlns:a="http://ns.adobe.com/AdobeSVGViewerExtensions/3.0/"
	 x="0px" y="0px" width="769.119px" height="478.599px" viewBox="0 0 769.119 478.599"
	 style="enable-background:new 0 0 769.119 478.599;" xml:space="preserve">
<style type="text/css">
	.st0{fill:#9B0909;}
	.st1{fill:#1F0B05;}
	.st2{fill:#200F09;}
	.st3{fill:#20979B;}
	.st4{fill:#024F57;}
	.st5{fill:#1F9699;}
	.st6{fill:#13858C;}
	.st7{fill:#1A8E93;}
	.st8{fill:#10828A;}
	.st9{fill:#B1E0AA;}
	.st10{fill:#05595F;}
	.st11{fill:#D12B05;}
	.st12{fill:#8D0100;}
	.st13{fill:#D52E05;}
	.st14{fill:#A61009;}
	.st15{fill:#A91108;}
	.st16{fill:#960609;}
	.st17{fill:#B11608;}
	.st18{fill:#970609;}
	.st19{fill:#8E0100;}
	.st20{fill:#BC1D07;}
	.st21{fill:#E83C02;}
	.st22{fill:#9E0A08;}
	.st23{fill:#0F6A6F;}
	.st24{fill:#B01508;}
	.st25{fill:#EA3E03;}
	.st26{fill:#C82506;}
	.st27{fill:#C42206;}
	.st28{fill:#4F0101;}
	.st29{fill:#C52206;}
	.st30{fill:#AE1408;}
	.st31{fill:#4F0001;}
	.st32{fill:#AB1108;}
	.st33{fill:#0F6166;}
	.st34{fill:#283A37;}
	.st35{fill:#BD1E06;}
	.st36{fill:#501205;}
	.st37{fill:#701804;}
	.st38{fill:#28A4A3;}
	.st39{fill:#076B75;}
	.st40{fill:#076A75;}
	.st41{fill:#034F57;}
	.st42{fill:#106B6E;}
	.st43{fill:#045058;}
	.st44{fill:#035057;}
	.st45{fill:#116E71;}
	.st46{fill:#044F56;}
	.st47{fill:#222424;}
	.st48{fill:#0F6A6D;}
	.st49{fill:#1C4947;}
	.st50{fill:#6BAC81;}
	.st51{fill:#5F694C;}
	.st52{fill:#BFB7B4;}
	.st53{fill:#D0CBC7;}
	.st54{fill:#2E2523;}
	.st55{fill:#BD1C07;}
	.st56{fill:#1E0C07;}
	.st57{fill:#200C07;}
	.st58{fill:#200F0B;}
	.st59{fill:#271510;}
	.st60{fill:#D02905;}
	.st61{fill:#F74801;}
	.st62{fill:#F04202;}
	.st63{fill:#D02A05;}
	.st64{fill:#B81A07;}
	.st65{fill:#A71008;}
	.st66{fill:#BE1D07;}
	.st67{fill:#B41708;}
	.st68{fill:#DD3E07;}
	.st69{fill:#5D1804;}
	.st70{fill:#521604;}
	.st71{fill:#641805;}
	.st72{fill:#591605;}
	.st73{fill:#6AAA80;}
	.st74{fill:#097882;}
	.st75{fill:#69AA80;}
	.st76{fill:#0A6364;}
	.st77{fill:#03565E;}
	.st78{fill:#054244;}
	.st79{fill:#044145;}
	.st80{fill:#AEDBA6;}
	.st81{fill:#02393C;}
	.st82{fill:#69A980;}
	.st83{fill:#67A27A;}
	.st84{fill:#B1DFAA;}
	.st85{fill:#D7C8AA;}
	.st86{fill:#E9DBBB;}
	.st87{fill:#ECDFBF;}
	.st88{fill:#E8D9B8;}
	.st89{fill:#DCCDAF;}
	.st90{fill:#E4D8BB;}
	.st91{fill:#454A36;}
	.st92{fill:#056B75;}
	.st93{fill:#0D666B;}
	.st94{fill:#3B4632;}
	.st95{fill:#173A3B;}
</style>
<defs>
</defs>
<g>
	<path class="st0" d="M186.283,163.878c0,0-4.717,7.61-1.534,17.481c3.183,9.871,7.591-10.224,7.591-10.224L186.283,163.878z"/>
	<path class="st1" d="M373.334,7.743c9.287,1.915,17.663,6.19,26.179,10.104c1.648,0.757,3.694,1.092,4.905,2.284
		c6.738,6.632,12.266,3.45,18.369-1.304c7.502-5.844,16.036-10.131,24.38-14.725c6.289-3.462,11.425-2.885,16.982,0.641
		c18.906,11.992,36.592,25.458,48.045,45.155c3.266,5.617,5.78,7.552,12.267,5.859c10.139-2.646,20.649-3.432,31.185-3.371
		c2.987,0.017,4.733,0.744,6.083,3.78c2.348,5.282,4.575,10.589,6.29,16.095c1.067,3.425,2.711,4.908,6.703,4.696
		c8.804-0.468,17.641-0.348,26.426,0.963c2.383,0.356,4.159,0.994,4.869,3.427c6.342,21.752,11.702,43.665,9.824,66.607
		c-0.228,2.783,0.821,2.724,2.776,2.371c4.739-0.856,9.516-1.525,14.221-2.534c3.399-0.729,5.389,0.309,6.483,3.621
		c2.278,6.896,4.928,13.674,6.239,20.861c0.385,2.111,1.187,3.521,3.882,3.515c7.022-0.015,13.77,2.211,20.714,2.937
		c2.704,0.283,3.402,2.221,3.919,4.424c1.522,6.488,2.375,13.088,2.885,19.706c0.236,3.064,0.678,3.954,3.992,2.863
		c11.932-3.928,11.974-3.8,19.342,6.363c5.001,6.898,4.981,6.814,13.324,4.825c5.337-1.272,10.723-2.238,16.259-2.448
		c2.693-0.102,4.208,1.086,5.02,3.144c2.67,6.768,5.375,13.587,5.939,20.921c0.602,7.822-2.603,14.195-8.624,19.03
		c-3.401,2.731-3.459,3.579,0.989,5.298c12.789,4.941,24.929,11.169,33.435,22.537c4.483,5.991,2.582,9.228-3.214,11.051
		c-9.482,2.982-19.245,4.799-28.72,7.861c-14.691,4.748-28.236,11.647-41.179,19.824c-27.371,17.293-51.913,38.465-78.185,57.246
		c-10.409,7.441-16.613,18.425-26.12,26.376c-3.543,2.963-4.348,5.117-1.594,9.681c5.291,8.77,9.183,18.359,10.655,28.677
		c0.375,2.626,0.419,5.301,0.557,7.957c0.185,3.57-1.788,5.752-5.027,6.375c-15.477,2.976-30.982,3.824-46.535,0.307
		c-3.242-0.733-4.415-2.535-4.377-5.59c0.065-5.176,0.248-10.372,2.606-15.094c1.036-2.075,0.736-3.197-1.06-4.535
		c-3.406-2.539-6.655-5.29-9.934-7.996c-1.054-0.87-1.959-1.493-3.529-1.045c-7.627,2.178-15.297,4.206-23.382,6.404
		c3.613,6.384,7.115,12.763,9.723,19.595c1.866,4.887,2.422,10.004,3.256,15.051c0.834,5.049-1.253,6.845-6.313,8.219
		c-12.595,3.419-25.49,3.061-38.211,2.453c-5.897-0.282-12.176,0.327-18.072-2.125c-2.815-1.17-3.663-2.589-3.14-5.188
		c0.882-4.376,1.335-8.921,3.397-12.931c1.634-3.176,1.653-5.14-1.855-7.174c-3.949-2.289-7.618-5.199-11.009-8.279
		c-5.853-5.315-17.618-3.516-21.917,2.596c-1.783,2.535-1.429,4.946-0.928,7.587c1.641,8.648-1.174,13.075-9.748,13.59
		c-10.949,0.658-21.921,0.655-32.693-2.428c-3.747-1.073-5.319-3.043-5.219-6.63c0.13-4.653-0.016-9.372,1.339-13.873
		c0.795-2.641,0.735-3.771-2.563-3.938c-5.807-0.294-11.602-1.045-17.364-1.87c-2.012-0.288-3.427-0.145-4.743,1.534
		c-4.952,6.318-11.363,11.001-17.9,15.49c-2.437,1.674-3.993,3.407-2.713,6.519c0.246,0.599,0.23,1.308,0.322,1.968
		c1.32,9.491-0.762,12.043-10.348,12.638c-2.322,0.144-4.554,0.782-6.814,1.165c-8.403,1.421-16.889,2.689-25.151-0.908
		c-0.443-0.193-0.974-0.187-1.465-0.261c-6.348-0.96-7.207-2.745-6.346-9.349c1.872-14.355,6.854-27.39,15.801-39.308
		c-10.027-2.816-19.631-5.629-29.299-8.199c-11.652-3.097-23.079-6.889-34.488-10.753c-21.553-7.3-42.464-16.196-63.081-25.767
		c-13.438-6.238-26.717-12.833-39.933-19.532c-10.013-5.075-20.119-5.38-31.074-3.389c-34.536,6.277-66.035-10.299-74.897-46.439
		c-0.986-4.021-2.817-7.828-3.036-12.042c-0.508-2.941,0.509-5.176,3.092-6.689c3.564,1.564,3.091,5.266,4.292,8.084
		c-0.185,3.692,1.591,6.82,2.931,10.074c3.157,14.24,11.365,24.987,23.615,32.415c14.299,8.671,29.907,10.819,46.009,6.317
		c11.71-3.274,21.271-9.896,27.046-21.075c0.718-2.172,1.926-4.104,3.038-6.071c1.123-1.986,2.625-2.898,4.654-1.006
		c0.925,2.023,1.654,4.329,0.305,6.177c-2.696,3.694-0.375,4.109,2.513,4.991c5.385,1.643,10.71,3.524,15.841,5.877
		c2.577,1.182,5.012,2.684,7.871,0.541c0.876-0.656,2.256-0.264,2.154,1.022c-0.357,4.481,3.302,5.464,6.063,6.918
		c8.511,4.48,16.789,9.408,25.565,13.388c9.93,4.214,19.915,8.275,29.92,12.294c3.246,1.304,6.336-1.957,8.406-0.04
		c2.031,1.88,3.49,3.941,6.413,4.918c14.185,4.744,28.737,8.049,43.254,11.508c1.129,0.269,2.183,0.727,3.687,1.185
		c-1.043-4.855-2.435-9.53-1.394-14.361c0.833-3.867,1.921-4.677,5.314-4.114c0.351,2.703-2.368,4.885-1.349,7.423
		c0.096-2.265-0.416-5.158,3.415-5.545c0.537,0.145,0.935,0.454,1.216,0.93c1.481,5.878-0.022,12.11,2.176,17.892
		c0.545,1.987,1.138,3.965,1.455,6.005c1.067,4.182,2.784,8.092,4.832,11.889c1.575,2.919,2.919,5.437,7.18,3.837
		c2.469-0.927,2.772,1.342,1.873,2.998c-1.574,2.902-3.568,5.535-5.887,7.95c-4.82,5.019-9.414,10.24-12.485,16.589
		c-3.095,6.276-6.029,12.576-3.844,19.764c1.079,0.297,1.496-0.252,1.977-0.694c3.85-3.533,6.03-3.532,8.846,0.665
		c1.619,2.412,2.534,2.844,4.793,0.697c2.724-2.589,5.476-1.783,7.621,1.155c0.785,1.075,1.428,2.257,2.427,3.163
		c1.902,1.725,4.016,1.285,6.099,0.49c1.939-0.74,1.99-2.464,1.952-4.181c-0.03-1.339-0.24-2.659-0.548-3.955
		c-1.2-5.054,0.734-8.638,4.897-11.512c6.039-4.169,11.702-8.837,16.305-14.609c5.161-6.473,9.442-13.35,8.621-22.178
		c0.002-7.941-0.883-15.667-5.352-22.538c-6.231-9.373-13.763-17.269-24.487-21.545c-0.957-0.674-2.031-1.144-3.018-1.756
		c-0.945-0.587-2.396-0.97-2.062-2.434c0.395-1.732,1.938-2.274,3.496-2.175c3.878,0.246,7.479,1.636,10.862,3.401
		c12.366,6.448,21.723,15.841,26.966,28.891c1.603,3.989,3.891,5.577,8.219,5.464c5.988-0.157,11.937-0.462,17.896-1.082
		c3.74-0.389,5.389-2.099,5.16-5.785c-0.052-0.826-0.044-1.676,0.128-2.486c0.261-1.226,0.094-3.104,1.758-3.085
		c1.664,0.019,1.481,1.909,1.725,3.139c0.226,1.139,0.141,2.32,0.189,3.482c0.084,2.018,0.986,3.084,3.13,2.893
		c0.656-0.058-0.17-0.056,0.497-0.042c13.156,0.272,13.925-0.139,13.47-13.01c-0.512-14.486,3.173-27.95,8.418-41.173
		c7.467-12.01,15.162-23.835,25.996-33.24c2.152-1.869,4.49-3.417,6.775-5.071c5.513-4.04,11.222-7.762,17.479-10.563
		c1.585-0.71,3.559-2.45,4.855-0.384c1.394,2.222-0.852,3.716-2.476,4.709c-10.169,6.219-19.007,14.029-27.009,22.765
		c-10.089,11.015-18.623,23.008-21.881,37.999c-3.558,14.113-4.002,28.204,0.216,42.264c2.206,10.62,8.352,19.023,15.36,26.879
		c7.458,8.361,16.277,15.136,25.575,21.315c1.107,0.735,2.278,1.392,3.289,2.248c1.802,1.526,3.432,3.046,0.02,4.744
		c-3.316,1.65-1.245,3.804-0.365,5.855c1.084,2.526,2.485,2.486,4.639,1.105c2.982-1.912,6.607-1.414,7.769,1.613
		c2.927,7.626,8.845,7.307,15.092,6.939c0.993-0.059,1.992-0.053,2.991-0.059c2.677,0.061,5.314-0.197,7.934-0.779
		c4.906-1.091,6.54-2.797,5.182-7.674c-2.764-9.93-6.573-19.503-11.803-28.464c-2.147-3.68-5.82-1.334-8.576-2.496
		c-1.443-2.435,0.444-3.672,1.876-4.987c2.473-2.27,5.537-3.689,8.294-5.555c14.428-9.762,23.394-23.903,31.286-38.908
		c1.861-3.538,3.577-7.151,5.073-10.861c5.064-12.559,4.265-25.015-0.719-37.383c-1.449-4.394-3.386-8.574-5.462-12.7
		c-0.872-1.734-2.241-3.867,0.178-5.193c2.361-1.294,3.485,1.024,4.641,2.561c5.124,6.811,8.592,14.427,10.873,22.608
		c0.21,3.941,0.888,7.84,1.21,11.77c0.221,2.704,1.25,3.011,3.477,1.864c2.485-1.28,5.091-2.355,7.719-3.282
		c3.239-1.142,5.538-2.715,5.435-6.594c-0.032-1.229,0.281-2.723,2.12-2.783c1.663,3.91,4.242,3.733,7.618,2.089
		c19.155-9.331,37.76-19.725,56.81-29.255c2.308-1.155,3.092-2.763,2.628-5.25c-0.362-1.94-0.555-3.948,1.15-5.421
		c1.587,0.385,1.988,1.582,2.182,2.664c0.818,4.544,3.087,3.964,6.387,2.344c12.712-6.238,25.823-11.571,39.478-15.332
		c4.306-1.186,4.937-4.877,6.86-7.739c2.534,0.926,1.947,4.615,4.993,4.645c2.247,0.022,4.188-0.994,6.285-1.434
		c12.051-2.53,24.17-4.322,36.563-3.683c5.993,0.309,11.957,0.591,17.827,1.963c1.079,0.252,2.321,0.515,3.549-0.897
		c-3.353-4.575-8.339-7.217-12.849-10.409c-11.238-7.929-24.135-11.862-37.206-15.305c-4.951-1.304-8.389,0.414-9.715,5.21
		c-0.96,3.472-2.931,3.175-5.258,2.416c-10.547-3.437-21.459-4.478-32.438-5.176c-1.733-0.11-4.211,0.441-4.683-1.76
		c-0.407-1.898,2.326-1.968,3.593-3.512c-2.094-1.073-4.25-0.877-6.22-0.505c-10.157,1.918-20.251,0.226-30.365-0.323
		c-1.168-0.063-2.306-0.352-3.413-0.729c-19.275-6.58-35.426-17.765-48.481-33.331c-2.954-3.522-7.317-6.582-5.975-12.408
		c0.279-1.212-1.221-2.295-2.196-3.192c-8.579-7.895-17.19-15.763-26.486-22.818c-4.423-3.357-5.851-3.017-9.073,1.474
		c-2.17,3.025-4.494,1.336-6.493,0.027c-7.81-5.114-15.859-9.789-24.095-14.187c-9.596-5.125-19.303-9.792-30.288-11.051
		c-0.991-0.114-1.955-0.412-2.903-0.736c-1.298-0.444-2.796-1.041-2.756-2.522c0.046-1.708,1.79-1.653,3.069-1.87
		c0.82-0.139,1.664-0.09,2.487-0.225c1.233-0.203,2.323-0.68,2.386-2.106c0.064-1.434-1.052-2.022-2.2-2.342
		c-3.051-0.85-6.144-1.642-9.311-1.758c-5.993-0.22-11.993-0.089-17.991-0.061c-1.664,0.008-3.464-0.043-4.315,1.815
		c-0.922,2.011,0.422,3.062,1.894,4.026c0.879,0.576,1.633,1.369,1.097,2.469c-0.674,1.384-2.13,1.582-3.45,1.557
		c-5.698-0.11-11.241,0.944-16.849,1.77c-13.378,1.971-26.506,4.94-39.279,9.305c-11.016,3.765-21.951,7.811-32.235,13.378
		c-1.175,0.636-2.364,1.259-3.666,1.571c-2.474,0.594-4.599,0.743-3.335-2.955c0.544-1.592,1.17-3.402-0.477-4.595
		c-1.443-1.045-2.858,0.207-4.156,0.841c-12.281,5.998-24.102,12.827-35.74,19.977c-1.271,0.781-2.529,1.651-3.441,2.866
		c-1.989,2.652-1.554,5.277,1.391,6.815c3.128,1.633,2.635,2.929-0.017,4.396c-5.25,2.903-10.68,5.451-16.029,8.157
		c-10.412,5.269-20.731,10.675-29.815,18.121c-0.257,0.211-0.522,0.419-0.807,0.588c-1.518,0.899-2.853,2.742-4.865,1.726
		c-2.055-1.038,0.228-3.049-0.765-4.759c-8.803,5.412-16.902,11.712-25.11,17.853c-0.853,0.638-1.495,1.425-0.97,2.537
		c1.483,3.138-1.106,4.231-2.911,5.429c-8.045,5.343-15.847,11.033-23.788,16.522c-2.208,1.526-4.343,3.428-6.823,0.208
		c-1.158-1.504-2.797-0.59-4.14-0.017c-2.458,1.049-5.037,1.747-7.517,2.697c-8.105,3.101-16.316,2.987-24.537,0.88
		c-4.862-1.245-9.93-1.099-14.74-2.609c-2.898-0.91-1.528,0.944-1.133,2.073c0.819,2.79,2.308,5.381,2.395,8.372
		c0.005,2.26,0.178,4.534-0.123,6.773c-0.208,1.552-0.352,3.444-2.837,2.825c-1.452-0.724-2.139-2.015-2.394-3.523
		c-1.692-10.006-6.703-18.046-14.43-24.485c-3.302-2.658-7.049-4.442-11.09-5.654c-3.149-0.401-5.341-2.539-7.627-4.383
		c-3.155-2.546-6.593-4.359-10.586-5.099c-6.378-1.074-12.695-0.197-19.009,0.547c-5.467-0.305-7.656,4.799-11.544,7.105
		c-1.248,0.74-0.431,2.048,0.387,3.001c0.944,1.1,2.376,1.941,2.129,3.731c-3.055,3.474-5.401,0.928-7.367-1.168
		c-4.457-4.753-9.582-8.435-15.589-10.912c-5.011-2.719-9.892-1.888-14.698,0.552c-1.041,3.582-2.01,6.869-7.191,5.302
		c-1.954-0.591-3.245,1.97-4.511,3.469c-2.076,2.456-3.192,5.352-4.146,9.431c9.139-3.613,17.575-1.568,25.952,0.311
		c7.641,1.715,14.819,4.889,22.081,7.756c6.214,2.453,12.569,4.359,19.245,5.004c5.56,0.537,10.522-0.779,14.717-4.686
		c2.077-1.934,3.43-3.651,0.602-6.074c-0.909-0.779-2.186-2-0.824-3.356c1.051-1.047,2.472-0.68,3.769-0.223
		c4.261,1.501,9.219,8.109,9.461,12.683c0.132,2.502-1.045,4.425-3.457,2.871c-2.632-1.696-3.735-0.744-5.202,1.19
		c-1.375,1.812-3.528,2.402-5.638,2.976c-5.999,1.817-12.005,1.033-18.011,0.103c-9.018-0.4-16.793-5.001-25.187-7.517
		c-2.208-0.662-4.448-1.385-6.464-2.583c-1.688-1.468-3.637-2.186-5.892-1.999c-4.026,0.145-7.897-1.091-11.947-1.243
		c0.199,1.067,1.338,1.693,1.599,2.79c0.459,2.11-0.187,3.86-2.017,4.936c-1.984,1.166-2.104-1.336-3.247-1.877
		c-2.532-3.747-5.576-5.188-10.154-3.239c-3.462,1.474-5.455,0.242-5.434-4.084c0.069-13.757,9.511-24.635,22.505-28.525
		c9.734-2.914,18.605-1.671,26.249,5.61c2.918,2.779,5.921,1.878,8.727-0.527c13.482-11.559,34.25-11.202,47.906,0.292
		c3.978,3.349,9.603,4.774,13.479,8.204c4.89,4.328,10.62,5.659,16.495,7.044c3.333,0.786,6.758,1.184,11.466,1.982
		c-4.514-4.018-8.225-6.977-11.611-10.294c-7.175-7.028-7.024-15.55-5.277-24.134c1.101-5.41,3.742-10.517,5.799-15.718
		c1.011-2.556,2.683-4.145,5.788-3.191c1.091,0.335,2.307,0.274,3.467,0.372c10.383,0.877,10.424,0.892,14.27-9.005
		c0.602-1.55,1.215-2.774,3.019-2.739c13.175,0.256,26.656-2.46,39.203,3.982c3.288,1.029,5.137,3.613,6.591,6.442
		c3.12,6.069,5.805,12.292,6.806,19.155c0.654,4.486,1.454,4.839,4.904,2.271c5.182-3.857,10.498-7.552,15.894-11.917
		c-4.405-3.447-9.514-4.44-14.029-6.621c-6.545-3.162-13.727-5.085-19.344-10.034c-5.826-3.576-12.058-6.736-15.889-12.698
		c-4.784-7.445-6.631-15.719-6.005-24.543c1.069-0.969,2.271-1.117,3.581-0.582c2.645,3.087,2.885,7.037,3.367,10.731
		c1.183,9.046,5.949,15.126,13.897,19.352c15.581,8.284,32.161,14.396,47.869,22.383c1.32,0.671,2.763,1.799,3.99,0.153
		c1.109-1.487-0.057-2.813-0.888-4.057c-3.779-5.653-9.378-9.379-14.496-13.598c-4.616-3.805-9.834-6.864-14.04-11.182
		c-1.027-1.054-2.546-2.356-1.444-3.826c1.4-1.869,3.072-0.364,4.318,0.589c10.812,8.269,22.552,15.489,30.754,26.743
		c1.226,1.683,2.314,2.222,4.021,0.759c1.668-1.43,4.333-2.206,2.412-5.401c-3.089-5.138-6.253-10.242-10.054-14.855
		c-4.33-5.255-9.062-10.137-14.223-14.664c-5.624-4.933-9.732-11.339-14.769-16.873c-3.572-4.89-6.941-9.927-10.643-14.724
		c-0.899-1.165-1.783-2.418-0.98-4.038c0.368-0.343,0.8-0.569,1.284-0.7c4.891,1.616,5.908,6.746,9.042,9.958
		c11.109,12.836,23.133,24.853,33.903,37.999c3.814,4.655,6.839,9.851,10.609,14.517c0.939,1.162,1.824,2.594,3.572,2.333
		c2.904-0.433,2.605-2.29,1.951-4.487c-3.661-12.308-8.236-24.216-14.268-35.596c-3.12-5.886-6.212-11.757-9.955-17.273
		c-1.337-2.108-4.732-4.752-2.34-6.615c3.079-2.398,4.586,1.898,6.133,3.895c2.631,3.395,4.716,7.189,6.683,11.024
		c8.553,14.31,15.339,29.352,19.135,45.663c2.112-1.454,2.102-3.825,2.11-6.145c0.031-9.818,0.14-19.638-0.038-29.453
		c-0.104-5.709-2.199-10.996-4.275-16.237c-0.976-1.354-1.805-2.801-2.69-4.21c-0.867-1.38-2.289-3.129-0.457-4.353
		c1.65-1.102,3.09,0.656,4.089,1.881c2.971,3.644,5.368,7.62,6.131,12.381c4.538,13.579,3.048,27.522,2.633,41.473
		c2.118-12.316,4.155-24.588,3.561-37.12c1.634-17.912-7.449-29.563-22.325-37.562c-5.374-2.89-10.728-5.936-16.645-7.753
		c-1.673-0.514-3.538-1.189-3.823-3.429c1.52-2.116,3.866-2.502,6.18-2.963c16.817,6.123,32.443,13.796,40.646,31.181
		c1.164,2.468,1.729,5.008,1.789,7.698c1.815,9.433,1.322,19.004,0.915,29.679c9.379-6.062,18.452-10.139,26.743-15.613
		c3.498-3.552,2.849-8.696,4.871-12.858c0.911-1.875-1.27-3.606-2.566-5.064c-7.277-8.192-13.982-16.795-20.17-25.863
		c-5.019-7.355-9.154-14.983-11.107-23.676c-0.986-4.389-2.934-7.684-7.679-8.66c-0.828-0.17-1.455-0.767-1.67-1.667
		c1.654-3.24,4.02-4.324,7.367-2.429c4.18-0.703,0.788-4.063,2.033-5.795c0.47-0.723,0.268-1.583,0.474-2.35
		c1.284-4.776,1.775-4.902,5.915-1.614c0.478,1.017,0.512,2.079,0.336,3.164c-0.771,4.761-0.755,9.523-0.004,14.283
		c0.257,1.003,0.376,2.026,0.436,3.054c1.255,9.542,6.126,17.511,11.446,25.139c7.329,10.508,16.38,19.676,23.97,30.007
		c2.961,4.03,5.639,8.234,8.367,12.408c1.327,2.031,2.262,4.001,5.392,2.418c2.946-1.489,4.453-3.128,3.37-6.624
		c-1.701-5.493-4.521-10.404-7.837-14.972c-7.11-9.796-12.477-20.449-16.018-31.966c-1.316-4.28-2.842-8.809-0.701-13.391
		c2.652-0.321,2.786,1.846,3.345,3.484c0.588,1.723,0.956,3.516,1.349,5.293c0.54,6.506,3.911,11.968,6.861,17.487
		c3.126,5.848,6.47,11.636,10.758,16.769c3.529,4.225,6.704,8.711,9.132,13.634c1.843,3.737,4.268,4.256,7.655,2.351
		c0.724-0.407,1.492-0.78,2.297-0.96c3.677-0.824,3.886-3.286,2.656-6.076c-1.941-4.406-3.442-8.993-5.709-13.268
		c-4.657-8.782-8.953-17.757-14.081-26.297c-4.718-8.955-4.862-18.866-5.937-28.57c-0.254-2.294,0.143-4.658-0.708-6.902
		c-0.834-6.926,0.064-13.927-0.965-20.851c-0.213-1.433-0.145-3.496,1.657-3.634c1.584-0.121,2.227,1.785,2.588,3.232
		c1.405,5.637,2.677,11.302,2.33,17.177c0.032,11.555,2.455,22.702,5.792,33.686c3.476,9.192,8.383,17.655,13.348,26.09
		c3.032,5.151,5.818,10.424,7.92,16.043c1.876,5.015,3.114,5.592,8.234,4.184c8.27-2.275,8.265-2.571,7.809-11.35
		c-0.568-10.949-3.014-21.635-4.118-32.503c-0.15-1.476-0.816-2.864-1.391-4.244c-1.98-6.041-3.333-12.293-6.127-18.06
		c-2.222-4.09-3.468-8.59-5.389-12.806c-0.344-0.756-0.582-1.557-0.599-2.394c-0.027-1.343-0.043-2.808,1.475-3.355
		c1.682-0.606,2.36,0.813,2.964,1.956c3.171,6.005,5.72,12.294,8.208,18.597c1.273,3.227,2.413,6.516,3.59,9.787
		c4.923,14.741,6.508,30.155,9.112,45.362c0.385,2.247,0.429,4.494,3.577,4.196c2.687-0.254,5.953,0.536,6.628-3.55
		c1.89-11.444,5.364-22.655,5.031-34.426c0.153-3.667-0.145-7.331-0.038-10.993c0.38-3.286-0.317-6.381-1.686-9.356
		c-1.021-2.107-1.359-4.441-2.232-6.609c-0.554-1.377-2.04-3.249,0.403-4.179c2.017-0.768,2.989,1.033,3.739,2.496
		c3.056,5.958,5.189,12.208,5.645,18.949c0.676,13.979-0.104,27.869-2.576,41.657c-0.228,1.273-0.703,2.877,0.835,3.557
		c1.68,0.743,3.25-0.011,4.496-1.293c0.708-0.728,1.153-1.648,1.434-2.603c2.817-9.563,6.756-18.767,9.114-28.477
		c1.985-6.447,4.387-12.754,6.423-19.185c1.261-3.982,1.661-8.056,1.498-12.203c2.508-25.18-11.154-41.696-29.975-55.187
		c-12.743-9.134-26.652-16.138-41.748-20.628c-1.123-0.334-2.118-0.95-2.982-1.758C368.854,9.586,370.831,8.549,373.334,7.743z"/>
	<path class="st2" d="M184.514,177.706c-1.367-0.025-2.734-0.051-4.1-0.077c-0.349-2.019-0.383-4.033,0.075-6.042
		c0.919-1.01,2.196-1.392,3.38-1.947C184.5,169.333,189.702,176.829,184.514,177.706z"/>
	<path class="st1" d="M15.588,289.544c3.432,2.494,4.151,0.108,4.687-2.607c3.774,1.229,4.688,4.01,4.123,7.595
		c-1.094,2.125-2.187,4.251-3.28,6.376C19.275,297.12,17.431,293.332,15.588,289.544z"/>
	<path class="st2" d="M184.486,170.443c-1.129,1.096-2.568,1.105-3.998,1.144c-0.009-3.625-0.018-7.25-0.027-10.875
		c2.334-3.308,3.095-0.591,4.13,1.078C186.396,164.696,185.835,167.574,184.486,170.443z"/>
	<path class="st3" d="M24.398,294.532c-0.745-2.875-2.57-5.163-4.124-7.596c-1.145-1.28-2.291-2.56-3.705-4.14
		c5.226-1.057,9.948,0.524,14.729,0.934c-2.068,1.504-2.068,1.504-5.523,0.887c3.672,1.643,7.835-1.495,11.418,1.012
		c7.972,2.882,15.92,5.836,23.933,8.601c2.318,0.8,4.823,1.057,7.242,1.563c6.325,1.91,12.643,2.309,18.948-0.087
		c1.228-1.544,3.495-1.371,4.712-3.337c1.252-2.024,3.125-7.22,5.708-0.599c0.27,0.693,1.138,0.74,1.733,0.427
		c0.348-0.183,0.614-0.763,0.683-1.202c0.794-5.004-6.139-12.487-11.882-12.862c0.567,2.626,5.631,3.054,4.237,5.635
		c-2.507,4.639-6.748,8.057-12.291,8.961c-9.648,1.573-18.57-1.5-27.215-5.069c-10.815-4.466-21.788-8.204-33.414-9.73
		c-4.175-0.548-8.221,0.488-12.164,1.87c-0.874,0.306-1.841,1.32-2.686,0.398c-0.805-0.877-0.735-2.133-0.324-3.299
		c1.824-5.175,4.831-9.519,8.804-13.312c1.385-1.322,1.713-0.466,2.688,0.288c0.943,0.729,2.33,1.528,3.547,0.651
		c1.509-1.088-0.125-2.085-0.501-2.983c-1.026-2.447,0.767-1.898,1.962-2.047c5.369-2.277,10.862-2.214,16.422-0.863
		c6.819,2.098,11.813,6.788,16.552,11.786c1.621,1.71,3.074,3.051,5.295,0.999c4.808-1.417,7.966-4.716,10.265-8.996
		c1.501,0.117,1.873,1.312,2.011,2.431c0.254,2.059,1.381,3.696,2.336,5.408c1.151,2.064,2.932,4.553,5.151,3.882
		c2.322-0.702,2.901-3.818,2.897-6.279c-0.006-3.299-1.853-5.851-4.098-8.152c-0.758-0.777-1.867-1.704-1.177-2.958
		c0.552-1.003,1.793-0.62,2.725-0.581c3.12,0.132,6.269-0.455,9.36,0.358c5.556-0.469,8.698,3.783,12.56,6.541
		c1.608,1.148,3.033,2.471,5.073,2.763c0.21,0.684,0.045,1.328-0.414,1.815c-2.076,2.201-2.963,4.392-0.038,6.591
		c2.459,1.849,6.41,1.46,8.431-0.811c0.847-0.952,0.927-3.186,3.12-1.817c8.855,6.409,14.007,14.987,15.228,25.896
		c0.068,0.611,0.546,1.177,0.833,1.764c1.199,2.534,2.492,2.281,2.759-0.278c0.287-2.746,0.727-5.661-0.705-8.329
		c-0.124-2.87-2.92-5.012-2.213-8.109c4.147-1.317,5.625,1.679,6.956,4.524c1.689,3.609,3.854,6.584,7.883,7.735
		c2.847,1.308,5.667,4.676,8.576,0.074c3.214-1.375,6.251-3.015,9.198-4.934c5.03-3.276,10.37-1.775,12.788,3.61
		c2.198,4.897,5.708,6.915,11.003,6.774c9.714-0.258,16.173-5.193,20.456-13.525c0.684-1.332,1.071-2.792,1.626-4.18
		c4.995-12.491,11.972-14.486,25.771-11.061c4.169,1.035,7.877,3.506,11.829,5.241c4.431,2.261,8.897,2.208,13.389,0.195
		c2.239-1.172,4.198-2.987,6.927-3.042c13.342-0.977,26.725-1.002,40.08-2.095c6.824-0.559,13.896,0.411,20.863,0.386
		c5.078-0.018,5.095-0.067,3.572-4.703c-0.375-1.14-0.706-2.224,0.146-3.291c1.81-1.156,3.674-1.081,5.573-0.268
		c4.666,5.623,10.867,7.708,17.963,8.318c10.686,0.918,20.51-1.094,29.362-7.307c0.815-0.572,1.7-1.07,2.642-1.406
		c1.081-0.386,2.341-1.004,3.223,0.12c0.902,1.149-0.187,2.151-0.721,3.125c-0.319,0.581-0.804,1.067-1.131,1.645
		c-1.761,3.118-1.201,4.139,2.536,3.993c11.989-0.47,23.98-0.116,35.969-0.206c5.453-0.041,10.527,0.391,15.874,2.911
		c5.578,2.628,12.419,1.818,18.577-0.117c2.651-0.833,5.177-1.218,7.814-0.385c8.975,2.834,18.193,1.16,27.301,1.501
		c1.546,0.058,3.085-0.311,3.807-1.881c1.463-3.183,4.103-3.033,6.803-2.42c2.59,0.588,6.018-0.038,6.575,3.974
		c1.717-4.292,4.495-1.406,7.095-1.602c3.577-0.27,6.9-2.742,9.922,1.147c7.641-0.341,15.069,3.083,22.791,1.276
		c1.47-0.327,2.981-0.523,4.46-0.373c6.229,0.633,11.856-0.651,16.618-4.908c4.293,2.262,8.557,3.302,12.686-0.388
		c4.355,1.035,8.589,2.464,12.791,3.961c5.708,2.034,10.842,1.53,15.095-3.079c4.388-4.755,9.313-5.253,14.88-2.33
		c1.474,0.774,2.979,1.484,4.343,2.441c8.571,6.013,17.069,5.432,25.568-0.185c3.463-2.289,6.867-4.546,11.365-4.601
		c4.635-0.056,8.761,0.586,12.597,3.58c5.011,3.912,10.551,4.383,16.372,1.336c5.574-2.918,11.293-2.855,16.579,0.66
		c6.433,4.277,13.133,5.334,20.391,2.65c2.453-0.907,4.882-0.58,7.313,0.082c4.714,3.033,9.336,6.188,13.41,10.073
		c0.982,0.936,2.07,1.954,1.338,3.413c-0.669,1.333-2.095,0.728-3.132,0.582c-6.908-0.974-13.795-1.974-20.8-2.166
		c-13.193-0.361-26.187,0.721-38.835,4.666c-5.821,1.816-7.919,0.771-8.348-4.73c-0.477,10.282-9.619,8.431-15.225,10.564
		c-10.952,4.167-21.745,8.667-32.477,13.328c-5.331,2.316-5.24,2.542-6.767-3.109c-0.211-0.782-0.32-1.591-0.705-3.554
		c-0.29,1.56-0.585,2.116-0.436,2.498c2.487,6.363-1.099,8.725-6.289,11.291c-18.04,8.92-35.798,18.407-53.704,27.6
		c-6.348,3.259-7.385,2.766-8.165-3.215c-2.548-3.414-1.782-7.524-2.482-11.34c0.303,4.613,0.849,9.204,0.858,13.852
		c0.004,2.324-0.574,3.014-2.654,2.978c-6.376-0.112-12.092-1.843-16.551-6.691c-3.427-7.958-6.18-16.252-11.898-23.05
		c-0.768-0.913-1.32-2.304-2.525-1.569c-1.232,0.751-0.367,1.974,0.279,2.978c2.744,4.263,4.505,8.967,6.055,13.759
		c1.107,3.591,1.592,7.158-0.384,10.635c-1.745,1.627-3.224,0.693-4.087-0.84c-2.416-4.292-6.511-4.467-10.445-4.035
		c-4.993,0.548-9.967,0.645-14.935,0.397c-3.188-0.159-5.317,0.771-7.06,3.489c-4.119,6.422-7.752,13.143-12.963,18.873
		c-9.047,9.949-19.475,18.086-31.184,24.555c-5.072,2.802-10.15,5.613-15.602,7.767c-11.301,4.466-17.904-1.98-19.478-12.142
		c-0.833-5.379-0.141-10.936-0.646-16.419c-0.262-2.846,1.594-5.55,1.718-8.484c1.548-10.454,6.881-19.184,12.97-27.431
		c9.569-12.961,21.082-23.925,34.783-32.54c1.545-0.972,3.876-1.502,4.057-4.745c-8.134,2.77-14.594,7.976-21.728,11.871
		c-5.336-2.28-9.914-0.226-15.038,1.549c-4.759,1.648-9.234-1.184-11.536-6.171c-3.635-4.552-6.514-1.589-9.428,0.962
		c-1.543,3.43-4.289,4.435-7.768,3.738c-2.679-0.536-5.231-0.425-7.838,0.514c-3.067,1.104-6.221,0.956-9.301-0.137
		c-1.737-0.616-3.508-1.177-5.353-1.053c-4.593,0.308-8.462-0.531-11-5.016c-1.262-2.231-3.53-2.222-5.611-0.639
		c-0.42,0.321-0.841,0.635-1.249,0.97c-0.478,0.468-0.933,0.952-1.382,1.444c-1.769,1.937-3.87,3.568-6.54,2.367
		c-2.796-1.258-1.722-3.921-1.511-6.176c0.138-1.477-0.074-3.02,1.019-4.496c-1.688,1.835-0.179,4.523-1.979,6.018
		c-2.047,1.7-4.154,1.619-6.077-0.372c-0.354,1.003,0.402,1.449,1.036,1.957c2.783,2.231,1.3,3.173-1.165,3.726
		c-1.467,0.329-2.98,0.255-4.476,0.255c-31.44,0.008-62.88,0.008-94.32,0.004c-4.256-0.001-8.511-1.13-12.728,1.002
		c-1.993,1.007-4.291,0.275-5.28-2.278c0.505-3.592,3.774-4.793,6.034-6.828c2.451-2.207,5.535-3.714,7.521-6.439
		c2.501-3.431,1.699-6.283-2.288-7.781c-3.714-1.395-7.502-2.515-11.478-3.118c-9.235-1.401-14.705,3.309-18.584,10.879
		c-3.053,2.755-1.664,6.06-1.134,9.259c-0.284,1.145-1.27,1.377-2.625,1.833c2.227-0.469,3.793-1.662,5.713-1.563
		c2.769,0.696,5.869,0.54,7.919,3.082c0.469,3.215-1.614,3.585-3.982,3.468c-1.987-0.098-3.91-0.698-5.876-0.981
		c-5.117-0.736-10.2-0.955-15.23,0.711c-3.381,1.12-6.894,0.979-10.329,0.299c-5.188-1.027-10.609,0.02-15.681-1.839
		c-2.054-1.545-1.652-5.035-4.938-5.77c-5.217-1.167-8.046,1.234-8.478,7.61c-1.427,1.356-3.238,1.364-4.646,0.491
		c-6.684-4.149-13.629-0.943-20.444-0.896c-1.456,0.01-2.95,0.709-4.434,0.354c-11.015-2.627-22.212-1.275-33.33-1.52
		c-5.579-0.123-11.137-1.145-16.771,0.45c-3.026,0.857-6.231,0.113-8.705-2.502c-2.491-2.632-5.207-2.205-8.067-0.274
		c-6.383,4.309-19.453,3.076-24.645-2.193c-2.974-3.018-5.626-2.898-8.207,0.784c-1.515,2.161-2.913,3.635-5.663,2.285
		C26.444,299.912,25.421,297.222,24.398,294.532z"/>
	<path class="st4" d="M269.393,274.731c-2.024,0.996-4.049,1.991-6.073,2.987c-4.666,2.357-9.325,1.945-13.98-0.034
		c-4.638-0.761-8.282-4.05-12.732-5.147c-5.935-1.463-12.178-2.638-17.547,1.308c-3.458,2.542-5.253,6.586-6.72,10.71
		c-4.175,11.735-12.171,17.094-24.409,17.11c-5.473,0.007-8.574-2.771-10.41-7.454c-1.884-4.803-7.022-6.523-11.041-3.275
		c-3.048,2.464-6.271,4.238-10.144,4.807c-2.663,1.928-5.32,0.982-7.976-0.016c-4.962-0.327-7.426-3.661-8.962-7.802
		c-1.114-3.006-2.68-5.162-6.112-5.373c-0.629-1.356-3.662-1.611-2.216-3.743c1.004-1.481,2.735,0.055,4.117,0.287
		c8.495,1.428,16.932,3.385,25.482,4.248c6.845,0.691,13.406-1.862,19.684-4.481c1.686-0.703,3.442-1.135,5.102-1.861
		c0.958-0.419,1.865-0.627,2.528,0.568c1.544,2.782,1.544,2.738,4.332,0.765c4.595-3.251,9.225-6.453,13.836-9.682
		c4.551-3.186,9.096-6.379,14.231-9.98c-5.429-1.317-3.382-2.904-0.882-4.707c8.045-5.802,16.032-11.684,24.053-17.519
		c1.384-1.007,3.179-2.035,4.526-0.721c2.115,2.062-1.752,3.097-1.099,6.162c16.013-13.457,34.679-21.524,52.61-30.746
		c-0.628-3.191-5.283,1.401-5.35-3.225c-0.059-4.131,0.708-7.047,4.608-9.476c12.879-8.022,26.242-15.144,39.609-22.276
		c1.185-0.632,2.451-0.644,3.087,0.519c0.833,1.523,2.111,3.102,1.172,5.056c-0.545,1.136-1.229,2.206-2.649,4.72
		c31.828-16.37,64.069-26.288,99.335-28.36c-2.853-2.02-6.815-2.974-4.354-7.304c0.727-1.278,1.167-2.244,2.787-2.199
		c10.113,0.277,20.31-1.03,30.286,1.783c2.109,0.594,4.485,0.622,4.122,3.794c-0.352,3.07-2.349,3.571-4.997,3.449
		c-1.363-0.063-2.911-0.576-4.557,0.872c5.786,2.78,12.049,2.503,17.764,4.506c10.196,3.572,19.431,8.898,28.746,14.122
		c5.02,2.816,9.725,6.19,14.688,9.113c1.524,0.898,4.138,3.649,3.863-1.621c-0.145-2.785,5.967-4.203,8.834-2.024
		c10.824,8.228,21.058,17.157,30.873,26.563c0.808,0.775,2.304,1.96,1.468,2.853c-3.32,3.545,0.171,5.228,1.758,7.37
		c9.232,12.461,20.975,22.675,34.317,29.755c9.839,5.221,21.086,9.349,33.203,8.604c6.781-0.417,13.597-0.647,20.397-0.98
		c1.649-0.081,4.167-1.079,4.747,1.364c0.649,2.733-2.356,1.993-3.673,2.89c-0.41,0.279-0.861,0.5-2.117,1.219
		c5.656,0.863,10.67,0.41,15.57,1.272c7.485,1.318,15.187,1.419,22.306,4.611c1.341,0.601,3.159,1.971,2.758-1.915
		c-0.427-4.143,6.859-7.549,11.964-6.094c12.998,3.704,25.983,7.467,37.224,15.422c-1.802,0.245-3.755,0.125-5.38,0.797
		c-8.563,3.541-16.4,2.381-23.958-2.825c-4.469-3.078-9.317-2.886-14.034-0.31c-5.919,3.232-11.841,3.674-17.212-0.791
		c-7.607-6.324-16.593-4.49-23.24,0.38c-3.723,2.728-7.854,4.596-12.718,5.008c-5.559,0.47-10.05-1.739-14.247-4.649
		c-2.672-1.853-5.601-2.932-8.518-3.993c-3.859-1.403-6.842,1.035-9.12,3.634c-4.16,4.745-9.037,5.813-14.785,3.936
		c-4.968-1.622-9.898-3.359-14.845-5.045c-3.493,0.219-5.308-2.465-6.275-4.842c-4.984-12.25-14.071-14.41-25.989-12.149
		c-7.857,1.491-15.599-1.116-22.839-4.07c-8.185-3.34-13.037-10.043-15.826-18.308c-1.966-5.826-3.521-11.802-6.544-17.237
		c-5.437-9.774-15.686-13.152-25.861-8.643c-6.274,2.78-11.952,6.599-17.801,10.077c-14.33,8.522-23.517,6.178-36.574-4.913
		c-4.343-3.689-7.629-8.302-9.851-13.656c-2.579-6.213-7.308-9.046-14.113-9.03c-7.062,0.016-14.019-0.115-19.938,4.663
		c-5.682,4.588-8.338,10.208-8.175,17.769c0.373,17.296-10.674,29.465-27.928,31.668c-2.776,0.21-5.487,0.716-8.064,1.818
		c-9.621,2.288-18.498,2.193-26.214-5.619c-8.326-8.431-25.067-7.607-33.396,0.983c-3.368,3.474-3.812,7.979-4.656,12.365
		c-0.812,3.28-0.859,6.682-1.591,9.975C276.274,267.504,275.204,272.73,269.393,274.731z"/>
	<path class="st5" d="M369.338,297.627c4.392-2.85,6.114-2.477,9.333,1.987c0.808,1.12,0.79,3.361,2.819,2.942
		c7.772-1.604,15.448,5.159,23.246,0.214c0.479-0.304,1.377-0.263,1.953-0.045c4.333,1.639,8.047,1.337,10.578-3.099
		c0.86,0.759,0.775,1.77,0.629,2.731c-0.516,3.416,1.633,4.362,4.341,4.524c3.059,0.182,4.521-1.483,4.409-4.515
		c-0.047-1.289-0.461-2.622,0.623-3.715c2.724,1.878,2.679,6.507,7.816,6.371c3.342-0.089,5.971,0.14,8.196-2.706
		c1.755-2.244,3.888-2.248,5.984-0.247c1.18,1.127,2.168,2.586,4.076,2.566c-9.786,7.988-18.459,16.987-25.341,27.649
		c-2.117,3.279-3.473,7.076-6.515,9.738c-2.833-4.31-7.358-3.768-11.61-4.096c-5.953-0.458-7.576-2.227-7.599-8.05
		c0.063-0.323,0.142-0.645,0.259-0.955c1.484-3.944,3.145-8.332-0.17-11.693c-3.908-3.961-9.247-5.27-14.735-3.621
		c-10.521,3.163-14.347,11.627-8.127,21.148c1.066,3.184-0.763,3.847-3.318,3.673c-3.624-0.247-7.224-0.756-10.828-1.212
		c-3.505-0.444-6.771-0.435-7.011,4.47c-0.052,1.067-0.603,2.323-2.235,1.973c-4.208-6.755-1.138-13.799-0.711-20.705
		c0.14-2.251,0.696-4.545,1.145-6.797c-0.511-2.666-2.149-2.793-4.006-1.541c-6.778,4.57-14.505,4.487-22.149,4.508
		c-29.299,0.081-58.603-0.253-87.897,0.15c-15.292,0.211-30.576-0.619-45.847-0.046c-14.434,0.542-28.875,0.455-43.306,0.919
		c-1.995,0.064-4.029,0.211-5.984-0.144c-4.628-0.843-9.052-1.314-11.91,3.589c-1.548-1.251-2.422-0.918-3.173,0.98
		c-0.823,2.079-2.047,4-3.096,5.99c-5.034,5.605-11.529,8.757-18.471,11.305c-13.322,4.889-27.096,5.171-40.715,2.812
		c-14.608-2.531-26.437-10.35-34.784-22.862c-1.914-2.869-3.926-5.755-4.821-9.189c-2.102-3.012-3.361-6.269-2.919-10.023
		c1.595-0.922,3.509-0.558,4.439-3.391c1.479-4.503,8.097-5.022,10.385-0.781c2.222,4.118,5.188,4.424,8.983,4.231
		c2.99-0.152,5.996-0.077,8.992-0.014c1.903,0.04,3.321-0.356,4.765-1.942c2.99-3.283,7.35-2.954,10.073,0.417
		c3.296,4.08,7.5,2.201,11.187,1.314c2.043-0.491,3.505-1.861,5.746-0.225c1.018,0.744,2.892,0.342,4.379,0.415
		c12.405,0.615,24.839-1.017,37.286,1.531c3.355,0.687,7.953-0.289,11.915-1.11c3.844-0.797,7.655-1.678,11.227,1.255
		c1.453,1.193,3.476,2.201,5.478,0.549c3.251-0.261,6.581,3.172,9.796-0.293c0.849-0.915,1.865-1.824,3.27-1.927
		c9.49,0.092,18.769,3.602,28.53,0.525c5.956-1.877,12.444-0.658,18.548,1.057c2.366,0.665,3.973,0.508,3.863-2.494
		c0.491-0.609,1.146-0.731,1.874-0.636c2.066,0.978,4.135,1.83,6.245,0.087c0.717-0.162,1.366-0.069,1.886,0.504
		c0.626,2.512,2.469,3.46,4.455,2.156c3.92-2.574,8.015-1.183,12.048-1.187c30.131-0.024,60.261-0.013,90.391-0.013
		c3.656,0,7.312,0,11.661,0c-4.645-2.544-3.883-5.756-2.895-9.313c1.444,0.46,1.33,1.184,1.317,1.784
		c-0.045,2.02,0.176,3.701,2.889,3.509c2.355-0.167,3.204-1.526,3.109-3.645c-0.128-2.867,0.209-5.164,4.627-3.904
		c-5.127,2.299-3.327,6.498-3.099,10.017c0.178,2.758,2.523,1.592,3.734,0.792c1.753-1.158,3.186-2.802,4.755-4.238
		c2.473,5.758,1.863,7.168-4.493,10.392c3.667,1.719,6.74,0.778,8.356-2.557C374.895,301.949,374.011,300.15,369.338,297.627z"/>
	<path class="st6" d="M356.313,343.633c0.289-0.392,0.762-0.751,0.84-1.181c1.278-7.067,2.084-7.964,9.165-6.636
		c3.411,0.64,6.899,0.339,10.241,1.396c2.89,0.914,2.735-0.601,1.747-2.534c1.073-1.157,2.437-1.026,3.699-0.613
		c7.084,2.319,13.38,0.929,19.022-3.84c0.636-0.537,1.397-0.89,2.288-0.608c0.165,5.877,1.173,6.875,6.98,7.022
		c2.14,0.054,4.422,0.611,6.365,0.422c4.272-0.415,4.602,1.981,4.826,4.96c-0.104,5.121-3.116,9.331-4.547,14.045
		c-3.692,12.161-4.87,24.38-3.004,36.896c0.348,2.332-0.779,3.077-2.586,3.333c-5.254,0.743-10.524,1.374-15.787,2.054
		c-1.875,0.242-2.287-0.919-2.298-2.417c-0.02-2.649-0.005-5.299-0.005-8.339c-0.527,0.397-0.784,0.493-0.796,0.612
		c-0.977,10.172-0.976,10.175-10.916,11.859c-0.981,0.166-1.971,0.371-2.96,0.388c-5.492,0.091-11.502,1.546-16.331-0.216
		c-4.792-1.749-4.671-8.755-7.437-13.148c-7.482-11.884-17.786-19.75-30.992-24.037c-1.712-0.556-3.575-0.971-5.05,0.826
		c1.641,1.748,4.401,1.62,5.785,3.649c-3.176,1.252-6.313,1.207-9.602,0.205c-5.732-1.747-8.484,0.588-7.318,6.456
		c1.945,9.792,8.62,16.126,16.436,21.573c1.432,0.998,4.737,1.281,2.697,4.519c-2.795,1.208-5.591,0.176-8.274-0.27
		c-7.081-1.177-14.032,0.047-21.029,0.574c-0.12-1.977-1.73-3.635-1.232-5.744c-0.768-4.49-0.965-9.015-0.921-13.563
		c0.019-1.924,0.333-3.942-1.044-5.624c-0.322-0.013-0.641-0.053-0.956-0.12c-0.804-0.467-1.416-1.131-1.934-1.89
		c-4.225-0.545-3.655,3.198-4.057,5.232c-0.92,4.649,0.727,9.119,2.603,14.083c-3.69-0.616-7.064-0.896-10.279-1.764
		c-14.071-3.798-28.084-7.809-42.146-11.636c-2.979-0.811-3.922-2.638-3.396-6.12c-2.835,4.371-5.713,3.078-9.058,1.657
		c-8.82-3.746-17.807-7.099-26.703-10.668c-1.042-0.418-1.933-1.211-2.894-1.83c-0.076-1.691-1.373-2.074-2.652-2.48
		c-1.254-0.398-2.606-0.515-3.707-1.349c-2.35-1.78-5.861-3.253-5.63-6.403c0.206-2.807,4.175-1.723,6.13-3.093
		c2.384,0.262,4.097,2.012,6.254,2.82c4.929,1.846,6.672,1.113,8.483-3.885c0.284-0.785,0.539-1.556,1.449-1.835
		c3.003,0.557,1.745,3.569,3.212,5.587c1.575-2.369,2.366-5.384,5.808-5.559c2.892-0.147,5.17,0.938,7.284,2.687
		c1.792,1.482,3.838,1.772,6.102,1.481c4.141-0.534,8.317-0.43,12.468-0.22c4.559,0.231,5.38,1.305,5.472,6.359
		c0.426-1.619-0.011-3.328,0.94-4.773c0.922-1.4,2.429-2.61,3.611-1.147c2.03,2.512,3.886,1.251,6.05,0.658
		c3.709-1.017,7.531-1.286,11.383-1.197c9.315,0.215,18.64-0.393,27.95,0.417c2.922,0.254,5.569-0.775,8.056-2.235
		c2.446-1.437,4.933-2.803,7.719-3.458c2.464-0.579,4.807-0.582,5.467,2.569c0.494,2.354,2.082,2.725,4.073,2.713
		c2.497-0.015,4.994-0.008,7.491,0.003c5.977,0.024,11.99-0.44,17.758,1.826c1.543,0.606,3.268,0.599,4.913,0.144
		c2.492-0.908,0.961-2.683,0.893-4.142c-0.15-3.244-1.378-6.668,1.282-9.549C356.151,339.674,354.315,342.555,356.313,343.633z"/>
	<path class="st7" d="M352.4,352.506c-0.287,2.139-1.496,2.215-3.226,1.582c-9.443-3.456-19.286-2.32-29.018-2.462
		c-2.369-0.035-5.334,0.793-3.984-3.654c0.597-1.965-1.122-2.501-2.855-2.156c-0.807,0.161-1.712,0.334-2.34,0.809
		c-9.45,7.148-20.4,4.814-30.97,5.035c-7.448,0.156-14.952-0.842-22.334,0.949c-0.476,0.115-1.211-0.151-1.458,0.109
		c-2.597,2.736-4.492,4.785-6.014-1.115c-0.482-1.866-2.331,0.767-2.597,1.922c-0.551,2.392-0.181,4.99-1.89,7.369
		c-0.354-0.968-0.916-1.842-0.967-2.746c-0.369-6.514-0.337-6.599-7.065-6.486c-3.791,0.064-7.628-0.591-11.37,0.765
		c-2.31,0.837-3.62-1.094-5.149-2.313c-5.292-4.22-7.645-3.625-10.396,2.52c-0.433,0.967-0.661,2.678-2.15,2.233
		c-1.548-0.463-2.08-2.223-2.1-3.662c-0.023-1.687,1.441-3.61-1.224-4.554c-1.65,0.26-2.307-1.114-3.095-2.054
		c-2.045-2.439-4.701-2.668-7.606-2.635c-4.292,0.05-3.674,3.384-4.247,5.965c-0.147,0.663-0.525,1.197-0.992,1.675
		c-0.519,3.392-3.608,1.226-5.449,2.619c2.542,2.849,4.302,6.389,8.995,6.603c1.445,0.066,3.305,1.178,4.134,2.387
		c1.465,2.138-0.962,0.963-1.578,1.384c-11.138-4.295-21.019-11.04-31.681-16.263c-3.153-1.545,0.588-3.359-0.402-5.504
		c-2.108,3.621-4.406,2.996-7.61,1.335c-6.438-3.338-13.251-6.036-20.42-7.403c-3.057-0.583-3.361-1.656-1.675-3.822
		c1.724-2.216,1.699-4.777,1.784-7.348c1.292-6.623,1.725-6.434,9.316-5.444c8.387,1.093,16.92,0.967,25.348-0.023
		c3.169-0.372,6.253-0.851,9.343,0.07c4.186,1.248,8.221-0.566,12.301-0.481c10.943,0.229,21.919-1.017,32.838,0.835
		c3.78,0.641,7.479-1.014,11.346-0.997c31.957,0.142,63.915,0.105,95.872,0.063c7.934-0.011,15.349-0.928,22.423-5.813
		c4.371-3.018,3.109,2.83,3.981,5.009c-2.137,0.801-2.136,2.811-2.388,4.54c-0.571,3.91-0.192,8.203-1.688,11.681
		C351.36,339.497,352.456,345.982,352.4,352.506z"/>
	<path class="st8" d="M423.26,357.479c0.986,5.008-1.398,9.994-0.01,15.056c0.467,1.704,0.29,3.675,0.03,5.47
		c-0.657,4.552,0.991,8.45,3.13,12.236c2.367,4.19,8.425,5.81,13.605,3.496c3.733-1.668,7.51-3.209,11.161-5.114
		c16.296-8.502,30.782-19.178,41.712-34.144c3.178-4.351,5.79-9.126,8.524-13.788c1.059-1.805,2.326-2.502,4.428-2.374
		c6.122,0.372,12.202,0.196,18.356-0.329c3.684-0.314,9.456-1.196,10.648,5.304c0.184,1.006,1.445,1.27,2.488,1.34
		c2.124,2.484,0.944,5.145,0.099,7.557c-4.516,12.898-11.559,24.111-21.269,33.914c-12.251,12.368-26.467,21.646-41.967,29.183
		c-6.009,2.922-12.33,4.891-19.04,5.526c-13.38,1.266-23.907-4.536-30.632-17.001c-0.394-0.73-0.67-1.524-1.18-2.192
		C418.024,386.917,418.679,372.202,423.26,357.479z"/>
	<path class="st9" d="M705.286,310.592c-8.582,3.466-16.12,8.757-23.71,13.884c-9.182,6.202-18.099,12.798-27.131,19.223
		c-10,6.598-21.11,10.984-32.08,15.512c-9.164,3.783-18.07,8.204-27.486,11.394c-1.902,0.644-3.723,1.358-5.757,1.276
		c-0.997-0.005-1.987-0.098-2.957-0.332c-0.468-0.125-0.917-0.309-1.344-0.537c-1.731-1.196-3.694-2.155-4.552-4.284
		c-3.294-3.493-6.949-6.657-9.128-11.109c-1.141-2.331-1.216-3.769,1.445-5.129c19.96-10.197,39.874-20.484,59.753-30.836
		c3.106-1.618,5.558-2.312,7.787,1.345c0.938,1.538,2.519,2.994,4.726,3.109c0.078-0.458,0.277-0.932,0.159-1.031
		c-7.193-6.077-7.119-5.912,1.387-9.914c12.875-6.059,26.039-11.302,39.672-15.401c2.742-0.824,4.401-1.141,4.616,2.502
		c0.064,1.086,1.32,2.102,2.319,3.579c-1.324-8.279-1.33-8.817,6.344-10.061c14.572-2.363,29.159-5.13,44.055-3.887
		c4.442,0.371,8.855,1.093,13.328,2.072c-13.293,3.904-26.939,6.448-39.389,12.681C714.078,308.158,709.481,308.967,705.286,310.592
		z"/>
	<path class="st10" d="M423.344,401.62c2.907,1.62,4.136,4.686,6.003,7.162c7.032,9.324,16.497,12.06,27.579,10.473
		c13.055-1.869,23.95-8.618,34.949-15.321c12.427-7.573,23.179-17.047,31.882-28.515c6.853-9.03,12.821-18.87,13.575-30.787
		c0.062-3.675,1.647-7.212,0.995-10.951c5.137,12.033,6.332,24.601,1.437,36.633c-6.925,17.02-15.71,33.147-29.576,45.842
		c-4.893,4.48-10.627,7.776-16.02,11.553c-1.376,0.964-2.81,1.841-2.769,3.813c4.339,0.358,6.087,3.646,7.205,7.045
		c2.366,7.191,4.922,14.356,4.192,22.217c-0.413,4.441-1.476,8.427-4.508,11.766c-2.159,0.049-4.359-0.153-6.468,0.194
		c-5.888,0.968-9.508-1.119-11.742-6.841c-1.621-4.151-4.799-4.389-8.219-0.837c-2.256,2.343-3.036,2.046-3.771-0.865
		c-0.236-0.935-0.857-1.791-1.385-2.631c-3.048-4.852-2.579-6.124,3.128-7.607c-6.327-4.688-12.601-9.126-18.644-13.86
		c-11.886-9.31-21.423-20.547-27.316-34.602C423.383,404.339,423.506,402.92,423.344,401.62z"/>
	<path class="st11" d="M187.972,170.769c-0.822-0.354-1.644-0.708-2.466-1.062c-1.095-1.984-0.955-3.94,0.128-5.872
		c1.888-1.313,3.02,0.363,4.374,1.128c5.331,3.011,12.974-0.122,14.482-5.953c0.253-0.978,0.478-2.047-0.742-2.535
		c-0.895-0.358-1.595,0.187-2.076,0.919c-0.999,1.519-1.83,3.192-3.449,4.17c-2.742,1.657-5.469,1.7-7.561-0.924
		c-2.182-2.738,0.456-4.094,2.048-5.644c0.83-0.808,1.769-1.496,2.676-2.218c5.723-4.559,5.715-5.866,0.235-10.566
		c-1.532-1.314-3.512-1.863-4.965-3.248l-0.255-0.383c1.184-3.431,2.633-6.796,3.498-10.306c2.221-9.013,8.438-11.386,16.759-10.616
		c0.822,0.076,1.66-0.014,2.489-0.027c0.009,0.317,0.036,0.631,0.078,0.945c0.16,0.836,0.067,1.657-0.139,2.472
		c-0.75,2.965-0.417,5.686,2.096,7.711c2.699,2.174,5.588,1.665,8.464,0.3c1.054-0.5,2.086-1.047,3.162-1.497
		c2.131-0.891,4.297-1.354,5.772,0.982c1.365,2.164,0.457,4.132-1,5.941c-1.608,1.995-3.851,3.149-5.893,4.575
		c-0.568,0.397-0.924,0.988-0.793,1.704c0.144,0.788,0.747,0.982,1.483,0.992c5.603,0.074,12.252-9.88,9.985-14.845
		c-0.889-1.948-3.503-2.756-3.376-5.312c3.694-0.594,6.79,1.502,10.182,2.266c1.099,1.042,2.542,0.552,3.803,0.858
		c7.909,4.02,16.355,6.847,23.993,11.544c13.644,8.391,21.393,19.792,20.28,36.291c-2.302-0.446-4.971-3.081-6.207,1.494
		c-1.932-1.697-1.147-4.063-2.531-5.47c-1.681-5.258-4.117-10.037-8.889-14.086c-0.019,3.743,3.413,5.276,3.677,8.204
		c1.479,2.749,0.013,3.705-2.447,3.68c-2.315-0.023-4.63-0.32-6.95-0.449c-3.707-0.207-7.413-0.665-9.38,3.581
		c-3.491-4.954-5.892-10.71-11.008-15.329c-0.715,3.434,1.881,4.668,2.765,6.631c1.308,2.364,0.146,3.737-2.084,3.596
		c-8.524-0.541-17.028-0.177-25.539,0.121c-2.658-3.556-5.315-7.111-7.973-10.667c0.736-2.791,0.108-5.177-1.891-7.313
		c-1.934-2.066-3.419-4.533-5.384-6.567c-3.296-3.413-4.474-6.961-1.37-11.118c0.611-0.818,1.178-1.812,0.083-2.604
		c-1.009-0.73-1.873,0.049-2.661,0.659c-3.477,2.695-3.892,8.547-0.824,12.645c2.796,3.734,6.039,7.111,8.793,10.88
		c0.843,1.153,2.276,2.1,1.644,3.893c4.125,6.061,8.251,12.122,12.376,18.184c0.082,2.533-1.652,2.667-3.355,2.248
		c-4.703-1.159-9.623-0.377-14.306-1.848c-3.417-1.073-6.733,1.364-10.333,0.574C194.21,172.788,190.896,172.514,187.972,170.769z"
		/>
	<path class="st12" d="M250.356,107.05c1.154-1.719,4.856-1.951,3.123-5.352c2.298-1.69,2.439-4.973,4.931-6.565
		c2.376-1.518,4.702-3.027,7.72-2.434c-0.153,2.373-0.611,4.673,1.101,6.889c1.68,2.174,0.795,4.347-0.985,6.217
		c-0.762,0.801-1.998,1.725-0.969,2.91c1.109,1.276,2.423,0.422,3.547-0.313c3.464-2.265,4.19-7.005,1.815-11.012
		c-0.854-1.441-2.959-2.386-2.019-4.623c1.194,0.004,2.387,0.008,3.581,0.013c3.589,4.003,7.757,6.131,13.215,4.084
		c5.686,1.308,9.381,3.95,10.495,10.498c2.105,12.38,9.749,22.178,17.038,31.936c4.913,6.577,10.344,12.77,15.633,19.059
		c1.574,1.871,2.225,3.388,0.482,5.645c-2.616,3.387-0.901,8.648-4.737,11.622c-4.531,2.133-8.509-0.46-12.367-1.908
		c-7.024-2.637-13.771-6.009-17.545-13.148c-0.824-10.632-7.258-17.834-15.152-23.855c-7.833-5.975-32.346-18.567-33.736-19.857
		C247.138,113.59,248.747,110.32,250.356,107.05z"/>
	<path class="st0" d="M187.972,170.769c3.109,0.338,6.308,0.335,9.299,1.121c2.426,0.637,4.509,0.787,6.643-0.527
		c1.241-0.765,2.518-0.767,3.786-0.081c5.013,2.715,10.951-0.019,16.001,2.719c0.74,0.401,1.329-0.755,1.741-1.476
		c2.839,1.664,4.246,4.647,6.143,7.087c7.405,9.525,17.678,16.338,24.567,26.316c2.519,3.648,5.297,7.132,7.61,10.903
		c3.563,5.807,3.101,6.584-2.936,10.139c-1.798,1.059-2.499,0.714-3.49-0.691c-7.915-11.226-19.364-18.49-30.062-26.567
		c-1.304-0.985-2.179-3.08-4.929-2.615c3.307,5.186,8.435,7.914,12.789,11.42c6.451,5.194,13.353,9.846,18.361,16.643
		c1.457,1.977,2.94,3.751,0.76,6.101c-2.102,2.267-3.561,0.498-5.569-0.473c-9.482-4.586-19.119-8.854-28.711-13.212
		c-8.42-3.826-17.048-7.32-24.642-12.658c-5.54-3.894-8.526-9.593-9.064-16.432c-0.287-3.645-2.112-7.034-1.757-10.779
		C186.402,175.76,191.708,175.519,187.972,170.769z"/>
	<path class="st12" d="M573.338,153.633c7.899-11.3,8.8-23.703,6.635-36.951c-1.712-10.479-4.608-20.627-7.173-30.87
		c-0.776-3.101-0.322-3.997,2.966-4.394c7.322-0.884,14.526-0.805,21.754,0.66c2.503,0.507,4.032,1.508,4.831,4.175
		c5.539,18.491,9.443,37.224,8.993,56.651c-0.207,8.958-0.878,9.014-9.363,11.942c-9.671,3.338-18.661,8.196-25.744,15.951
		c-2.879,3.152-3.919,7.247-5.895,10.859c-4.795,0.147-3.478-3.634-3.158-5.802C568.309,168.221,569.526,160.547,573.338,153.633z"
		/>
	<path class="st13" d="M645.183,193.646c0.068,1.969,0.135,3.938,0.202,5.908c0.488,0.917,0.741,1.964,0.007,2.741
		c-0.906,0.96-1.929,0.178-2.56-0.456c-2.744-2.757-6.175-2.743-9.684-2.716c-8.746,0.066-17.493,0.042-26.238-0.012
		c-1.526-0.009-4.55,1.116-3.693-2.635c-0.377-4.1,3.23-7.332,2.458-11.592c-2.483,3.612-4.304,7.483-5.531,11.64
		c-3.31,0.319-6.383-1.182-9.582-1.333c-3.224-0.153-2.035-4.771-5.23-4.57c-1.813,8.894-4.677,17.447-8.394,25.717
		c-0.311,0.691-0.531,1.802-1.528,1.634c-0.96-0.162-1.972-0.777-1.947-1.963c0.279-13.045-1.827-26.489,4.37-38.705
		c4.159-8.198,12.207-12.457,20.291-15.902c10.55-4.495,21.67-7.071,33.144-8.104c3.102-0.279,4.186,0.783,5.257,3.66
		c3.357,9.018,5.34,18.316,6.786,27.771C644.436,187.595,643.697,190.854,645.183,193.646z"/>
	<path class="st14" d="M543.219,121.523c5.013,1.179,10.028-0.279,14.194-2.169c6.186-2.806,11.021,1.243,16.859,0.654
		c0-1.63,0-3.934,0-6.236c5.313,18.524,1.962,32.253-13.953,44.985c-10.565,8.452-22.372,15.113-34.823,20.542
		c-1.231,0.537-2.465,1.726-3.449,0.179c-1.171-1.84,0.685-2.663,1.836-3.437c11.42-7.683,22.505-15.744,30.156-27.522
		c1.81-2.786,4.548-5.294,3.962-10.209c-3.367,4.682-5.324,9.227-8.489,12.997c-8.822,10.508-19.956,17.771-32.088,23.737
		c-1.866,0.918-3.587,0.648-4.949-0.967c-1.516-1.797,0.473-2.886,1.21-3.767c12.142-14.513,23.899-29.229,28.898-48.036
		C542.659,121.988,543.001,121.772,543.219,121.523z"/>
	<path class="st15" d="M603.216,196.475c0.22,1.149,0.729,1.406,2.038,1.381c9.63-0.18,19.265-0.082,28.894-0.267
		c4.241-0.082,8.326-0.257,10.687,5.47c0.302-1.924,0.426-2.715,0.55-3.505c2.39,9.835-0.103,18.521-7.256,25.379
		c-8.327,7.984-18.766,12.793-29.208,17.413c-1.654,0.732-3.316,1.069-5.223,0.125c-4.924-2.437-5.033-3.751-1.036-7.638
		c6.859-6.67,14.752-12.316,20.308-20.289c0.527-0.756,1.601-1.332,0.565-2.966c-4.566,4.316-8.27,9.373-13.343,12.984
		c-4.56,3.246-8.998,6.669-13.424,10.098c-3.331,2.581-4.554-1.391-6.82-2.093c-1.95-0.604-1.936-2.234-1.12-3.649
		c5.801-10.063,9.642-20.958,13.678-31.774C602.608,196.87,602.974,196.695,603.216,196.475z"/>
	<path class="st16" d="M300.464,105.535c1.275-1.927,2.701-3.774,3.785-5.803c1.2-2.245,3.1-2.268,5.135-2.062
		c2.088,0.211,2.55,1.9,2.899,3.552c0.969,4.588,4.896,8.811,9.695,9.211c2.742,0.229,4.548,1.109,5.817,3.518
		c1.163-1.828-0.468-4.123,1.708-5.255c1.131,16.364,8.151,30.33,17.444,43.445c3.906,5.512,7.398,11.341,9.067,17.999
		c1.494,5.959-4.276,5.273-7.019,7.152c-2.855,1.956-2.878-1.209-3.825-2.723c-6.68-10.671-14.344-20.611-22.568-30.127
		c-8.434-9.76-16.266-19.909-20.811-32.173C300.994,110.115,299.914,107.973,300.464,105.535z"/>
	<path class="st12" d="M639.183,231.531c0.167-2.075,1.882-3.103,3.14-4.334c8.66-8.476,10.203-18.96,8.58-30.283
		c-0.563-3.927-1.679-7.772-2.44-11.675c-0.637-3.272,0.236-5.503,4.105-4.3c4.03,1.252,8.262,0.18,12.316,1.557
		c2.439,0.828,4.007,1.715,4.722,4.37c1.735,6.444,2.98,12.901,2.803,19.624c-0.066,2.516-1.046,3.935-3.213,5.042
		c-9.59,4.899-16.532,13.041-12.127,25.853c1.405,4.085,0.785,7.358-3.974,8.741c-4.892,1.421-9.762,2.917-14.642,4.38
		C634.064,244.002,636.107,237.746,639.183,231.531z"/>
	<path class="st17" d="M222.649,164.533c2.189-1.668,4.645-2.14,7.37-1.929c5.915,0.459,11.902-0.779,17.778,0.719
		c2.287,0.583,2.483-0.851,2.477-2.507c8.416,12.317,14.754,25.692,19.977,39.608c1.789,4.766,2.757,9.872,4.851,14.481
		c1.336,2.942-0.175,3.667-1.911,4.887c-2.42,1.699-3.986,0.481-5.392-1.457c-3.789-5.22-7.46-10.531-11.396-15.639
		C246.013,189.218,233.369,177.725,222.649,164.533z"/>
	<path class="st18" d="M333.399,117.584c2.838-3.522,6.127-2.882,9.606-1.115c3.496,1.775,8.24,0.934,10.516,5.437
		c0.593,1.173,1.557-0.117,1.76-1.175c4.656,8.664,9.483,17.241,13.905,26.022c2.65,5.263,5.174,10.619,6.591,16.444
		c0.61,2.505,0.058,3.266-2.317,3.61c-3.78,0.548-7.304,5.18-10.846,2.684c-2.787-1.964-3.646-6.492-5.774-9.598
		c-4.195-6.123-9.298-11.611-12.918-18.146C339.648,134.031,334.161,126.834,333.399,117.584z"/>
	<path class="st19" d="M153.476,233.353c-0.241,1.13-0.444,2.27-0.727,3.39c-4.492,17.75,2.547,25.379,16.215,31.54
		c2.934,1.322,5.602,3.682,9.171,3.574c0.829-0.025,1.626,0.555,1.686,1.516c0.072,1.159-1.031,1.041-1.721,1.395
		c-9.447,4.856-18.515,5.294-27.164-1.924c-3.294-2.749-6.941-5.069-10.369-7.661c-6.987-5.284-9.596-12.501-6.964-20.606
		c1.423-4.381,2.563-8.862,4.546-13.104c1.374-2.938,3.062-4.163,6.11-3.724c1.971,0.284,3.932,0.637,5.892,0.987
		C152.734,229.198,153.929,230.644,153.476,233.353z"/>
	<path class="st20" d="M198.244,263.708c-0.406,1.735,3.687,2.631,0.77,4.959c-2.515,2.007-3.948,0.435-5.407-1.186
		c-5.61-6.232-13.741-8.643-20.412-13.34c1.478,2.472,3.333,4.333,6.089,5.695c5.029,2.486,9.548,5.836,13.259,10.128
		c0.599,0.693,1.63,1.419,0.988,2.559c-0.44,0.781-1.283,1.118-2.139,0.659c-9.675-5.194-20.318-8.391-29.397-14.883
		c-6.446-4.609-6.121-10.902-5.494-17.369c0.315-3.245,1.097-6.516,2.711-9.467c1.597,1.736,3.283,2.952,5.922,2.975
		c4.456,0.04,8.772,1.491,13.221,1.858c0.698,0.035,1.391,0.256,1.707,0.859c4.648,8.869,11.455,16.202,17.231,24.266
		C197.788,262.113,197.936,262.942,198.244,263.708z"/>
	<path class="st21" d="M178.248,236.846c-1.101,2.808-2.349,0.1-3.476,0.017c-3.758-0.278-7.5-1.146-11.244-1.128
		c-3.278,0.016-4.549-1.15-4.316-4.271c-0.19-4.836,2.925-8.756,3.726-13.345c0.258-1.475,1.824-2.205,3.521-2.259
		c8.302-0.264,16.506-0.58,24.827,1.126c8.914,1.827,14.976,9.766,16.083,19.584c0.982,2.707,0.547,3.114-2.642,2.877
		c-8.002-0.595-15.765-3.583-23.921-2.39C179.901,237.618,179.315,234.386,178.248,236.846z"/>
	<path class="st12" d="M737.384,237.862c-0.19,10.152-6.137,15.737-12.808,20.872c-0.977,0.752-1.794,0.565-2.674-0.132
		c-5.782-4.575-8.901-10.674-9.229-17.899c-0.228-5.02-0.571-9.75-3.518-14.083c-2.3-3.382-1.379-5.66,2.395-5.827
		c5.206-0.231,10.034-2.133,15.124-2.798c1.959-0.256,3.941-0.471,4.8,1.499C734.161,225.661,737.033,231.805,737.384,237.862z"/>
	<path class="st22" d="M512.348,126.649c0.059,0.97,0.119,1.94,0.248,4.055c1.883-5.143,4.326-7.167,9.115-5.322
		c2.166,0.834,4.944,0.543,7.354,0.174c4.273-0.654,6.892,0.883,8.129,4.952c0.13,2.506-0.828,4.537-2.698,6.169
		c-1.946-0.287-3.854-0.898-5.863-0.644c-4.721,0.597-6.76,4.518-4.701,9.484c2.592-2.39,1.958-9.871,8.611-5.669
		c-5.067,10.08-13.342,17.585-20.8,25.722c-4.935,5.384-4.971,5.021-11.299,1.402c-2.237-1.279-2.308-2.41-1.604-4.289
		C503.337,150.67,507.844,138.66,512.348,126.649z"/>
	<path class="st23" d="M30.387,312.625c5.019,6.632,9.098,13.963,15.711,19.38c8.214,6.729,17.52,10.121,27.955,11.803
		c8.868,1.429,17.579,0.725,26.174-0.432c7.194-0.968,14.198-3.704,20.529-7.665c2.789-1.745,5.204-4.108,8.421-5.151
		c-4.094,9.049-11.362,15.069-20.075,18.858c-20.388,8.867-40.211,6.68-58.357-5.892C40.079,336.136,32.657,325.899,30.387,312.625z
		"/>
	<path class="st24" d="M258.515,169.516c-0.421-4.65,1.172-6.368,6.089-5.017c3.271,0.899,6.886-0.366,10.312,0.798
		c2.267,0.771,2.335-1.029,2.376-2.594c3.338,4.707,4.618,10.261,4.832,15.723c0.441,11.263-0.063,22.56,0.104,33.84
		c0.039,2.618-1.405,3.92-3.148,4.268c-1.573,0.314-1.93-2.028-2.213-3.237c-3.599-15.344-10.288-29.344-18.275-42.803
		C258.441,170.241,258.535,169.845,258.515,169.516z"/>
	<path class="st25" d="M660.457,231.596c-1.423-8.355,3.812-13.042,9.888-16.744c5.163-3.145,10.765-5.582,16.686-7.234
		c2.649-0.739,4.57-0.294,6.142,1.73c5.048,6.5,9.327,13.456,12.228,21.2c-3.17,3.498-6.242,2.498-9.187-3.252
		c-2.564,3.69-7.199,4.24-10.146,7.286c-0.361-2.368-2.381-4.23-2.089-6.741c-0.455,3.724-1.574,5.567-6.115,4.489
		c-4.05-0.962-8.485-0.182-12.744,0.053C663.494,232.472,661.816,233.028,660.457,231.596z"/>
	<path class="st26" d="M686.338,234.621c1.079-2.795,1.685-5.596,6.043-5.216c3.243,0.283,1.041-3.602,2.933-5.51
		c3.353,1.998,3.039,10.585,10.086,6.653c3.433,4.917,3.746,9.973,1.12,15.418c-3.24,6.717-8.439,11.829-13.462,17.37
		c1.607-7.67,6.424-14.563,3.704-22.809c0.172,7.106-3.007,13.017-6.387,18.872c-0.941,1.629-1.571,3.082-4.118,2.373
		c-2.57-0.715-2.333-2.127-2.112-4.092c0.296-2.633,0.256-5.303,0.361-7.957C686.446,244.85,685.262,239.598,686.338,234.621z"/>
	<path class="st27" d="M180.518,236.567c5.556-3.154,10.903,0.213,16.313,0.677c3.304,0.284,7.045-1.3,9.927,1.66
		c0.203-0.778,0.407-1.556,0.61-2.335c3.462,6.62,2.234,14.261,4.585,21.157c0.696,2.042-1.911,2.412-3.201,3.157
		c-1.843,1.063-2.258-0.881-2.673-1.937c-1.615-4.116-2.273-8.55-4.501-12.499c-0.857-1.519-1.594-3.029-3.519-5.145
		c1.899,5.942,3.469,10.879,5.06,15.809c0.304,0.941,0.908,1.836,0.992,2.787c0.163,1.844,1.644,4.188-0.688,5.398
		c-2.418,1.255-2.344-2.275-4.042-2.716c-7.007-7.736-14.117-15.392-19.055-24.722C180.08,237.391,180.114,236.946,180.518,236.567z
		"/>
	<path class="st28" d="M573.338,153.633c-1.523,6.734-3.242,13.432-4.467,20.22c-0.464,2.569-2.317,5.851,1.473,7.801
		c-4.696,1.834-9.393,3.666-14.087,5.505c-1.293,0.506-2.642,0.774-3.804-0.134c-3.495-2.731-6.823-5.691-10.428-8.264
		c-1.898-1.355-0.501-1.972,0.294-2.432C553.475,169.873,564.017,162.591,573.338,153.633z"/>
	<path class="st29" d="M660.457,231.596c7.173-0.116,14.347-2.043,21.914,0.143c0-2.075-0.032-4.029,0.013-5.981
		c0.024-1.053,0.34-2.029,1.676-1.899c1.064,0.103,1.135,1.002,1.187,1.841c-2.166,2.087,0.851,4.832-0.886,6.973
		c0.073,3.36-1.626,6.534-1.045,9.948c-1.239,3.582,0.435,7.663-1.894,11.058c-0.264,1.461-0.422,2.952-0.823,4.374
		c-0.386,1.37-1.103,2.23-2.912,1.893c-1.909-0.356-3.334-0.575-3.806-2.98c-1.59-8.115-3.436-16.18-5.184-24.264
		c-1.873,2.914-0.616,5.995-0.5,9.021c0.144,3.768-1.04,4.482-4.666,2.896C662.401,240.304,660.428,236.186,660.457,231.596z"/>
	<path class="st30" d="M585.332,190.619c0.681-2.472,2.524-2.699,2.778-0.372c0.421,3.848,2.958,4.119,5.475,4.265
		c2.436,0.142,4.49,0.961,6.559,2.01c-2.991,10.141-7.364,19.652-13.128,28.51c-0.857,1.317-2.068,3.209-3.855,1.534
		c-1.845-1.73-5.391-2.632-4.15-6.398c1.44-4.37,2.827-8.763,4.456-13.063c1.597-4.214,1.801-8.702,2.88-13.013
		C586.645,192.903,586.924,191.403,585.332,190.619z"/>
	<path class="st31" d="M294.415,160.571c6.804,7.136,15.172,11.56,24.524,14.399c1.822,0.553,3.582,0.539,5.388,0.657
		c-8.677,5.058-17.414,10.019-25.992,15.24c-2.228,1.356-2.9,0.965-2.976-1.362c-0.075-2.316-0.325-4.689,0.053-6.944
		C296.658,175.135,295.284,167.874,294.415,160.571z"/>
	<path class="st28" d="M639.183,231.531c-0.804,6.304-2.937,12.557-0.732,18.976c-7.217,2.114-13.842,0.172-20.218-3.089
		c-1.17-0.599-3.852-1.516-0.968-3.244C624.499,239.839,631.868,235.73,639.183,231.531z"/>
	<path class="st32" d="M282.503,168.585c2.641,0.242,1.221,2.953,2.422,4.108c0.967-1.154-0.38-3.419,1.61-3.781
		c2.688-0.489,3.129,2.419,4.706,3.65c1.357,12.513-1.978,24.778-1.996,37.224c-0.004,2.62-2.47,3.158-5.216,4.636
		C284.884,198.657,286.97,183.452,282.503,168.585z"/>
	<path class="st33" d="M546.418,341.564c5.804,2.476,11.154,6.401,18.308,5.194c-0.452-5.07-0.976-10.558-1.403-16.052
		c-0.099-1.276-0.223-3.16,1.401-3.251c1.772-0.099,1.644,1.82,1.512,3.044c-0.449,4.168,1.099,8.146,1.011,12.267
		c-0.245,0.21-0.729,0.462-0.701,0.623c1.466,8.32-5.126,9.446-10.442,11.384c-2.74,0.998-5.56,4.135-7.928,2.957
		c-2.297-1.144-0.377-5.161-1.229-7.823C546.081,347.195,546.235,344.369,546.418,341.564z"/>
	<path class="st5" d="M88.652,256.529c-3.748,0-7.497,0-11.505,0c1.106,2.969,3.354,4.526,4.814,6.583
		c3.303,4.653-0.187,8.416-0.615,12.466c-0.166,1.569-2.448,0.984-4.12,0.016c-5.07-2.933-6.431-7.846-7.595-12.961
		c-1.834-1.572-2.233-3.674-2.195-5.938C74.504,256.04,81.561,254.103,88.652,256.529z"/>
	<path class="st34" d="M67.437,256.695c2.35,1.381,2.12,3.716,2.195,5.938c-1.746,6.403-4.484,8.704-10.45,8.782
		c-0.489-0.438-0.98-0.873-1.466-1.313c-4.478-4.062-4.518-4.123,0.543-7.487C61.289,260.601,62.874,256.325,67.437,256.695z"/>
	<path class="st5" d="M117.383,271.61c-2.115,1.242-1.996,4.715-5.116,5.001c-3.8,0.349-7.516,0.164-9.531-3.61
		c-1.976-3.702,1.687-5.098,3.548-7.169C110.33,267.094,114.23,268.635,117.383,271.61z"/>
	<path class="st35" d="M663.533,244.62c2.979,1.126,3.681-0.255,3.876-3.036c0.209-2.967-1.401-6.265,1.287-8.881
		c-0.98,5.839,0.72,11.477,1.317,17.196c0.137,1.308,0.729,2.581,0.78,3.884c0.076,1.921,1.998,4.898-0.992,5.432
		c-2.271,0.405-3.185-2.693-3.244-4.719C666.449,250.855,663.697,248.154,663.533,244.62z"/>
	<path class="st36" d="M180.518,236.567c3.721,7.955,10.198,13.864,15.462,20.668c1.322,1.708,2.419,3.467,3.401,5.345
		c-0.379,0.376-0.758,0.752-1.137,1.129c-6.788-7.474-13.206-15.223-18.006-24.18c-0.527-0.984-0.81-2.174-1.99-2.683
		c-1.374-0.969-1.041-2.181-0.49-3.488C179.351,233.883,179.744,235.392,180.518,236.567z"/>
	<path class="st37" d="M684.361,232.673c-0.314-1.888-0.653-3.773-0.933-5.666c-0.228-1.543,0.265-2.193,1.819-1.307
		c0.363,2.974,0.727,5.948,1.09,8.921c-0.835,5.007,1.549,10.404-1.833,15.102c0.241-4.108,0.56-8.213,0.683-12.324
		C685.236,235.813,685.737,234.049,684.361,232.673z"/>
	<path class="st1" d="M705.286,310.592c3.549-2.935,7.934-4.174,12.057-5.944C715.276,310.589,710.547,311.129,705.286,310.592z"/>
	<path class="st5" d="M135.499,290.662c3.349,2.703,1.434,6.331,1.617,9.57c0.051,0.897-0.897,1.263-1.783,1.28
		c-1.536,0.03-1.909-0.943-1.889-2.24c1.149,1.003,2.114,1.171,2.155-0.74C135.655,295.911,135.541,293.285,135.499,290.662z"/>
	<path class="st5" d="M87.316,295.705c-0.67,1.316-1.786,2.123-3.214,1.885c-5.217-0.871-10.882,2.163-15.734-1.798
		C74.689,296.799,81.009,297.624,87.316,295.705z"/>
	<path class="st5" d="M37.334,258.631c-5.483,0.091-10.999-0.445-16.42,0.863C26.241,256.446,31.7,255.875,37.334,258.631z"/>
	<path class="st5" d="M37.194,285.628c-3.931,0-7.862,0-12.647,0c2.637-1.767,5.118-0.047,6.752-1.899
		C33.517,283.577,35.601,283.839,37.194,285.628z"/>
	<path class="st37" d="M681.423,253.679c0.84-3.65,0.281-7.54,1.894-11.058C682.764,246.321,684.843,250.471,681.423,253.679z"/>
	<path class="st15" d="M645.183,193.646c-3.272-2.417-1.326-5.93-1.873-8.919C644.743,187.531,645.634,190.447,645.183,193.646z"/>
	<path class="st11" d="M190.655,138.965c5.793-0.126,7.979,4.616,10.975,8.21c1.098,1.317-0.24,2.126-1.058,2.835
		c-2.506,2.171-5.14,4.197-7.6,6.416c-0.944,0.852-3.197,1.239-1.929,3.317c1.06,1.737,2.812,2.352,4.76,1.871
		c2.449-0.605,4.145-2.23,4.584-4.714c0.532-3.016,2.763-2.661,4.563-2.226c2.345,0.568,1.467,2.691,1.084,4.152
		c-2.279,8.686-11.762,11.081-19.75,5.053c-0.821-0.413-1.179-1.034-0.879-1.952c0.35-2.421,0.701-4.842,1.051-7.264
		c0.779-1.309,1.913-2.288,3.04-3.273c3.964-3.462,3.964-3.461-0.184-6.817C189.476,142.636,188.752,140.486,190.655,138.965z"/>
	<path class="st0" d="M185.404,161.927c0.293,0.65,0.586,1.3,0.879,1.951c-1.182,1.82-0.862,3.841-0.779,5.83
		c-0.34,0.246-0.68,0.492-1.019,0.737c0.035-2.887,0.069-5.773,0.105-8.657C184.873,161.773,185.144,161.819,185.404,161.927z"/>
	<path class="st38" d="M351.32,241.748c11.985-2.088,20.834-8.564,26.466-19.288c1.517-2.888,0.633-6.227,0.561-9.359
		c-0.378-16.336,8.614-25.541,24.997-25.501c1.665,0.004,3.334,0.11,4.993,0.014c7.304-0.423,11.914,3.403,14.658,9.66
		c5.124,11.684,13.918,19.002,25.972,22.677c6.162,1.879,11.305-1.129,16.512-3.523c7.161-3.292,13.287-8.397,20.615-11.521
		c10.35-4.413,22.283-0.273,27.188,9.816c2.688,5.528,4.456,11.341,6.321,17.158c3.967,12.373,13.095,18.53,25.473,20.677
		c5.278,0.915,10.46,1.124,15.825,0.284c10.945-1.713,15.793,0.884,21.438,10.561c1.843,3.159,3.764,6.263,6.987,8.26
		c-0.243,1.964-2.263,4.333-3.038,3.468c-2.288-2.557-7.726,2.606-7.965-3.529c-3.414-12.52-18.664-18.481-28.915-11.438
		c-2.516,1.729-2.601,3.277-1.281,5.792c2.245,4.277,6.083,7.391,8.196,11.725c-5.389,2.629-10.706-0.189-16.048-0.359
		c-2.092-0.066-4.11-0.968-6.289-0.084c-1.62,0.657-2.69,0.07-3.448-1.716c-1.084-2.554-2.892-2.701-4.062-0.242
		c-1.672,3.513-2.898,3.292-4.412,0.035c-0.553-1.189-1.526-1.822-2.826-1.468c-1.018,0.277-1.802,1.005-1.588,2.194
		c0.403,2.238-0.981,2.549-2.638,2.527c-0.848-0.011-1.828-0.272-1.975-1.201c-0.297-1.881,2.082-1.26,2.685-2.75
		c-2.809-1.53-6.048-1.081-8.972-1.916c-0.941-0.269-2.31,0.096-2.189,1.367c0.401,4.194-2.65,3.597-4.945,3.507
		c-9.9-0.391-19.956,1.501-29.666-1.949c-1.042-0.37-2.248-0.842-3.366-0.08c-4.514,3.075-9.634,1.925-14.552,2.055
		c-3.769,0.1-7.734,0.756-10.444-3.064c-0.707-0.996-2.073-0.937-3.253-0.908c-15.116,0.383-30.252-0.771-45.361,0.573
		c-1.762,0.157-4.063,0.034-4.997-1.391c-0.924-1.409,0.777-3.067,1.569-4.45c0.807-1.409,2.066-2.559,2.78-4.507
		c-3.899,2.06-7.72,4.29-11.713,6.149c-13.033,6.071-25.889,5.579-38.437-1.476c-1.402-0.788-3.127-1.651-1.797-3.826
		c1.918-2.277,5.176-0.564,7.222-2.441c0.66-0.483,1.36-0.919,1.925-1.52c4.354-4.626,4.066-6.512-1.469-9.641
		c-2.884-1.989-5.724-1.435-8.548,0.151c-1.979,0.699-4.048,1.105-5.859,2.294c-3.956,2.599-4.442,4.289-2.334,8.849
		c0.758,1.063,2.275,1.166,2.964,2.315c0.027,0.164,0.014,0.349,0.087,0.49c4.307,8.426,4.298,8.161-5.181,8.499
		c-9.865,0.351-19.743,0.008-29.618,0.385c-9.981,0.381-20.104,2.686-30.178,0.642c3.459-3.388,6.136-7.233,7.075-12.095
		c2.166-3.092,0.802-6.807,1.787-10.108c0.152-10.853,6.838-18.024,17.487-20.017c9.706-1.817,17.679-0.335,24.664,7.382
		c6.255,6.911,14.744,5.311,22.836,3.69C345.872,242.699,348.901,243.57,351.32,241.748z"/>
	<path class="st39" d="M438.827,358.622c-7.801,0.026-9.309-3.933-5.717-12.255c5.061-11.727,12.538-21.176,23.162-28.289
		c2.52-1.687,5.212-3.033,7.901-4.06c7.021-2.682,13.967,3.359,13.048,10.948C475.105,342.43,456.702,358.562,438.827,358.622z"/>
	<path class="st4" d="M228.349,301.73c-0.673-0.004-1.346-0.008-2.019-0.012c-2.843,0.007-5.404-1.143-8.044-1.966
		c-1.219,0.178-1.986-0.384-2.426-1.481c-1.485-2.95-2.358-5.875,0.356-8.653c4.01-10.58,11.161-14.705,23.994-11.395
		c2.235,0.576,4.369,1.541,6.604,2.119c2.542,0.657,4.778,1.602,5.405,4.441c0.704,3.189-1.174,5.558-3.263,7.329
		c-4.019,3.408-8.393,6.397-12.62,9.561c-0.665,0.024-1.33,0.048-1.995,0.072C232.34,303.034,230.344,302.717,228.349,301.73z"/>
	<path class="st4" d="M556.322,277.684c-4.787-3.016-7.252-7.953-10.067-12.52c-2.159-3.503-0.533-5.633,5.649-8.155
		c8.358-3.408,21.641,1.219,26.062,9.044c1.031,1.824,1.616,3.612,0.355,5.552C572.673,279.726,564.141,277.416,556.322,277.684z"/>
	<path class="st40" d="M482.303,319.532c0.552-3.169-0.139-7.547,4.666-9.809c3.919-1.845,7.451-0.942,9.969,1.807
		c2.468,2.693,2.05,6.073-0.75,8.904c-1.737,1.756-3.244,3.742-4.825,5.648c-1.746,2.104-4.03,3.344-6.573,2.257
		c-2.418-1.034-2.377-3.698-2.483-6.014C482.278,321.661,482.303,320.995,482.303,319.532z"/>
	<path class="st41" d="M627.378,275.631c5.336,0.232,11.237,5.098,10.89,8.979c-0.283,3.164-5.141,6.049-9.81,5.827
		c-5.128-0.244-10.339-4.465-10.118-8.196C618.559,278.53,622.797,275.431,627.378,275.631z"/>
	<path class="st42" d="M602.699,314.596c2.649-0.235,4.534,0.72,5.69,3.148c1.152,2.42-1.095,3.19-2.143,4.46
		c-3.578,4.334-8.543,6.476-13.711,8.116c-1.896,0.602-3.891-0.424-4.648-2.087c-1.267-2.782-0.258-5.899,1.583-7.805
		C592.969,316.805,597.775,315.35,602.699,314.596z"/>
	<path class="st41" d="M262.968,292.638c-2.285-0.272-5.705,1.094-6.094-2.426c-0.301-2.725,1.203-5.431,4.074-6.801
		c2.827-1.349,5.493-2.942,8.886-2.784c4.539,0.211,6.024,2.171,3.729,6.23C271.335,290.798,267.831,293.142,262.968,292.638z"/>
	<path class="st43" d="M175.39,302.63c-4.982,5.914-6.96,6.249-13.066,2.219c-2.134-2.136-1.433-4.01,0.352-6.007
		c2.824-3.161,6.428-2.378,9.75-1.796C175.22,297.535,175.492,300.172,175.39,302.63z"/>
	<path class="st44" d="M582.701,281.765c2.903,0.804,6.549,1.412,6.233,5.179c-0.328,3.909-4.109,4.974-7.432,5.455
		c-3.127,0.453-8.373-3.396-7.786-5.628C574.906,282.242,579.385,282.973,582.701,281.765z"/>
	<path class="st45" d="M427.27,298.65c-0.187,2.277,1.828,4.372,0.56,6.737c-2.183,4.073-5.578,3.251-8.999,2.194
		c-3.459-1.069-2.67-3.577-1.992-6.039c0.174-0.63,0.288-1.277,0.428-1.917C420.337,296.588,423.451,294.004,427.27,298.65z"/>
	<path class="st46" d="M673.646,274.543c2.775-0.029,5.643-0.011,5.277,2.871c-0.473,3.719-4.221,3.728-7.082,4.102
		c-2.395,0.313-3.746-1.119-3.584-3.619C668.521,273.792,671.688,274.699,673.646,274.543z"/>
	<path class="st47" d="M25.715,265.573c4.458-5.509,7.843-6.849,11.082-4.646c0.737,0.501,2.121,0.656,2.001,1.908
		c-0.109,1.14-1.251,1.257-2.159,1.67C33.302,266.021,29.824,265.339,25.715,265.573z"/>
	<path class="st5" d="M101.353,267.858c-0.689,2.408-1.961,3.846-4.254,3.669c-2.227-0.172-3.655-1.605-3.661-3.864
		c-0.006-2.226,1.308-3.966,3.582-3.791C99.321,264.048,100.387,266.139,101.353,267.858z"/>
	<path class="st5" d="M148.359,295.728c2.659,0.005,5.318,0.009,7.976,0.015C155.172,300.433,154.031,300.431,148.359,295.728z"/>
	<path class="st7" d="M348.385,262.799c-1.97,3.571-5.385,1.072-8.005,1.907c-2.032,0.003-4.064,0.005-6.097,0.007
		c-1.336-0.249-2.983,0.464-3.849-1.242C336.339,261.145,342.357,261.846,348.385,262.799z"/>
	<path class="st7" d="M249.34,277.683c4.658,0.91,9.316,1.693,13.98,0.033C259.848,280.468,252.75,280.451,249.34,277.683z"/>
	<path class="st7" d="M216.215,289.619c-1.562,3.028-1.018,6.014,0.178,8.988c-0.347,0.322-0.701,0.331-1.063,0.026
		C213.68,295.437,211.767,292.216,216.215,289.619z"/>
	<path class="st5" d="M215.331,298.632c0.354-0.009,0.708-0.017,1.062-0.026c0.632,0.382,1.263,0.763,1.893,1.146
		c-1.893,1.242-4.011,1.446-6.269,1.681C212.348,299.186,214.722,300.073,215.331,298.632z"/>
	<path class="st5" d="M138.783,297.153c1.483,0.846,2.639,1.499,2.078,3.085c-0.208,0.588-0.809,1.119-1.495,0.617
		C138.163,299.974,138.122,298.77,138.783,297.153z"/>
	<path class="st7" d="M278.254,252.527c-0.485,3.389,1.723,7.255-1.788,10.108C277.063,259.265,277.658,255.896,278.254,252.527z"/>
	<path class="st3" d="M351.32,241.748c-2.104,3.203-5.33,1.464-8.079,1.833C345.796,242.366,348.542,241.986,351.32,241.748z"/>
	<path class="st48" d="M403.316,329.615c-6.162,6.708-13.462,8.771-22.121,5.495c-0.89-0.337-1.922-0.298-2.888-0.434
		c-3.451-4.573-4.036-12.267-1.23-16.182c3.38-4.717,12.508-7.727,18.358-6.351C405.916,314.609,407.917,320.176,403.316,329.615z"
		/>
	<path class="st49" d="M352.4,352.506c-0.666-2.704-1.6-5.376-1.921-8.12c-0.306-2.615,0.053-4.896,1.56-7.666
		c2.04-3.75,1.417-8.888,2.272-13.367c0.484-2.535-0.779-6.412,3.905-6.547c-2.144,8.836-3.915,17.697-1.903,26.826
		c-0.557,0.536-1.072,2.302-1.858,0.406c-0.524-1.265-0.323-2.831-0.565-5.645c-1.259,5.297-0.463,9.066,0.549,12.815
		C355.162,353.884,354.133,353.73,352.4,352.506z"/>
	<path class="st3" d="M369.338,297.627c2.039,0.686,5.281-1.707,5.981,2.429c0.784,4.627-1.263,8.929-5.291,10.095
		c-1.855,0.537-3.938,0.419-5.912,0.365c-1.487-0.041-1.774-1.259-1.734-2.529c0.033-1.066,0.344-2.297,1.524-2.172
		c7.192,0.766,5.216-4.406,5.422-8.182L369.338,297.627z"/>
	<path class="st7" d="M228.349,301.73c1.997,0.004,3.994,0.009,5.991,0.014C232.335,305.271,230.341,303.902,228.349,301.73z"/>
	<path class="st50" d="M690.117,307.85c3.414-0.333,5.056,0.463,5.869,2.263c0.917,2.03-0.85,2.726-2.139,3.812
		c-2.621,2.208-5.89,2.905-8.868,4.26c-1.388,0.632-2.989,0.727-4.045-0.717c-1.009-1.38,0.067-2.636,0.8-3.574
		C684.229,310.701,687.484,308.564,690.117,307.85z"/>
	<path class="st51" d="M638.07,323.096c3.28,5.121,7.711,6.625,11.697,8.982C644.79,333.721,638.559,329.535,638.07,323.096z"/>
	<path class="st52" d="M72.472,263.331c0.246-1.56-0.004-4.383,2.815-3.885c4.161,0.735,4.548,4.799,5.387,8.072
		c0.495,1.932-1.065,3.169-2.738,3.529C75.786,271.512,72.573,267.004,72.472,263.331z"/>
	<path class="st53" d="M62.693,268.511c-1.422-0.284-1.916-1.476-1.762-2.262c0.56-2.865,2.409-4.963,4.859-6.451
		c0.69-0.419,1.689-0.29,2,0.739c0.242,0.803,0.105,2.241-0.531,2.165c-4.351-0.519-3.923,2.234-3.734,4.988
		C63.544,267.967,62.932,268.287,62.693,268.511z"/>
	<path class="st4" d="M462.557,244.652c-3.891,7.381-11.239,10.174-18.376,11.677c-9.763,2.056-19.177-0.187-27.45-6.552
		c-8.588-6.607-8.055-14.348,0.59-20.715c14.365-10.579,29.524-6.106,39.668,0.475c2.326,1.509,4.509,3.314,5.492,6.111
		C464.041,238.637,464.866,241.631,462.557,244.652z"/>
	<path class="st4" d="M493.248,249.585l-0.453-0.043l-0.453,0.046c-4.157,1.429-8.043-0.052-11.967-1.118
		c-7.927-2.998-7.725-10.71-8.785-16.923c-1.521-8.916,4.975-16.636,14.918-19.821c2.357-0.755,4.697-1.638,7.112-2.122
		c6.734-1.35,11.914,2.17,13.819,8.752c1.002,3.461,2.485,6.815,4.046,10.075c4.682,9.776,1.08,15.184-9.137,19.338
		C499.606,249.835,496.181,248.476,493.248,249.585z"/>
	<path class="st4" d="M289.327,268.76c-9.609-0.722-11.636-3.885-8.068-12.718c1.536-3.801,1.903-8.012,4.113-11.572
		c1.882-3.031,4.236-5.419,7.975-5.961c5.323-1.986,10.658-2.233,16.008-0.107c10.684,3.333,14.35,13.506,7.793,22.421
		c-2.684,3.65-5.782,7.222-10.765,8.003C300.689,270.948,295.005,270.725,289.327,268.76z"/>
	<path class="st4" d="M384.267,211.869c0.772-8.803,5.097-15.57,12.818-19.851c5.253-2.913,14.184,0.703,19.416,7.46
		c1.502,1.94,2.795,4.139,3.717,6.409c1.714,4.216,5.476,8.301,0.659,13.084c-5.173,5.135-10.811,9.013-18.427,7.423
		c-4.164-0.87-8.192-2.551-12.16-4.165C385.792,220.398,383.448,217.066,384.267,211.869z"/>
	<path class="st4" d="M363.334,249.504c-0.178-1.884,0.662-3.495,2.254-5.305c4.646-5.284,9.673-9.894,16.31-12.505
		c5.941-2.337,14.017-0.069,18.002,4.932c2.035,2.554,1.799,5.321,0.825,8.016c-2.885,7.987-8.597,13.464-16.162,16.952
		C377.629,264.792,363.351,256.785,363.334,249.504z"/>
	<path class="st4" d="M511.348,268.764c-5.339-1.114-8.73-5.284-12.424-8.635c-1.609-1.459-1.229-4.689,1.753-6.689
		c10.972-7.358,23.794-4.447,29.915,7.21c1.689,3.216,0.977,6.113-2.241,8.15C522.678,271.072,517.011,270.81,511.348,268.764z"/>
	<path class="st4" d="M348.385,262.799c-5.93,1.667-11.955,0.817-17.952,0.674c-3.896-6.987-0.601-11.777,8.912-12.955
		c2.995-1.224,5.996-1.34,9.006-0.054c2.944,0.176,5.669,1.887,5.595,4.449C353.85,258.211,351.924,261.355,348.385,262.799z"/>
	<path class="st7" d="M289.327,268.76c5.682,0.879,11.364,1.59,17.055,0.065c-0.211,0.837-0.638,1.779-1.518,1.68
		C299.685,269.92,294.129,272.614,289.327,268.76z"/>
	<path class="st3" d="M309.355,238.403c-5.346-1.407-10.68-1.024-16.008,0.108C296.838,235.82,306.275,235.757,309.355,238.403z"/>
	<path class="st3" d="M511.348,268.764c5.665,1.183,11.332,1.645,17.002,0.036c-0.207,0.44-0.398,1.254-0.623,1.264
		C522.219,270.299,516.535,272.526,511.348,268.764z"/>
	<path class="st3" d="M348.351,250.463c-3.002,0.018-6.004,0.037-9.006,0.055C342.331,247.777,345.329,247.233,348.351,250.463z"/>
	<path class="st3" d="M480.375,248.469c3.989,0.373,7.978,0.746,11.967,1.119C488.12,251.709,484.196,250.635,480.375,248.469z"/>
	<path class="st3" d="M493.248,249.585c3.033-0.606,6.067-1.212,9.1-1.817C499.928,251.448,496.262,248.883,493.248,249.585z"/>
	<path class="st3" d="M462.557,244.652c1.484-3.014,0.566-6.008-0.077-9.003C465.203,238.627,465.682,241.624,462.557,244.652z"/>
	<path class="st54" d="M75.489,262.37c3.121,0.684,2.778,2.897,2.597,4.982c-0.073,0.838-0.76,1.099-1.376,0.685
		C74.528,266.564,75.209,264.489,75.489,262.37z"/>
	<path class="st11" d="M189.091,142.433c2.307,0.088,4.46,1.053,5.112,3.145c0.661,2.122-1.929,2.638-3.195,3.713
		c-1.461,1.239-2.607,3.016-4.773,3.232C183.071,146.863,183.381,145.769,189.091,142.433z"/>
	<path class="st55" d="M306.113,65.118l9.032,2.295l7.467,7.327l-22.369,28.655c0,0-3.881-0.487-3.381-7.946
		S306.113,65.118,306.113,65.118z"/>
	<path class="st56" d="M302.985,59.528c6.906-15.643,16.905-29.187,28.642-41.457c5.066-5.296,10.796-9.951,16.091-15.036
		c3.022-2.902,6.162-3.929,10.163-2.175c1.945,0.852,4.11,1.201,6.176,1.778c0.003,2.589-1.232,4.204-3.768,4.801
		c-5.247-1.57-8.968,0.607-12.666,4.302c-8.063,8.057-15.843,16.333-22.82,25.354c-6.521,6.995-10.776,15.454-15.314,23.725
		c-1.025,1.867-1.584,4.046-3.749,5.064C300.875,64.789,300.705,64.395,302.985,59.528z"/>
	<path class="st57" d="M186.04,134.431c2.575-7.383,5.636-14.538,9.919-21.119c5.739-2.749,11.882-2.308,17.971-2.263
		c1.096,0.008,2.071,0.554,2.228,1.625c0.261,1.779-1.121,2.601-2.43,3.371c-2.832,1.187-5.891,0.806-8.839,1.116
		c-4.469,0.471-7.053,2.605-8.835,6.773c-1.872,4.377-2.46,9.378-5.886,13.064C186.022,138.633,185.697,138.43,186.04,134.431z"/>
	<path class="st58" d="M253.468,120.914c-2.182,0.704-4.365,1.408-6.547,2.112c-1.431,1.187-2.798,0.839-4.14-0.164
		c-2.256-2.613-4.649-5.014-8.075-6.142c-1.191-0.392-2.513-0.941-2.504-2.614c0.8,0.027,1.767-0.23,2.372,0.127
		c4.161,2.454,6.466,0.903,7.656-3.332c1.639,0.805,2.442,2.672,4.22,3.299C248.262,114.691,254.99,120.213,253.468,120.914z"/>
	<path class="st58" d="M269.172,86.435c0.937,1.402,1.874,2.804,2.811,4.206c-1.014,0.983-2.312,1.042-3.606,1.122
		c-0.749,0.047-1.501,0.041-2.25,0.031c-4.246-0.375-7.151,1.783-9.45,5.04c-1.023,1.45-1.718,3.271-3.977,3.156
		c-3.992-1.796-1.743-4.252-0.699-6.581C255.712,86.127,261.667,84.374,269.172,86.435z"/>
	<path class="st57" d="M186.04,134.431c-0.329,4.191,2.296,2.296,4.141,2.01c0.098,0.214,0.196,0.429,0.298,0.642
		c0.061,1.886-0.117,3.736-0.842,5.502c-3.694,2.729-4.819,6.083-2.481,10.281c0.279,2.265,0.121,4.439-1.309,6.344
		c-0.328,0.357-0.738,0.58-1.214,0.671c-1.472-0.391-2.79-1.325-4.39-1.311C181.728,150.417,182.599,142.116,186.04,134.431z"/>
	<path class="st1" d="M212.924,115.494c0.74-1.052,2.45-1.235,2.61-3.331c-6.616-0.962-13.116-0.488-19.575,1.15
		c0.286-1.445,1.434-1.62,2.614-1.862c10.063-2.064,19.926-1.017,29.678,1.848c-1.662,2.606-4.771,2.6-7.127,3.961
		c-0.749,0.255-1.519,0.399-2.307,0.469c-1.877,0.046-3.775,0.232-5.497-0.793C212.861,116.545,212.73,116.064,212.924,115.494z"/>
	<path class="st1" d="M221.295,116.318c2.01-1.717,4.469-2.402,6.956-3.021c1.258,0.123,2.517,0.245,3.775,0.368
		c4.016,2.179,8.755,3.378,10.92,8.064c-3.426,1.617-6.279-1.669-9.583-1.107c-0.512-0.06-1.01-0.179-1.501-0.329
		C228.497,118.552,224.242,119.168,221.295,116.318z"/>
	<path class="st59" d="M245.309,114.72c-1.945-0.763-2.696-2.438-3.255-4.26c1.41-2.617,2.82-5.234,4.23-7.851
		c2.315-1.436,3.243,0.362,4.311,1.842C250.552,108.755,248.769,112.169,245.309,114.72z"/>
	<path class="st58" d="M250.136,104.91c-1.366-0.63-2.098-2.32-3.851-2.3c2.507-2.693,2.732-6.804,5.716-9.201
		c-0.375,2.213-2.04,4.69,1.26,6.15C256.45,103.813,252.651,103.987,250.136,104.91z"/>
	<path class="st12" d="M451.113,93.494c2.833-15.647,0.435-30.079-8.723-43.49c-6.664-9.759-15.55-16.981-24.911-24.222
		c11.294-8.387,23.268-14.921,35.281-21.43c2.928-1.586,4.623,0.499,6.289,1.428c16.273,9.067,30.659,20.512,42.194,35.254
		c2.936,3.752,5.219,8.01,7.897,11.971c1.854,2.743,0.933,4.023-1.961,5.05c-10.221,3.629-19.679,8.591-26.967,16.891
		c-5.518,6.285-8.751,13.684-9.021,22.049c-0.274,8.474,0.016,16.967,0.059,25.452c1.009,4.031,1.725,8.106,1.312,12.274
		c-0.132,1.328,0.929,3.242-1.104,3.843c-1.566,0.463-2.812-0.702-3.946-1.697c-3.434-3.012-5.867-6.92-7.924-10.797
		c-4.43-8.351-8.094-17.116-8.887-26.724C450.543,97.423,450.132,95.381,451.113,93.494z"/>
	<path class="st60" d="M316.314,69.422c0.389-1.124-7.194-3.525-10.201-4.305c4.894-10.253,10.076-20.324,17.925-28.731
		c2.448-1.92,4.584-2.413,7.122,0.273c2.066,2.187,5.239,2.741,8.126,3.558c8.793,2.489,17.476,5.317,25.877,8.927
		c1.625,0.698,3.914,0.848,4.264,3.312c0.602-0.139,0.182-0.845,0.619-1.098c4.557,2.308,2.999,8.019,6.464,10.141
		c0.602-1.42-3.165-2.934-1.453-5.464c2.247-1.947,4.827-2.05,7.451-1.132c7.771,2.719,15.812,4.78,22.9,9.189
		c2.464,0.972,3.169,3.187,3.749,5.445c0.689,2.685,1.376,5.365,2.589,7.775c-0.684-2.323-2.495-4.574-1.039-7.31
		c2.29-3.599,5.293-3.834,9.048-2.35c6.313,2.495,12.745,4.695,19.197,6.813c6.69,2.196,7.355,3.003,7.654,10.217
		c0.04,0.96-0.271,2.001,0.537,2.819c0.593,7.581-1.639,14.569-4.465,21.443c-1.416,3.444-1.552,7.317-3.494,10.592
		c-2.879-1.021-4.378-4.048-7.6-4.819c-2.557-0.612-4.078-1.007-4.264,2.309c-0.073,1.312-0.049,3.488-2.014,3.128
		c-1.528-0.28-0.572-2.236-0.776-3.45c-0.569-3.388,0.176-6.925-1.199-10.206c-1.106-7.514-2.757-14.813-8.379-20.561
		c1.057,3.184,2.114,6.369,3.171,9.553c1.037,2.912,0.378,6.167,1.823,8.997c0.067,4.006,0.133,8.012,0.2,12.019
		c-0.926,0.375-1.827,0.019-2.138-0.728c-2.66-6.383-8.851-6.97-14.278-8.705c-3.444-1.101-7.085-1.516-10.548-2.605
		c-4.248-9.873-7.746-20.078-13.454-29.383c0.299,6.187,3.423,11.538,5.49,17.199c0.793,2.634-0.238,2.811-2.14,1.513
		c-8.096-5.522-17.743-7.269-26.603-10.93c-1.993-0.823-4.262-0.983-5.188-3.361c-0.362-6.879-0.981-13.712-3.669-20.206
		c0.524,8.021,0.784,16.01,0.582,24.01c0.418,1.086,0.983,2.571-0.321,3.012c-1.505,0.509-1.753-1.246-1.891-2.247
		c-0.485-3.514-2.648-5.098-5.894-5.751c-7.292-1.466-13.783-5.712-21.368-6.183C317.416,71.685,316.659,70.736,316.314,69.422z"/>
	<path class="st61" d="M405.242,65.466c-7.124-4.617-15.459-6.27-23.15-9.498c-2.404-1.009-4.505,0.027-6.725,0.443
		c-3.544-3.622-4.109-8.596-5.712-13.087c0.802,2.675,1.698,5.284,0.527,8.078c-0.089,0.98-0.177,1.959-0.308,3.403
		c-1.796-4.548-5.95-5.016-9.342-6.229c-7.631-2.728-15.198-5.708-23.141-7.524c-1.757-0.402-3.427-1.242-5.092-1.982
		c-2.664-1.184-4.586-4.608-8.26-2.683c7.715-11.189,17.565-20.403,27.373-29.662c2.997-2.829,5.9-0.392,8.852-0.044
		c3.386,1.626,7.107,1.898,10.699,2.678c9.088,3.342,18.186,6.641,26.84,11.069c16.286,8.332,31.126,18.389,41.343,34.046
		c6.554,10.045,9.394,21.035,7.996,33.028c-0.415-9.038-6.504-11.89-14.164-13.739c-5.391-1.301-10.573-3.592-15.715-5.757
		c-3.068-1.292-4.012,1.486-5.92,2.414c-2.451-2.199-3.539-5.326-5.478-7.988C405.512,63.436,406.151,64.634,405.242,65.466z"/>
	<path class="st62" d="M524.104,83.455c-0.707,1-1.414,2-2.121,2.999c-5.397-2.245-10.899-2.047-16.457-0.729
		c-0.64,0.152-1.513,0.277-1.926-0.149c-3.101-3.192-4.754-0.75-6.458,1.577c-3.287,4.499-5.149,9.781-7.992,14.521
		c-1.623,0.163-2.219-1.233-3.167-2.094c-2.185-1.984-4.315-3.543-6.222,0.333c-0.435,0.884-1.182,1.824-2.307,1.476
		c-1.256-0.389-0.814-1.666-0.794-2.572c0.031-1.467-0.397-2.995,0.397-4.397c0.84-12.455,8.729-20.024,18.666-25.62
		c17.268-9.723,36.236-13.259,55.833-14.19c3.961-0.188,6.016,1.149,7.285,4.973c2.754,8.295,6.77,16.167,8.284,24.88
		c0.566,1.028,0.439,2.45-0.796,1.969c-8.528-3.326-17.105,0.241-25.667-0.35C535,85.693,529.244,86.874,524.104,83.455z"/>
	<path class="st63" d="M524.104,83.455c0.857-1.224,1.564-2.982,3.082-0.482c1.397,2.3,4.065,2.557,6.071,2.163
		c8.357-1.64,16.881,0.332,25.233-1.528c2.523-0.562,5.643-1.01,7.641,2.033c0.337,0.514,0.828-0.594,0.994-1.176
		c3.464,7.075,4.627,14.77,6.02,22.401c0.29,1.591-0.403,3.367,0.906,4.765c0.095,0.135,0.258,0.261,0.277,0.405
		c1.044,8.176,0.847,8.505-6.869,6.445c-3.356-0.896-6.353-0.964-9.621,0.168c-3.582,1.241-7.365,1.865-11.13,2.333
		c-1.352,0.168-3.493,1.244-3.708-1.6c0.241-2.72,0.483-5.44,0.724-8.159c-2.93,5.493-3.918,11.672-6.749,17.144
		c-5.332-5.39-12.403-2.922-18.667-4.03c-2.905-0.514-3.346,3.418-5.829,4.196c-1.301-1.267-1.046-2.624-0.35-4.025
		c1.898-9.309,4.029-18.568,7.085-27.567c1.201-3.538,2.973-6.895,4.657-10.248C524.447,85.545,525.684,84.673,524.104,83.455z"/>
	<path class="st55" d="M318.153,71.472c2.42-0.903,4.577-0.628,7.062,0.417c4.844,2.037,9.861,3.857,14.977,5.001
		c4.934,1.103,7.935,3.089,6.772,8.855c1.453-0.74,0.972-1.716,1.234-2.435c1.575,6.712,1.321,13.644,2.584,20.446
		c0.959,5.166,2.297,10.048,4.278,14.835c-0.613,2.749-1.169,3.118-3.233,1.231c-2.183-1.996-4.823-2.56-7.369-3.642
		c-3.788-1.61-7.424-1.93-11.279-0.736c-2.284-2.531-0.355-6.908-3.894-8.889c-1.943,1.611,1.128,4.682-1.318,5.695
		c-1.935,0.801-3.054-2.162-5.108-2.403c-1.981-0.233-3.775-1.088-5.576-1.955c-3.422-1.648-5.971-3.685-6.723-7.854
		c-0.641-3.554-3.201-3.887-5.615-1.16c-1.444,1.63-1.799,4.404-4.701,4.517c-0.065-0.939-0.13-1.878-0.195-2.817
		c-0.694-5.057-0.661-10.115-0.023-15.174c-0.015-0.881-0.031-1.761-0.047-2.641c1.051-0.817,2.103-1.635,3.154-2.452
		c1.633,1.708,1.497,5.599,5.293,4.632c4.387-1.117,6.52-4.658,8.165-8.47C317.276,74.885,316.557,72.815,318.153,71.472z"/>
	<path class="st64" d="M477.057,94.422c0.109,2.072,0.218,4.144,0.332,6.331c0.573-0.254,0.911-0.318,1.128-0.515
		c1.385-1.252-0.562-4.584,2.504-4.591c3.835-0.008,6.129,2.61,7.884,5.73c0.627,0.307,0.863,0.862,1.049,1.5
		c0.231,0.792-1.168,3.095,1.532,1.737c0.824,2.618,1.89,4.104,5.28,3.183c3.676-0.999,7.423,1.116,11.232,0.958
		c0.479-0.02,0.935,0.272,1.359,0.543c1.359,0.871,1.257,2.228,1.223,3.568c0.284-1.268-0.307-3.372,2.306-2.415
		c-3.556,16.539-9.233,32.327-16.983,47.352c-0.662,1.283-0.555,4.712-3.189,3.116c-2.047-1.24-6.176-1.068-5.035-5.91
		c2.698-11.449,1.354-23.151,1.352-34.761c0-0.274-0.281-0.548-0.558-1.056c-0.794,8.935-1.687,17.639-2.277,26.362
		c-0.195,2.887-0.958,5.506-1.891,8.175c-0.633,1.813-1.258,3.031-3.509,2.163c-1.737-0.67-3.964-0.325-3.769-3.427
		c1.089-17.297-1.492-34.527-1.066-51.815C476.014,98.554,475.504,96.285,477.057,94.422z"/>
	<path class="st65" d="M391.12,110.475c2.965,7.289,3.18,15.176,4.647,22.768c1.313,6.795,0.98,13.903,1.476,20.865
		c0.19,2.671-0.256,4.363-3.482,4.659c-3.942,0.363-7.776,3.742-11.506,2.362c-3.726-1.379-3.561-6.37-5.327-9.655
		c-5.226-9.717-10.723-19.288-15.941-29.009c-1.536-2.863-2.495-6.035-3.719-9.066c1.191-6.213,2.215-6.627,8.393-4.778
		c6.354,1.902,12.657,3.966,18.869,6.243c3.689,1.353,5.63,1.161,5.741-3.207C390.284,111.189,390.737,110.802,391.12,110.475z"/>
	<path class="st66" d="M391.12,110.475c-0.067,7.889-0.057,7.86-7.235,5.431c-6.993-2.367-14.05-4.553-21.001-7.035
		c-4.64-1.657-3.505,3.337-5.615,4.531c-3.885-10.965-5.78-22.282-5.983-33.896c8.61,3.161,17.172,6.461,25.857,9.4
		c2.724,0.922,5.131,1.739,6.91,4.229c1.033,1.447,0.83-0.439,1.165-0.851C388.124,98.042,389.775,104.209,391.12,110.475z"/>
	<path class="st24" d="M393.18,104.467c4.788-1.861,8.861,1.184,13.222,2.051c5.995,1.191,11.191,3.872,13.742,9.988
		c0.728,9.932-2.957,19.265-3.942,28.966c-0.066,0.651-0.555,1.296-0.504,1.916c0.595,7.197-3.453,8.619-9.631,8.577
		c-2.618-0.018-3.554-0.272-3.883-2.83c-2.025-15.744-3.966-31.508-8.935-46.693C393.053,105.84,393.196,105.127,393.18,104.467z"/>
	<path class="st31" d="M451.113,93.494c1.663,17.11,7.445,32.304,20.25,45.433c1.823-6.415-0.438-11.415-0.113-16.48
		c3.076,5.074,1.696,10.642,1.63,16.025c-0.02,1.625-1.099,3.168-3.292,2.947c-9.183-0.923-18.354-2.016-27.557-2.673
		c-4.788-0.342-4.441-3.043-3.413-6.104c1.931-5.75,4.195-11.391,6.252-17.094C447.484,108.302,449.528,100.986,451.113,93.494z"/>
	<path class="st13" d="M512.886,110.451c-2.1,0.009-1.351,2.276-2.519,3.233c-0.379-2.906-1.158-4.182-4.758-3.798
		c-4.143,0.442-8.178-1.583-12.828,0.041c-2.576,0.9-0.977-3.565-1.699-5.474c-1.871-5.439,2.084-9.243,3.911-13.616
		c0.598-1.43,2.359-2.45,1.124-4.332c0.569-2.85,3.529-3.143,5.22-4.8c0.537-0.526,2.179-0.223,2.16,0.367
		c-0.167,5.152,3.116,2.099,4.674,1.801c3.47-0.664,6.962,0.111,10.345-0.464c2.838-0.483,1.414,3.112,3.467,3.045
		C517.765,94.004,515.196,102.178,512.886,110.451z"/>
	<path class="st67" d="M423.33,106.497c2.845,1.852,1.549,4.752,1.77,7.236c0.166,1.876,0.033,3.779,0.274,5.666
		c1.454-7.819,1.377-7.58,9.275-5.034c2.935,0.946,3.144,3.364,4.533,5.169c-3.318,10.511-6.461,21.082-10.054,31.498
		c-1.214,3.519-5.171,2.773-7.821,2.502c-2.131-0.218-1.165-3.054-0.901-4.592C422.818,134.886,423.962,120.757,423.33,106.497z"/>
	<path class="st11" d="M212.845,152.2c-3.887-4.739-7.848-9.42-11.641-14.234c-3.83-4.861-2.837-11.449,2.018-14.954
		c1.565-1.13,2.79-1.425,4.26,0.251c1.338,1.526,1.716,2.461-0.167,3.951c-3.57,2.826-2.765,5.873-0.065,8.979
		c2.718,3.128,4.97,6.696,7.897,9.596c2.681,2.656,1.464,4.193-0.697,5.938C213.919,151.884,213.382,152.042,212.845,152.2z"/>
	<path class="st22" d="M532.323,137.709c-4.117-1.091-5.938,0.843-6.084,4.752c-0.074,1.985-0.645,3.163-2.914,2.997
		c-2.583-0.188-2.08-2.075-2.197-3.666c-0.298-4.05,1.053-7.714,4.908-8.871c2.474-0.742,6.239-2.478,8.239,1.616
		C534.076,135.872,534.115,137.354,532.323,137.709z"/>
	<path class="st16" d="M300.026,85.403c0.008,5.058,0.016,10.116,0.023,15.174C298.409,95.522,298.398,90.464,300.026,85.403z"/>
	<path class="st24" d="M419.945,104.487c-3.28-2.457-1.323-5.976-1.823-8.997C419.5,98.333,420.353,101.282,419.945,104.487z"/>
	<path class="st12" d="M268.401,90.626c1.109,1.431,2.292,2.811,3.312,4.301c3.467,5.064,0.708,12.786-5.035,14.279
		c-1.967,0.511-2.538-1.155-3.492-2.159c-1.267-1.333-0.609-2.377,0.721-3.179c3.754-2.265,4.02-4.957,0.815-7.862
		c-2.9-2.629-0.259-3.87,1.19-5.45C266.741,90.581,267.571,90.604,268.401,90.626z"/>
	<path class="st55" d="M318.153,71.472c1.119,5.485-1.904,9.168-5.318,12.844c-2.257,2.43-4.932,2.716-7.646,1.922
		c-3.014-0.881-1.832-3.769-2.055-5.927c0.412-1.897-0.804-3.077-1.976-4.179c-1.978-1.859,3.32-5.259,5.844-4.64
		c3.567,0.875,6.692,0.834,9.312-2.068C317.522,69.571,318.068,70.315,318.153,71.472z"/>
	<path class="st11" d="M232.763,119.461c3.783,2.837,6.98,6.15,5.066,11.301c-2.052,5.525-6.78,8.454-11.987,10.577
		c-1.479,0.603-2.433-0.115-2.908-1.758c-0.464-1.602-0.741-2.837,1.195-3.629c2.479-1.014,4.753-2.371,6.612-4.375
		c1.384-1.493,2.149-3.11,0.806-4.894c-1.32-1.754-2.977-0.882-4.5-0.147c-1.2,0.579-2.379,1.198-3.566,1.804
		c-3.825,1.952-7.496,1.969-10.39-1.515c-2.746-3.306-3.109-6.899-0.088-10.386c2.141,0.07,4.283,0.139,6.425,0.209
		c0.451,1.576-1.625,3.358-0.011,4.645c1.723,1.374,3.474-0.109,5.013-0.904c2.607-1.346,5.201-2.03,8.046-0.916L232.763,119.461z"
		/>
	<path class="st68" d="M232.477,119.473c-3.101-0.063-5.834,1.08-8.511,2.501c-2.018,1.071-4.43,2.916-6.332,0.713
		c-1.971-2.283,0.405-4.229,1.792-6.04c0.624-0.109,1.245-0.218,1.867-0.328C225.137,116.962,229.023,117.453,232.477,119.473z"/>
	<path class="st69" d="M370.181,51.401c-0.913-2.847-1.64-5.714-0.75-9.816c3.263,5.038,4.296,10.067,5.935,14.826
		c0.233,3.223,3.266,5.7,1.616,9.641C374.715,61.169,372.448,56.285,370.181,51.401z"/>
	<path class="st70" d="M405.242,65.466c0.774-2.189-2.847-3.304-1.221-6.163c3.73,3.056,6.16,6.639,7.321,11.117
		c-0.878,3.51,2.038,6.374,1.535,9.933c-2.606-2.927-3.677-6.542-4.829-10.124C407.473,68.439,407.639,66.19,405.242,65.466z"/>
	<path class="st71" d="M255.907,138.172c6.196,1.383,10.01,4.322,12.299,9.505C264.281,144.222,259.87,141.44,255.907,138.172z"/>
	<path class="st72" d="M496.117,86.506c3.266-0.012,2.056,1.708,1.089,3.073c-3.188,4.499-5.129,9.486-6.124,14.875
		c-1.339,0.774-0.175,3.037-2.176,3.583c0-2.285,0-4.472-0.001-6.659C489.959,95.765,493.135,91.182,496.117,86.506z"/>
	<path class="st14" d="M534.572,157.497c-1.497-0.415-4.138,1.074-4.402-2.24c-0.259-3.263,2.164-2.85,4.069-2.733
		c3.452,0.212,2.914-2.621,3.445-4.449c0.575-1.977,0.681-4.139,3.605-3.498c2.758,0.605,1.788,2.908,1.719,4.505
		C542.765,154.737,539.951,157.493,534.572,157.497z"/>
	<path class="st56" d="M304.865,55.485c0,0-11.491,16.628-10.497,34.942c0,0,2.292,4.934,4.444,0.131s6.17-27.768,13.735-38.043
		C320.113,42.24,304.865,55.485,304.865,55.485z"/>
	<path class="st1" d="M265.788,85.403c0,0,24.91,4.604,26.417,6.945c1.508,2.341-7.008,2.375-7.008,2.375l-13.215-4.084l-6.07-0.083
		L265.788,85.403z"/>
	<path class="st12" d="M270.16,89.29c0,0,20.107,5.812,20.23,7.406c0.123,1.594-24.363,6.969-24.363,6.969l0.1-11.871
		C266.127,91.794,265.407,89.69,270.16,89.29z"/>
	<path class="st9" d="M193.57,385.311c-10.512-3.402-20.354-8.382-30.365-12.955c-8.196-3.744-16.32-7.649-24.469-11.496
		c-0.057-0.027-0.075-0.264-0.026-0.361c0.071-0.142,0.219-0.246,0.334-0.366c4.046-0.413,7.584-2.042,10.018-5.262
		c1.269-1.679,3.196-1.467,4.552-2.575c6.871-7.778,12.971-1.998,18.955,1.309c15.815,8.742,32.211,16.188,49.061,22.663
		c1.946,0.748,4.957,0.822,5.386,2.698c0.518,2.265-2.768,2.723-4.819,4.293c1.062,0.181,1.698,0.467,1.87,0.293
		c4.913-4.951,10.25-3.005,15.627-1.067c15.627,5.633,31.726,9.551,47.965,12.879c3.254,0.667,5.395,1.761,5.876,5.176
		c1.27,6.185,0.165,7.642-5.844,6.965c-5.58-0.629-11.036-2.008-16.443-3.507c-0.129-0.089-0.289-0.166-0.392-0.291
		c-1.243-1.521,0.01-2.6,0.68-3.781c-1.808,1.504-4.196,0.291-6.101,1.295c-2.516,1.326-5.125,1.107-7.786,0.609
		c-16.49-3.082-32.834-6.791-48.909-11.6c-2.383-0.713-4.971-0.599-7.185-1.898l0.031,0.01
		C198.989,387.135,196.174,386.501,193.57,385.311z"/>
	<path class="st73" d="M589.581,370.446c7.605-1.038,14.25-4.717,21.15-7.691c15.002-6.467,29.999-12.944,44.998-19.417
		c-7.754,7.654-16.767,13.768-25.314,20.431c-17.027,13.272-35.17,24.932-53.889,35.665c-6.001,3.441-12.324,6.327-18.534,9.395
		c-2.357,1.165-4.924,0.331-7.391,0.469c-4.204-1.973-7.943-4.473-10.097-8.767c2.238,4.221,5.733,6.994,10.17,8.682
		c-0.268,1.037,1.378,2.281-0.918,3.14c-12.2,4.561-24.559,8.568-38.458,12.01c12.722-11.052,21.751-23.501,29.131-37.204
		c10.971-3.264,21.826-6.861,32.408-11.243c1.574-0.652,3.171-0.979,4.862-0.908c3.555,0.771,6.666,2.718,10.002,4.044
		c4.064,1.615,7.868,1.048,10.344,0.994c-5.583,1.351-11.782-0.721-17.53-4.761c0.084-2.831,4.401-2.303,4.242-5.334
		c0.7-0.301,1.337-0.192,1.917,0.29l-0.044-0.031c0.553,0.618,1.342,0.857,2.034,1.247c0.497,0.28,0.923,0.766,1.586,0.655
		C590.053,371.546,589.397,371.164,589.581,370.446z"/>
	<path class="st74" d="M298.756,400.222c7.914-4.489,16.286-2.14,24.5-1.478c1.769,0.143,3.558,0.489,5.363,0.518
		c1.82-1.377,3.456-0.281,5.036,0.479c1.939,0.934,3.896,1.732,6.042,2.014c5.99,0.787,7.902-0.805,8.815-6.864
		c0.335-2.225-0.306-4.638,1.131-6.676c5.803,7.034,6.613,15.332,6.072,23.972c-3.331,10.034-8.797,18.676-16.792,25.65
		c-1.178,1.027-2.215,2.676-4.212,1.515c-0.484-0.479-0.841-1.042-0.863-1.739c-0.057-1.817,0.308-3.964-2.518-3.889
		c-2.497,0.066-4.501,1.173-5.677,3.453c-0.503,0.976-0.292,1.968,0.545,2.719c1,0.898,2.117,0.809,3.252,0.252
		c1.832-0.899,3.617-2.948,5.606-0.228c-0.328,3.933-3.951,4.603-6.418,6.262c-7.48,5.031-15.821,7.5-24.847,7.442
		c-7.603-0.049-10.745-3.999-9.309-11.509c2.661-6.186,7.182-11.02,11.702-15.812c2.812-2.981,5.219-6.198,7.707-10.498
		c-7.628,5.378-8.844-1.253-11.046-5.095C301,407.487,299.365,404.01,298.756,400.222z"/>
	<path class="st75" d="M421.706,413.19c3.939,5.468,7.195,11.436,11.92,16.326c1.785,1.848,2.123,2.859-1.099,3.066
		c-15.273,0.984-30.554,0.923-45.818,0.117c-9.104-0.481-18.224-1.103-27.776-2.754c4.301-7.939,4.34-16.433,3.683-25.018
		c-0.055-0.716,0.284-1.254,1.047-1.424c0.463,0.484,0.836,1.022,0.99,1.685c1.644,7.036,1.673,6.835,9.098,7.925
		c5.277,0.775,10.538,0.776,15.819,0.723c5.337-0.054,5.42-0.22,4.733-5.511c-0.107-0.828-0.162-1.646,0.57-2.264
		c1.748-1.715-0.846-7.12,4.738-5.575c-0.428,2.21-1.257,4.278-0.378,6.697c2.252,6.196,3.046,6.732,9.673,6.032
		C413.157,412.766,417.438,412.664,421.706,413.19z"/>
	<path class="st7" d="M349.643,388.215c1.565,3.58,0.101,7.175-0.271,10.672c-0.292,2.744-2.686,4.072-5.738,4.488
		c-5.696,0.776-9.988-2.87-15.015-4.113c-1.58-2.516-4.582-3.019-6.768-4.753c-7.284-5.778-13.171-12.277-14.359-21.982
		c-0.611-4.993,2.351-8.532,6.994-7.027c3.821,1.239,7.633,0.807,11.359,1.666c8.89,2.514,14.816,9.01,20.517,15.645
		C347.661,384.322,349.689,385.743,349.643,388.215z"/>
	<path class="st76" d="M562.574,415.205c6.991-3.952,13.942-7.976,21.001-11.803c1.702-0.923,2.715-3.045,5.85-2.904
		c-3.881,5.8-10.304,8.116-15.392,13.885c6.348-2.374,7.867,1.346,9.659,4.908c4.761,9.464,8.52,19.199,10.196,29.773
		c0.651,4.107-0.286,5.872-4.229,6.261c-2.894,0.762-5.895,0.443-8.828,0.889c-2.735,0.416-4.822-0.928-6.431-3.018
		c-4.888-6.349-9.317-12.912-10.424-21.152c-0.442-3.288-1.605-6.437-2.246-9.693C561.249,419.896,560.816,417.412,562.574,415.205z
		"/>
	<path class="st77" d="M334.604,439.282c6.797-3.855,11.057-10.018,15.009-16.467c2.135-3.485,3.237-7.561,6.101-10.627
		c1.276,9.817-4.27,16.939-9.846,23.83c-4.362,5.39-9.888,9.67-15.65,13.56c-4.06,2.741-5.401,6.174-4.057,11.118
		c1.869,6.876,0.37,8.754-5.585,9.609c-3.282,0.471-4.422-1.633-5.852-3.606c-3.752-5.176-4.461-5.251-8.591-0.545
		c-0.548,0.624-0.872,1.446-1.422,2.386c-2.98-2.832-2.438-7.48-6.298-8.099c-3.903-0.626-4.152,4.059-7.11,5.705
		c-3.996-8.849-0.863-16.494,3.181-24.03c0.872,8.644,2.725,10.321,11.13,10.154c10.667-0.212,19.541-5.088,28.062-10.828
		c0.557-0.375,0.647-1.442,0.954-2.187L334.604,439.282z"/>
	<path class="st9" d="M584.587,370.432c2.687,5.344-2.574,2.665-3.947,3.91c-0.15,0.067-0.334,0.228-0.444,0.187
		c-1.62-0.606-3.019-0.952-2.247,1.663c-4.61-0.218-8.169,2.864-12.39,4.009c-7.494,2.034-14.728,5.029-22.061,7.649
		c-1.213,0.434-2.251,0.445-3.071-0.693c3.265-7.159,6.49-14.338,7.221-22.31c0.156-1.705,1.53-2.09,2.623-2.662
		c5.337-2.792,10.741-5.454,16.095-8.214c3.573-1.841,3.97,1.595,4.794,3.241c2.179,4.352,5.083,7.832,9.399,10.102
		C582.107,368.089,584.055,368.345,584.587,370.432z"/>
	<path class="st78" d="M562.574,415.205c1.168,12.902,3.385,25.39,11.859,35.965c2.311,2.884,4.536,4.54,8.269,4.171
		c2.297-0.227,4.637-0.026,6.957-0.016c-8.708,2.963-17.687,2.184-26.553,1.452c-3.39-0.28-6.967-0.137-10.3-1.507
		c-2.046-0.842-3.736-1.803-3.216-4.261c0.851-4.026,0.296-8.379,2.309-12.093c1.599-2.951,1.013-4.778-1.619-6.675
		c-2.272-1.638-4.069-3.913-6.728-5.084c-1.302-0.574-2.2-1.692-2.267-3.073c-0.093-1.92,1.758-1.792,2.896-2.047
		C550.63,420.591,555.954,416.151,562.574,415.205z"/>
	<path class="st79" d="M394.904,439.273c6.664-0.34,14.678,1.794,22.829,0.886c3.023-0.337,1.805,1.511,0.783,2.558
		c-2.062,2.115-1.936,3.959-0.668,6.644c2.83,5.992,0.618,9.847-5.865,11.277c-5.907,1.303-11.88,0.552-17.822,0.475
		c-1.922-0.025-3.154-1.081-3.624-3.339c-1.031-4.959-1.905-10.084-7.186-12.829c-1.518-0.789-0.781-2.722-0.574-4.133
		c0.221-1.506,1.547-1.52,2.717-1.531C388.149,439.256,390.803,439.273,394.904,439.273z"/>
	<path class="st80" d="M153.615,352.296c-4.025,4.157-7.548,9.246-14.569,7.837c0.973-0.464,1.948-0.928,3.511-1.672
		c-3.631-0.787-6.8,0.599-9.684-0.687c-1.161-0.517-2.75-1.192-3.093-2.165c-0.511-1.452,1.332-2.059,2.342-2.794
		c2.673-1.946,4.84-4.216,5.557-7.896c-5.361,5.773-11.691,8.994-20.541,8.449c5.533-4.286,10.099-8.449,13.401-13.738
		c0.966-1.548,2.224-1.142,3.481-0.968c7.239,0.999,14.154,3.089,20.875,5.97c3.506,1.503,3.821,2.753,0.311,4.573
		c-1.157,0.6-2.65,1.226-3.147,2.248C151.477,352.647,153.114,351.885,153.615,352.296z"/>
	<path class="st9" d="M394.873,406.061c0.22,0.793,0.372,1.612,0.669,2.375c2.436,6.255,2.023,6.61-5.112,6.859
		c-7.635,0.266-15.173-0.945-22.771-1.021c-2.697-0.027-3.99-1.033-3.899-3.817c0.076-2.314-0.057-4.635-0.098-6.953
		c8.735-0.212,17.477-0.503,26.121-1.833C393.56,401.089,395.001,402.481,394.873,406.061z"/>
	<path class="st81" d="M499.574,472.19c0.626-4.664,3.368-8.637,3.241-13.74c-0.215-8.603-2.896-16.264-6.159-23.969
		c-0.877-2.072-3.088-1.729-3.972-3.319c4.988-1.689,8.347-1.09,11.129,4.473c4.05,8.098,7.283,16.473,10.267,24.932
		c2.751,7.799,0.166,10.612-9.515,11.632C502.92,472.372,501.239,472.202,499.574,472.19z"/>
	<path class="st82" d="M270.799,403.21c5.509-0.05,10.656,1.914,15.985,2.866c6.136,1.097,6.883,0.475,6.75-5.537
		c2.699,6.073,2.519,13.286,7.328,18.952c-15.839-2.474-31.102-6.739-46.495-11.882c1.346-1.936,2.715-1.32,3.895-1.432
		c0.264-0.197,0.543-0.662,0.706-0.633C263.22,406.282,266.735,403.341,270.799,403.21z"/>
	<path class="st83" d="M270.799,403.21c-1.504-0.036-2.08,1.716-3.213,1.908c-2.135,0.361-4.224,4.396-6.649,0.306
		c-0.121-0.205-1.746,0.482-2.673,0.754c0.025-1.554-1.132-1.598-2.016-1.22c-6.474,2.769-12.378-0.121-18.176-2.108
		c-11.209-3.842-22.236-8.214-33.336-12.373c-1.226-0.459-2.591-0.734-3.181-2.145c6.527-0.892,12.292,2.3,18.336,3.716
		c13.503,3.165,26.969,6.471,40.607,9.021c0.643,0.12,1.639,0.359,1.93,0.044c3.014-3.263,8.141-0.077,11.157-4.905
		C274.074,400.061,271.203,401.075,270.799,403.21z"/>
	<path class="st84" d="M421.706,413.19c-6.221,1.877-12.778,1.84-19.019,1.544c-3.31-0.157-3.79-5.706-5.229-9.052
		c-1.221-2.839-0.375-4.214,2.154-5.197c1.159-0.079,2.363-0.396,3.471-0.194c4.545,0.83,9.745-4.322,13.388,0.199
		C419.225,403.911,420.032,408.9,421.706,413.19z"/>
	<path class="st85" d="M465.309,474.334c-2.048-0.908-6.323,0.421-6.529-3.106c-0.222-3.801,1.302-7.871,4.651-10.445
		c1.545-1.188,2.475,0.758,2.848,1.753c1.036,2.758,1.658,5.668,2.515,8.496C469.691,473.99,468.061,474.487,465.309,474.334z"/>
	<path class="st86" d="M297.539,475.242c-2.019-0.472-4.984,0.826-4.967-3.065c0.013-3.06,4.245-10.951,5.54-10.147
		c3.653,2.267,3.529,6.367,4.016,10.059C302.655,476.092,299.485,474.78,297.539,475.242z"/>
	<path class="st87" d="M384.405,461.391c-1.464-0.874-4.986,0.202-5.229-2.558c-0.33-3.747,0.851-7.618,3.801-10.304
		c1.165-1.061,2.314-0.002,2.714,1.618c0.67,2.711,1.52,5.377,2.291,8.063C388.805,461.075,387.358,461.762,384.405,461.391z"/>
	<path class="st88" d="M477.508,475.414c-1.959-0.834-5.499,1.588-5.139-3.136c0.268-3.508,1.773-7.782,4.553-7.629
		c3.634,0.199,4.577,4.87,4.941,8.395C482.286,477.142,478.816,474.343,477.508,475.414z"/>
	<path class="st89" d="M309.586,475.191c-2.079-0.1-4.671,0.589-4.041-2.737c0.605-3.192,1.445-7.7,4.784-7.659
		c3.653,0.045,4.154,5.069,4.479,7.963C315.168,475.953,311.451,474.761,309.586,475.191z"/>
	<path class="st90" d="M287.14,463.213c3.371,2.304,2.399,5.294,2.949,7.757c0.337,1.506-0.399,2.833-2.133,2.472
		c-1.575-0.328-4.046-0.388-3.454-3.009C285.036,468.07,286.154,465.839,287.14,463.213z"/>
	<path class="st74" d="M295.559,375.29c2.123,0.845,2.08,2.671,2.064,4.505c-0.043,4.893-0.067,9.786-0.099,14.681
		C294.784,388.295,296.045,381.703,295.559,375.29z"/>
	<path class="st7" d="M292.668,373.28c1.228,0.033,1.903,0.633,1.934,1.89c-3.19,2.068-0.955,5.608-2.527,8.836
		C290.02,379.935,290.428,376.581,292.668,373.28z"/>
	<path class="st91" d="M584.587,370.432c-1.506-0.828-3.196-1.418-4.028-3.116c0.331-0.317,0.662-0.633,0.993-0.95
		c1.822,1.139,4.126,1.64,5.119,3.875C585.977,370.305,585.282,370.368,584.587,370.432z"/>
	<path class="st83" d="M193.57,385.311c2.968,0.228,5.845,0.696,8.016,3.031C198.452,388.555,195.897,387.234,193.57,385.311z"/>
	<path class="st92" d="M472.375,360.791c-2.259,6.436-5.915,13.741-13.137,18.544c-2.116,1.407-4.188,3.445-7.191,2.933
		c-0.974-0.166-2.063-0.01-2.93-0.39c-5.016-2.194-7.488-15.036-3.081-18.214c6.529-4.709,13.52-8.886,22.172-8.471
		C470.95,355.326,472.818,355.991,472.375,360.791z"/>
	<path class="st92" d="M427.621,371.567c-0.829-3.566,1.846-6.246,3.685-9.069c1.208-1.855,3.399-1.784,5.203-0.26
		c4.187,3.536,5.517,13.331,2.462,17.967c-1.907,2.893-6.694,2.951-8.865,0.106C428.391,378.065,427.636,375.518,427.621,371.567z"
		/>
	<path class="st93" d="M190.636,349.242c-0.003-0.167-0.041-0.341-0.004-0.498c0.65-2.816-1.912-6.692,2.335-8.295
		c4.487-1.694,9.872,0.271,12.579,4.195c0.367,0.532,0.688,1.097,1.03,1.646c0.078,7.942-4.469,10.03-12.429,5.631
		C192.873,351.216,191.801,350.144,190.636,349.242z"/>
	<path class="st7" d="M249.491,363.815c0.657-2.419,1.144-4.214,1.717-6.32C252.592,360.443,252.592,360.443,249.491,363.815z"/>
	<path class="st91" d="M589.581,370.446c0.629,1.493,3.07,0.401,3.458,2.594c-2.923,0.672-5.12,0.023-6.411-2.83
		C587.612,370.288,588.597,370.367,589.581,370.446z"/>
	<path class="st94" d="M577.949,376.192c-0.052-2.479-3.684-2.773-3.34-5.944c2.667,0.567,3.701,3.404,6.03,4.094
		c6.115,3.822,12.765,5.644,20.013,5.313C592.386,382.919,585.12,379.865,577.949,376.192z"/>
	<path class="st1" d="M550.673,409.212c-6.817-0.462-9.246-5.669-11.593-10.962c3.053,4.521,7.186,7.891,11.52,11.047
		L550.673,409.212z"/>
	<path class="st77" d="M334.631,439.255c-1.82-0.141-2.982,0.761-4.258,2.039c-1.846,1.847-3.997,1.271-5.661-0.542
		c-1.628-1.774-1.359-3.623,0.258-5.317c0.459-0.481,0.914-0.981,1.441-1.377c2.261-1.698,4.9-2.574,7.484-1.394
		c3.533,1.613,0.092,4.427,0.709,6.618L334.631,439.255z"/>
	<path class="st95" d="M316.279,415.512c0.039-3.694,2.971-3.53,4.594-4.573c1.897-1.219,4.328-0.915,5.569-3.908
		c0.983-2.371,6.511-0.197,8.48,3.294C328.387,410.463,322.635,413.844,316.279,415.512z"/>
</g>
</svg>