<!-- Generator: Adobe Illustrator 21.0.0, SVG Export Plug-In  -->
<svg version="1.1"
	 xmlns="http://www.w3.org/2000/svg" xmlns:xlink="http://www.w3.org/1999/xlink" xmlns:a="http://ns.adobe.com/AdobeSVGViewerExtensions/3.0/"
	 x="0px" y="0px" width="714.714px" height="522.46px" viewBox="0 0 714.714 522.46"
	 style="enable-background:new 0 0 714.714 522.46;" xml:space="preserve">
<style type="text/css">
	.st0{fill:#1E0B05;}
	.st1{fill:#8D837E;}
	.st2{fill:#9C9591;}
	.st3{fill:#574A46;}
	.st4{fill:#261713;}
	.st5{fill:#C73D7E;}
	.st6{fill:#C73D7D;}
	.st7{fill:#FDD050;}
	.st8{fill:#EFAF37;}
	.st9{fill:#8C2564;}
	.st10{fill:#A93577;}
	.st11{fill:#7A205E;}
	.st12{fill:#A53476;}
	.st13{fill:#FAD150;}
	.st14{fill:#D95694;}
	.st15{fill:#A83576;}
	.st16{fill:#C6811D;}
	.st17{fill:#BF3B7B;}
	.st18{fill:#D55493;}
	.st19{fill:#711E5D;}
	.st20{fill:#DE5B99;}
	.st21{fill:#ECDEBF;}
	.st22{fill:#E9D7AF;}
	.st23{fill:#D79F2D;}
	.st24{fill:#DE5A98;}
	.st25{fill:#EEDEBC;}
	.st26{fill:#EEDEBD;}
	.st27{fill:#4D114B;}
	.st28{fill:#E9D8B5;}
	.st29{fill:#DE5A99;}
	.st30{fill:#EDDDBA;}
	.st31{fill:#EADBBA;}
	.st32{fill:#E9D7B1;}
	.st33{fill:#EADBBC;}
	.st34{fill:#E7D6B0;}
	.st35{fill:#882050;}
	.st36{fill:#CC5796;}
	.st37{fill:#92265E;}
	.st38{fill:#574334;}
	.st39{fill:#AD3369;}
	.st40{fill:#F8F9F8;}
	.st41{fill:#D25392;}
	.st42{fill:#D95594;}
	.st43{fill:#AA2964;}
	.st44{fill:#DA5896;}
	.st45{fill:#2E1016;}
	.st46{fill:#4D1927;}
	.st47{fill:#511A2B;}
	.st48{fill:#4C1829;}
	.st49{fill:#551B2D;}
	.st50{fill:#471725;}
	.st51{fill:#581C30;}
	.st52{fill:#531A2D;}
	.st53{fill:#4E182A;}
	.st54{fill:#50192C;}
	.st55{fill:#B33879;}
	.st56{fill:#200D0B;}
	.st57{fill:#9A2159;}
	.st58{fill:#9E255C;}
	.st59{fill:#972157;}
	.st60{fill:#523C17;}
	.st61{fill:#423012;}
	.st62{fill:#3C2C11;}
	.st63{fill:#4A3615;}
	.st64{fill:#5B411A;}
	.st65{fill:#5B3B13;}
	.st66{fill:#7E561A;}
	.st67{fill:#785219;}
	.st68{fill:#5A3A11;}
	.st69{fill:#3B131F;}
	.st70{fill:#441527;}
	.st71{fill:#7C2E4C;}
	.st72{fill:#4C1D2E;}
	.st73{fill:#5C2334;}
	.st74{fill:#4D1D2C;}
	.st75{fill:#7E314F;}
	.st76{fill:#61253A;}
	.st77{fill:#9A2662;}
	.st78{fill:#E8D4AC;}
	.st79{fill:#E7D8B6;}
	.st80{fill:#F9F9F8;}
	.st81{fill:#EFE1C1;}
	.st82{fill:#C53C7C;}
	.st83{fill:#DB5795;}
	.st84{fill:#EEE1C2;}
	.st85{fill:#992058;}
	.st86{fill:#200B05;}
	.st87{fill:#8E205C;}
	.st88{fill:#551B2E;}
	.st89{fill:#3E1520;}
	.st90{fill:#DD5A98;}
</style>
<defs>
</defs>
<path class="st0" d="M98.895,519.795c-3.553,0.432-6.351-1.761-9.268-3.057c-9.415-4.181-20.234-4.919-28.501-11.95
	c-6.653-5.658-10.749-12.797-11.082-21.304c-0.676-17.301,0.659-34.581,2.848-51.742c1.385-10.855,9.599-18.51,20.413-19.627
	c2.584-0.267,2.007-1.263,1.77-2.834c-0.703-4.662-3.096-8.522-5.396-12.513c-8.497-14.743-13.533-30.67-17.055-47.316
	c-3.453-16.318-2.703-32.806-3.649-49.21c-0.803-13.91-3.537-27.266-8.426-40.199c-4.688-12.402-7.166-25.366-8-38.38
	c-1.221-19.059-1.851-38.188,1.558-57.269c1.569-8.78,3.143-18.12-2.107-26.643c-2.839-4.608-6.814-7.471-12.213-8.063
	c-4.795-0.526-9.627-0.71-14.421-1.241c-5.509-0.61-6.812-3.398-3.741-8.074c4.71-7.173,12.207-10.871,19.527-14.353
	c18.578-8.839,37.703-8.112,56.579-1.14c24.486,9.044,45.799,23.09,63.506,42.401c8.932,9.741,15.212,21.353,22.402,32.305
	c2.111,3.216,3.855,3.925,7.558,3.036c9.802-2.355,19.515-0.576,29.025,2.04c10.574,2.908,20.587,7.215,29.741,13.316
	c1.812,1.208,2.957,0.501,4.469-0.365c11.613-6.646,23.921-9.228,37.271-6.781c9.64,1.767,9.984,1.19,12.395-9.512
	c7.465-33.149,22.986-61.619,49.867-82.972c8.916-7.083,15.055-16.135,21.887-24.87c9.377-11.988,20.812-22.23,35.74-26.037
	c9.576-2.442,13.877-8.586,18.455-15.867c6.301-10.021,16.636-14.094,27.603-15.48c14.045-1.775,28.183-1.65,42.051,2.481
	c5.553,1.654,9.386,5.401,12.786,9.421c4.794,5.668,9.739,8.852,17.481,6.325c2.866-0.935,6.303-0.44,9.437-0.144
	c2.961,0.279,4.042-0.664,4.536-3.629c0.958-5.747,2.964-11.232,6.595-15.879c5.593-7.157,15.63-8.645,24.652-3.51
	c2.473,1.408,4.069,1.264,6.546-0.029c14.026-7.316,28.56-9.157,43.516-2.883c2.298,0.964,3.322,0.663,4.594-1.658
	c3.392-6.186,8.886-8.162,15.445-5.309c11.032,4.799,20.525,11.565,26.088,22.735c0.148,0.297,0.435,0.583,0.447,0.882
	c0.435,11.536,10.089,16.547,16.821,23.534c11.068,11.488,19.154,24.242,19.014,40.874c-0.013,1.499,0.295,2.698,1.884,3.058
	c10.955,2.483,15.162,11.002,16.531,20.582c1.422,9.948,4.636,19.304,7.231,28.86c2.604,9.588,1.29,18.859-1.449,27.954
	c-7.203,23.924-23.423,41.14-42.632,56.004c-16.936,13.105-35.851,22.536-56.084,29.197c-18.599,6.123-37.703,10.19-57.109,13.099
	c-18.659,2.797-37.325,4.796-56.181,4.016c-19.361-0.801-38.215-4.333-55.858-12.683c-5.356-2.535-10.475-1.44-15.344,0.172
	c-11.817,3.912-23.682,6.502-36.198,4.827c-2.817-0.377-4.986,0.427-6.746,3.078c-2.681,4.038-6.949,6.493-10.777,9.349
	c-1.201,3.816-0.259,7.73-0.516,11.59c-0.115,1.728,1.259,2.533,2.378,3.468l0.04,0.04c1.879,2.708,1.607,5.181-0.793,7.424
	c-1.652,1.64-3.906,10.059-3.158,11.839c0.423,1.007,1.229,1.681,2.245,1.772c4.41,0.391,4.414,2.8,3.352,6.279
	c-1.537,5.036-1.364,5.103,4.159,5.36c1.849,0.086,3.637,0.449,5.355,1.096c2.977,1.12,5.495,2.229,6.316-2.701
	c0.477-2.861,2.868-1.557,4.086-0.071c2.507,3.058,4.056,2.122,6.005-0.692c2.639-3.81,4.044-4.464,11.032-7.056
	c-2.146-2.189-4.819-2.976-7.321-4.069c-0.991-0.432-2.532-0.64-2.134-2.227c0.396-1.576,1.823-1.892,3.216-1.617
	c3.905,0.771,7.863,1.376,11.176,3.936c1.288,0.995,2.346,2.393,4.334,2.337c-2.288-2.615-5.566-3.634-8.715-4.887
	c-7.904-3.144-15.803-4.346-24.309-1.973c-4.639,1.294-9.657,0.799-12.57-4.344c0.473-2.227-0.134-5.375,3.888-4.575
	c2.624,2.078,5.487,2.493,8.831,2.03c12.573-1.743,24.385,1.054,35.436,6.98c4.52,2.424,7.592,6.187,8.158,11.718
	c0.209,2.038,1.574,3.947,2.348,5.939c2.604,6.702,1.088,13.129-1.778,19.248c-2.26,4.824-3.922,4.69-6.92,0.03
	c-0.439-0.683-1.061-1.247-1.651-1.928c-1.732,2.328-2.444,5.078-4.609,7.106c-2.852,2.672-5.2,1.83-6.19-1.026
	c-2.936-8.473-10.667-11.558-17.035-16.238c-1.572-1.155-2.2-0.563-3.078,0.811c-2.333,3.65-4.329,7.325-3.206,11.894
	c0.197,0.802,0.329,1.661,0.266,2.476c-0.131,1.69,1.314,3.891-0.883,4.938c-1.707,0.814-3.48-0.04-5.155-0.984
	c-11.206-6.315-17.271-15.374-15.517-28.665c0.195-1.474,0.106-2.732-1.515-3.16c-1.376-0.363-2.139-0.01-2.929,1.614
	c-6.364,13.079-15.961,23.116-28.696,30.277c-5.127,2.883-4.911,4.396-0.089,8.031c9.051,6.824,16.465,14.963,20.933,25.594
	c8.098,19.269,2.394,38.696-13.65,51.372c-3.415,2.698-7.201,4.923-12.751,7.056c9.565,2.01,15.916,7.657,23.536,10.904
	c7.839,3.34,13.993,8.947,18.617,16.108c2.9,4.491,2.035,5.919-3.044,6.885c-27.253,5.185-54.764,5.193-82.296,3.914
	c-8.512-0.395-17.237-0.978-24.895-5.636c-5.029-3.059-6.182-6.466-3.814-11.551c1.899-4.077,4.691-7.541,7.922-10.631
	c1.949-1.864,4.461-3.673,1.795-6.512c-2.585-2.753-4.885-6.786-9.853-4.119c-4.81,2.581-9.956,4.24-15.134,5.954
	c-17.108,5.662-34.704,7.357-52.569,7.143c-2.167-0.026-4.027,0.427-5.423,1.872c-11.583,11.996-26.065,17.489-42.316,19.115
	c-0.81,0.081-1.605,0.325-3.067,0.632c10.114,4.849,12.42,13.645,13.342,23.077c0.446,4.563-1.102,5.714-5.578,4.758
	c-3.564-0.761-6.629-3.13-10.395-3.257c-3.296,0.698-1.713,3.363-1.625,4.955c0.213,3.825-1.198,4.359-4.275,2.881
	c-2.717-3.828-1.789-8.589-3.293-12.785c-1.975-5.508-4.961-10.083-9.928-13.126c-3.374-2.067-6.991-2.039-10.221,0.495
	c-3.609,2.832-5.148,8.851-4.508,12.305c1.409,7.613,8.285,9.239,13.213,13.031c1.225,1.65,3.553,3.585,2.112,5.386
	c-1.423,1.777-3.845,0.073-5.695-0.876l-0.001,0c-1.931-1.221-3.969-2.52-6.307-1.669c-3.999,1.455-5.776-0.292-6.493-3.978
	c-0.814-5.547-2.914-10.506-6.863-14.563c-3.477-3.572-7.836-4.283-11.173-1.933c-3.572,2.516-5.631,8.751-4.163,12.418
	c0.739,1.846,2.174,2.826,3.889,3.593c3.777,1.689,7.465,3.565,11.158,5.439C97.892,514.911,102.359,515.633,98.895,519.795z"/>
<path class="st1" d="M98.895,519.795c2.335-3.746-1.999-3.896-3.117-5.78c2.994-2.444,4.915,1.775,7.865,1.251
	c0.809-2.477-2.5-5.346,0.466-7.615c1.07,2.527,1.873,4.818,5.749,3.426c1.983-0.712,5.032-0.401,6.066,2.706
	c-1.266-0.277-2.55-0.492-3.794-0.847c-1.461-0.418-1.976,0.036-2.243,1.561C108.265,523.757,107.483,524.105,98.895,519.795z"/>
<path class="st1" d="M115.924,513.783c1.75,0.313,3.5,0.625,5.742,1.026c-1.133-1.861-2.038-3.349-2.944-4.837
	c4.841-1.962,8.353,1.127,12.14,3.183c1.191,2.112,3.211,3.84,3.095,6.572C128.153,517.119,121.39,517.417,115.924,513.783z"/>
<path class="st2" d="M134.882,508.839c2.382,0.624,3.754,0.109,3.169-2.737c-0.263-1.278-0.684-2.6-0.571-3.861
	c0.193-2.167,1.125-2.876,2.663-0.723c-2.588,4.024-0.221,8.378-0.751,12.573c-0.295,2.338,0.03,4.517-2.613,5.576
	c0.074-2.988-3.326-3.525-4.155-5.882C133.386,512.14,133.542,510.219,134.882,508.839z"/>
<path class="st3" d="M382.994,297.748c-2.853,0.56-2.422,3.255-3.309,5.092c-2.529-0.281-4.82-0.839-4.772-4.112
	c3.077-1.585,1.436-4.497,1.917-6.812C379.262,293.462,381.517,295.194,382.994,297.748z"/>
<path class="st4" d="M132.805,513.912c2.51,1.1,7.661,0.376,3.974,5.755c-0.941,0.02-1.881,0.04-2.822,0.06
	c-1.381-1.69-3.352-3.082-2.88-5.707C131.611,513.309,132.191,513.337,132.805,513.912z"/>
<path class="st3" d="M376.79,291.877c-1.299-0.027-2.569-0.758-2.6-1.849c-0.126-4.411-1.649-8.936,0.739-13.209
	C375.742,281.814,373.608,287.174,376.79,291.877z"/>
<path class="st5" d="M240.761,285.736c3.298-2.328,7.568,0.029,10.959-2.084c-0.697-2.542-2.765-2.524-4.471-2.478
	c-15.152,0.403-29.262,3.92-40.342,15.049c-10.583,10.63-10.626,21.694,0.049,34.89c2.86,3.536,2.758,5.416-0.461,8.436
	c-6.82,6.4-9.711,15.076-12.42,24.555c-3.496-4.811-6.945-8.64-9.143-13.488c-4.807-10.601-12.875-16.936-24.742-17.832
	c-1.235-0.093-2.655-0.523-4.284,1.477c7.956,1.329,15.498,3.032,19.775,11.706c-5.432-2.493-10.356-4.334-16.243-3.921
	c18.4,7.698,30.108,21.067,35.419,39.968c1.922,4.444-0.758,8.212-1.443,12.064c1.14-1.079,0.37-4.237,3.351-4.213
	c0.071,0.93,0.141,1.859,0.212,2.789c0.019,2.397,1.522,4.541-1.48,7.061c-1.459,1.225-0.338,6.194-1.052,9.412
	c-0.45,2.031-0.438,4.395-3.218,4.908c-1.403-0.925-0.978-2.329-0.928-3.621c0.296-7.655,0.087-15.268-0.483-22.935
	c-0.796-10.706-5.599-19.067-13.363-25.813c-8.631-7.498-18.732-11.962-30.339-12.441c-4.719-0.195-9.323,0.26-13.453,2.901
	c-1.132,0.724-2.354,1.264-3.77,1.01c-5.982-3.475-11.539-7.953-19.183-7.207c-1.776,0.173-3.807-0.562-3.057-3.299
	c4.385-4.231,10.202-4.014,15.622-5.047c3.714-0.227,7.428-0.244,11.139-0.018c2.823,0.732,5.756,0.749,8.612,1.241
	c1.14,0.264,2.072,1.041,3.181,1.373c0.534,0.16,1.518,0.445,1.399-0.56c-0.071-0.598-1.106-0.465-1.74-0.596
	c-9.066-1.653-17.989-4.123-27.408-2.253c-7.175,1.425-13.591,3.959-18.637,9.405c-4.17,0.705-3.595-1.588-1.772-3.444
	c3.263-3.323,1.99-4.669-1.382-6.938c-5.634-3.791-12.667-4.927-17.642-9.926c-2.045-2.054-2.963-0.158-3.605,1.872
	c-0.621,1.965,0.119,5.023-3.437,5.032c-1.965-13.531-1.74-27.214-2.697-40.816c-0.898-12.761-4.527-24.753-8.215-36.798
	c-6.666-21.773-13.126-43.614-12.832-66.676c0.123-9.631,1.962-19.222,1.445-28.892c-0.491-9.186-1.806-18.219-7.723-25.79
	c-2.803-3.587-6.252-6.147-10.893-7.224c-6.33-1.468-12.598-3.042-19.169-2.792c-1.262,0.048-2.816,0.403-3.533-1.154
	c-0.856-1.858,0.775-2.833,1.807-3.657c10.394-8.297,22.046-12.803,35.56-13.516c24.903-1.314,44.871,10.655,64.636,23.041
	c19.967,12.513,33.437,31.119,45.42,50.912c0.51,0.842,1.024,1.696,1.654,2.446c2.364,2.818,2.122,3.992-1.811,5.293
	c-19.494,6.45-34.804,18.535-46.114,35.669c-1.157,1.753-2.353,3.572-1.351,6.645c2.566-3.546,4.58-6.869,7.114-9.731
	c7.905-8.928,18.032-14.909,28.618-19.897c11.84-5.579,24.058-10.477,37.58-9.738c4.939,0.27,9.948,0.533,14.589,2.628
	c-1.725,1.864-3.984,1.335-6.093,1.29c-15.539-0.329-29.915,3.532-43.07,11.851c-1.268,0.802-2.517,1.646-3.575,2.707
	c-1.632,1.636-3.709,3.275-2.602,5.949c1.039,2.511,3.273,3.771,5.96,3.838c6.649,0.165,13.322,0.473,19.947-0.124
	c6.943-0.625,13.939-1.186,20.723-2.853c7.609-1.87,14.614-5.439,21.663-8.745c3.422-1.605,3.202-3.521,0.075-5.921
	c-1.662-1.275-4.771-1.757-3.133-5.096c7.645,1.451,14.058,5.512,21.103,9.713c-10.846,8.642-17.18,19.601-20.965,32.834
	c3.041-0.261,3.205-1.91,3.821-3.224c7.481-15.938,19.549-27.646,35.259-34.867c11.07-5.088,23.152-5.377,35.045-1.32
	c2.64,0.901,1.614,2.596,1.355,3.975c-0.86,4.575-3.24,8.422-7.596,12.482c6.623-1.128,8.998-4.886,10.873-9.218
	c5.29-12.224,8.417-25.122,11.732-37.952c4.642-17.963,13.472-33.605,25.434-47.693c7.986-9.406,16.902-17.822,26.038-26.043
	c0.589-0.53,1.445-0.761,2.656-1.374c-0.905,3.365-2.887,6.35-0.418,10.579c0.699-4.473,1.305-7.884,3.658-10.785
	c2.346-2.892,7.128-0.417,9.022-4.439c-3.255-0.881-5.95,1.556-8.937,0.821c5.612-17.069,28.042-34.949,44.429-37.858
	c-2.872,8.115-6.446,15.407-12.846,21.243c-10.098,9.209-18.387,19.843-23.847,32.506c-7.722,17.91-9.958,36.381-6.03,55.586
	c2.449,11.973,6.415,23.31,12.774,33.786c1.41,2.323,2.315,3.64-2.018,4.707c-15.053,3.707-30.672,6.75-41.178,19.961
	c-5.485,6.897-8.933,15.028-13.365,22.563c-3.852,6.548-8.434,12.281-15.411,15.784c-3.113,1.563-5.999,2.668-8.546-1.414
	c-0.253,29.656-11.587,49.725-31.905,57.089c-3.656-1.441-3.009-3.67-1.121-6.126c5.791-7.56,6.072-8.261,5.646-14.215
	c-1.936-0.221-2.251,1.276-2.913,2.561c-3.396,6.598-9.077,10.838-15.521,13.924c-3.035,1.453-6.641,2.113-9.938-0.168
	c-0.741-0.512-1.741-1.366-2.618-0.282c-0.812,1.004,0.139,1.863,0.648,2.628c3.178,4.774,7.231,9.095,7.72,15.231
	c0.24,2.972,1.62,5.919,0.196,8.92c-2.613,0.806-2.322-1.543-2.876-2.79c-2.089-4.695-2.446-9.997-5.275-14.473
	c-1.892-2.994-4.067-5.659-6.786-7.891c-0.891-0.732-1.865-1.609-3.116-0.848c-1.255,0.763-0.862,1.985-0.652,3.14
	c0.68,3.737,2.635,6.785,5.148,9.516c1.915,2.081,3.871,4.125,5.424,6.501c0.891,1.363,2.136,2.702,0.809,4.484
	c-2.112,1.27-4.381,1.018-6.559,0.412c-2.018-0.562-3.799-0.436-5.502,0.766c-6.586-5.839-11.193-12.894-12.651-21.662
	c-0.582-3.496,1.517-6.341,3.584-8.96c6.292-7.973,14.025-13.818,24.141-16.059c0.195,3.138-2.202,4.122-4.391,5.267
	c-4.073,2.13-8.241,4.127-11.349,7.904c8.393,3.916,27.338-2.029,31.605-9.594c1.575-2.792,0.593-3.964-2.383-4.168
	C244.443,286.949,242.314,287.493,240.761,285.736z"/>
<path class="st6" d="M525.092,60.591c3.832,5.307,7.035,11.217,14.193,12.993c5.562,1.38,10.957,0.195,13.75-3.452
	c-1.596-0.922-3.249-0.269-4.815-0.075c-8.77,1.087-15.6-4.975-17.818-11.457c-4.715-13.774-2.809-27.108,5.034-39.4
	c2.915-4.568,7.092-5.468,12.526-3.421c-1.701,1.816-4.795,1.522-6.295,4.432c7.937-1.166,11.928,3.429,15.278,9.518
	c3.931,7.146,4.89,14.717,4.337,22.67c0.361-5.799,0.332-11.569,0.202-17.34c-0.044-1.963-0.517-4.062,1.521-5.451
	c3.675,3.771,3.88,8.625,4.037,13.425c0.086,2.651-0.194,5.32-0.418,7.972c-0.092,1.093-0.12,2.142,1.141,2.325
	c1.158,0.168,1.035-1.014,1.255-1.739c0.717-2.357,1.411-4.722,2.334-7.82c3.359,3.778,0.849,7.46,0.832,10.992
	c4.62-3.088,5.832-9.961,1.758-15.424c-4.412-5.914-4.197-13.596-8.593-19.384c-1.525-2.007,0.564-3.047,1.977-3.692
	c8.016-3.661,16.367-5.093,25.213-4.054c18.788,2.208,34.133,11.826,48.945,22.526c11.949,8.632,22.853,18.411,30.838,31.002
	c1.82,2.87,3.141,6.056,5.24,10.172c-3.81-1.548-5.563-4.041-8.257-5.046c-4.928-1.837-7.35-0.457-7.519,4.749
	c-0.23,7.099,0.627,14.291-1.902,21.183c-1.745,1.586-3.923,1.522-6.06,1.557c-8.884,0.143-17.772-0.218-26.653,0.228
	c-1.726,0.087-3.298-0.111-4.311-1.742c-2.36-2.546-4.498-5.293-7.73-6.924c-3.268-1.649-5.586-1.018-7.541,2.104
	c-3.452,5.513-3.334,12.056-5.265,18.015c-0.994,3.067-2.239,6.227-2.668,9.491c-0.579,4.418-4.539,4.384-7.346,5.551
	c-1.723,0.716-2.019-1.416-2.527-2.857c-3.419-9.695-7.304-19.163-14.532-26.796c-1.241-1.311-2.436-2.741-3.909-3.737
	c-1.981-1.34-3.801-1.308-5.545,0.957c-4.229,5.493-6.382,11.958-8.54,18.324c-1.109,3.273-2.194,6.567-3.422,9.808
	c-1.549,4.017-4.356,4.984-8.33,3.656c-4.764-1.592-9.749-1.932-14.726-2.198c-2.164-0.116-4.329-0.148-6.264-1.299
	c-2.189-1.599-3.408-4.032-5.117-6.051c-3.315-3.916-6.464-4.081-10.07-0.383c-3.082,3.161-4.588,7.254-6.318,11.211
	c-6.269,4.205-13.056,6.309-20.658,5.116c-5.444-3.615-5.468-9.976-7.366-15.272c-1.443-4.025-2.388-8.305-3.632-12.439
	c-1.514-5.029-4.888-6.209-9.166-3.165c-4.628,3.292-8.708,7.225-11.345,12.401c-1.288,2.528-2.64,5.007-4.773,6.958
	c-1.186,0.683-2.619,1.346-3.592,0.107c-5.189-6.607-10.031-13.407-9.538-22.432c0.263-1.425-0.196-1.814-1.55-1.127
	c-6.662,3.382-9.857,9.14-11.061,16.219c-0.245,1.439-0.173,2.935-0.017,4.508c0.914-1.342,0.968-3.471,3.222-3.321
	c1.836,0.122,2.343,1.667,2.968,3.007c8.724,18.712,26.913,24.285,46.389,22.836c12.951-0.963,25.583-4.149,38.464-5.67
	c5.165-0.045,10.237,1.207,15.403,1.04c1.321,2.656,3.095,4.973,5.31,6.955c-2.143,2.684-5.194,1.797-7.891,1.808
	c-3.359,0.014-4.68,1.293-4.831,4.709c-0.479,10.856-0.111,11.548,10.693,11.306c9.11-0.204,18.299,1.202,27.321-1.114
	c4.375-0.484,8.41,0.838,11.666,3.481c2.608,2.117,4.898,2.73,8.16,2.029c4.86-1.043,5.326-0.521,5.47,4.569
	c0.049,1.728,1.099,1.936,2.209,2.059c11.535,1.276,22.662,5.035,34.393,5.306c6.108,0.141,11.804,3.23,18.066,3.345
	c10.901,0.2,21.353,4.358,32.436,3.603c6.458-0.44,8.26,1.251,9.693,6.841c-1.445,5.363-6.352,7.577-10.271,10.256
	c-7.802,5.334-15.945,10.234-24.69,14.005c-2.043,0.881-3.984,1.685-6.212,0.835c-2.858-1.468-1.671-3.811-0.501-6.396
	c-13.723,0.808-24.697-4.445-35.05-11.485c0.2,0.64-0.264-0.217-0.161-0.021c1.931,3.659,0.721,5.752-3.161,6.416
	c-2.3,0.394-4.713,0.507-6.955-0.114c-17.84-4.937-36.4-4.855-54.469-7.984c-8.324-1.441-16.86-1.23-25.057-3.871
	c-5.006-1.613-10.513-1.417-15.815-1.819c-5.49-0.416-5.737-0.588-6.212-6.888c-8.438,6.51-17.289,2.503-26.007,1.692
	c-2.51-0.233-4.921-0.68-7.229,0.841c-1.708,1.125-3.425,0.65-5.206-0.155c-10.538-4.761-21.921-5.05-33.149-6.047
	c-8.785-0.78-17.409-2.41-25.975-4.421c-1.621-0.381-3.217-0.873-4.891-0.949c-1.952-0.089-4.239-0.708-3.851,2.693
	c0.115,1.01-0.399,2.022-1.597,2.188c-1.331,0.185-2.324-0.615-2.777-1.709c-1.352-3.266-4.238-5.039-6.711-7.226
	c-7.225-11.844-11.919-24.464-11.763-38.561c1.474-20.208,10.558-36.914,25.453-49.902c8.459-7.376,12.987-16.218,16.816-26.182
	c4.154-10.811,8.919-21.42,19.493-27.867c4.376-2.668,9.301-3.764,14.198-4.186c12.552-1.083,25.169-1.978,37.458,2.121
	c-1.049,1.412-2.584,1.44-4.069,1.249c-9.211-1.187-18.385-0.758-26.93,0.436c12.71,3.751,26.147,4.411,39.713,1.505
	c0.31,0.084,0.695,0.078,0.918,0.266c1.892,1.587,3.754,3.208,6.675,5.723c-4.574,0-8.034-0.069-11.49,0.018
	c-3.824,0.096-6.006,1.706-4.988,5.936c-1.889,2.577-1.674,7.703,1.114,10.605c6.608,6.879,14.313,11.955,24.287,12.069
	C508.666,62.541,517.01,63.195,525.092,60.591z"/>
<path class="st7" d="M394.883,255.857c-4.269,0.56-8.216-0.638-12.13-2.143c-4.09-1.573-8.268-1.618-13.878-0.644
	c5.25,2.425,9.281,4.287,13.521,6.245c-3.174,4.558-6.274,8.738-10.79,11.622c-2.891,1.846-3.878,4.199-3.701,7.856
	c0.681,14.092-1.166,27.759-8.714,40.121c-10.478,11.459-23.912,18.059-38.614,21.501c-10.747,2.516-21.816,3.554-33.117,1.423
	c-8.942-1.686-17.572-3.565-24.915-9.092c-4.633-3.488-8.556-7.67-8.692-14.058c5.087-3.283,10.32-6.361,15.231-9.889
	c11.532-8.285,17.905-19.683,19.657-33.736c0.302-2.422,0.827-4.816,1.341-7.748c4.053,3.451,7.497,7.007,13.135,9.087
	c-3.603-5.561-9.772-7.945-12.204-14.01c6.166-3.056,12.209-6.353,17.056-11.643c6.138-6.698,10.125-14.714,14.245-22.521
	c7.579-14.361,20.76-19.246,34.985-23.515c10.661-3.199,17.942-1.294,24.086,8.739c4.082,6.665,10.897,11.656,16.489,17.397
	C400.944,239.671,399.835,247.994,394.883,255.857z"/>
<path class="st8" d="M253.853,318.687c3.984,9.438,10.719,15.325,20.633,18.743c7.499,2.586,15.175,3.564,22.708,4.043
	c11.702,0.743,23.331-1.538,34.337-5.99c9.438-3.818,18.311-8.554,25.272-16.273c0.406-0.45,1.574-0.213,2.387-0.296
	c-3.841,10.312-11.271,17.751-20.087,23.683c-14.993,10.09-31.341,16.396-49.899,15.328c0.21,3.333,2.653,2.708,4.462,2.872
	c11.408,1.035,22.455-0.754,33.879-5.098c-1.863,7.342-5.308,13.119-8.412,18.916c-6.543,12.219-13.998,23.897-23.367,34.224
	c-4.118,4.539-8.443,8.848-13.758,12.02c-15.357,8.621-32.127,11.16-49.407,11.367c-7.911,0.095-15.471-1.793-22.735-4.812
	c-5.288-2.197-5.862-3.472-5.032-9.654l-0.005,0.005c0.988-5.975,0.895-11.952,0.036-17.931l-0.001-0.006
	c-1.025-3.264,0.226-6.914-1.706-10.024c-0.161-3.541-1.3-6.851-2.528-10.113c-5.627-14.959-0.724-27.432,9.059-38.773
	c1.979-2.294,3.523-2.328,5.916,0.047c3.253,3.228,5.862,5.554,4.091,11.151c-1.643,5.195,0.617,10.475,5.848,13.596
	c2.264,1.351,3.568,3.36,4.327,5.82c1.121,3.632,3.935,5.734,7.174,7.096c6.149,2.586,7.019,3.904,6.665,10.643
	c-0.136,2.602-2.258,5.937,1.028,7.65c3.188,1.663,5.898-0.748,8.519-2.499c6.239-4.168,10.294-9.687,11.117-17.322
	c0.194-1.801,0.298-3.828,2.573-4.295c2.28-0.468,2.531,1.874,3.405,3.045c1.46,1.958,2.322,4.349,3.646,6.424
	c2.422,3.797,5.452,4.138,8.122,0.511c4.38-5.95,5.607-12.624,2.972-19.718c-0.637-1.715-1.365-3.345-1.488-5.229
	c-0.542-8.276-7.723-16.233-15.981-18.074c-5.878-1.31-11.851-1.704-17.818-2.075c-3.943-0.245-5.693-1.902-6.245-5.938
	c-1.068-7.809-1.299-7.762,6.146-11.621C251.032,319.444,252.257,318.556,253.853,318.687z"/>
<path class="st9" d="M678.956,189.822c9.51-7.064,16.009-16.55,21.795-26.686c4.071-7.131,5.01-14.563,3.292-22.464
	c3.565,5.744,2.072,11.919,1.086,17.84c-3.67,22.026-17.25,37.856-33.368,51.919c-14.322,12.496-30.506,22.185-47.865,29.711
	c-17.937,7.777-36.63,13.307-55.917,16.825c-16.203,2.956-32.414,5.076-48.956,5.212c-15.832,0.13-31.575-0.22-46.851-4.504
	c-31.743-8.901-60.16-24-83.878-47.189c-11.629-11.369-18.402-25.643-23.573-40.889c-3.408-10.05-5.534-20.146-4.768-30.77
	c0.203-2.811,0.367-5.628,1.794-8.17c2.264,12.624,5.045,25.076,11.89,36.202c0.315,0.512,0.201,1.287,0.288,1.939
	c4.456,3.684,6.748,9.02,10.175,13.492c13.737,17.927,31.653,30.172,51.895,39.515c10.006,4.619,20.35,8.42,31.005,10.866
	c14.519,3.333,29.048,6.746,44.181,6.955c10.299,0.142,20.537,0.577,30.871,0.012c10.723-0.586,20.999-2.905,31.373-5.175
	c8.603-1.883,17.07-4.185,25.545-6.566c10.116-2.842,19.992-6.245,29.618-10.385c3.381-1.454,6.828-2.627,10.332-3.685
	c5.281-0.469,9.464-3.571,13.948-5.903c8.881-4.618,17.301-9.959,24.898-16.521C678.254,190.982,678.564,190.354,678.956,189.822z"
	/>
<path class="st10" d="M106.924,342.907c1.697,3.53,4.866,1.506,7.346,1.842c5.967,0.807,10.786,3.493,14.631,8.052
	c0.28,0.658,0.302,1.382-0.148,1.892c-7.483,8.474-6.09,18.793-5.186,28.593c0.762,8.258,5.5,15.229,10.679,21.691
	c9.191,11.469,21.324,18.962,34.208,25.43c2.867,1.439,6.107,1.722,9.261,1.775c4.362,0.074,7.015-2.442,8.702-6.31
	c1.72-3.943,2.624-8.182,4.514-12.055c3.419-2.018,1.608-5.777,2.767-8.599c1.028-2.502-0.978-6.008,2.905-7.791
	c0.707-0.325,0.28-3.117,0.377-4.771c2.156,5.616,1.458,11.439,1.044,17.186c-0.981,13.607-3.726,26.696-12.181,37.925
	c-6.861,7.753-16.043,10.918-25.76,13.015c-1.81,0.39-3.664,0.44-5.451-0.016c-11.401-2.909-22.916-5.358-33.576-10.722
	c-16.162-8.133-26.261-21.416-33.305-37.595c-3.179-7.302-5.128-15.004-7.907-22.431c-0.987-2.639-0.635-5.557-0.08-8.349
	c-0.209-7.057,3.709-12.509,7.075-18.175c0.5-0.841,1.342-1.712,0.45-2.66c-1.199-1.275-2.05,0.175-2.997,0.607
	c-1.499,0.684-2.202,4.586-4.375,1.911c-2.154-2.652-5-5.924-2.129-9.85c1.349-1.846,3.141-3.368,5.012-5.33
	c-2.553-0.521-4.116,0.712-5.334,2.107c-2.025,2.319-3.094,2.485-3.612-0.918c-0.845-5.547-3.712-10.745-2.87-16.588
	c3.03-1.514,1.946-4.722,2.62-7.079c0.938-3.277,2.197-3.489,4.301-1.444c5.927,5.758,14.177,7.36,20.865,11.815
	c3.26,2.171,3.269,3.329,0.708,5.841c-0.853,0.836-4.1,1.334-1.716,3.854c0.642,3.238-2.417,4.118-3.725,6.487
	c2.165-2.598,4.127-5.104,6.565-7.049C102.357,343.799,103.986,341.322,106.924,342.907z"/>
<path class="st11" d="M79.764,381.669c-0.535,6.481,3.101,11.828,4.767,17.714c1.83,6.465,4.353,12.65,7.341,18.625
	c7.601,15.202,18.75,26.544,34.836,33.069c7.981,3.238,16.206,5.366,24.436,7.509c12.015,3.128,21.874-2.454,31.321-8.907
	c1.084-0.741,1.887-1.91,3.378-1.911c-3.698,7.559-10.674,10.947-17.854,14.13c-15.507,6.872-31.253,8.606-47.989,4.437
	c-7.094-1.767-13.615-4.429-20.299-7.219c3.571,6.481,9.907,9.057,16.19,11.626c0.542,1.772-5.256,0.735-1.511,3.566
	c1.426,1.078,4.298-0.328,4.777,3.018c-6.556-1.649-11.196,1.298-14.695,6.393c-1.702,2.478-2.485,3.495-4.276-0.12
	c-2.632-5.312-7.563-7.028-13.994-6.894c2.936,3.893,8.908,3.836,9.666,9.179c-10.06-2.209-14.148-0.492-19.052,7.875
	c-2.704,1.92-4.824,0.17-6.662-1.377c-7.744-6.517-11.792-15.124-12.631-25.023c-0.723-8.541,0.094-17.112,1.294-25.612
	c-0.121-4.844,0.779-9.35,2.883-13.855c2.337-5.005,6.178-7.38,11.161-7.713c4.224-0.282,8.345,0.206,11.022,4.839
	c1.948,3.372,4.278,7.011,9.191,8.453c-1.951-5.794-5.593-10.116-7.859-15.152c-2.7-6-4.109-12.322-4.946-18.543
	C79.469,393.9,77.363,387.746,79.764,381.669z"/>
<path class="st12" d="M349.981,380.712c3.834,4.05,5.127,9.231,5.86,14.448c2.61,18.554-5.469,31.708-21.266,40.677
	c-5.455,3.097-11.065,5.923-16.629,8.826c-1.081,0.564-1.907,1.236-2.318,2.941c3.837,0,7.553-0.013,11.268,0.004
	c3.342,0.016,6.711,0.028,9.629,1.988c1.185,0.796,3.9,0.824,2.571,3.236c-1.093,1.983-2.71,0.999-4.202-0.076
	c-3.977-2.866-8.534-3.457-13.285-3.015c-0.413,0.038-0.795,0.411-1.879,1.006c3.276,1.287,6.017,2.364,9.302,3.654
	c-7.047,4.753-11.266,10.78-12.353,18.819c-0.246,1.82-1.976,1.467-3.245,1.478c-3.498,0.03-6.997-0.021-10.495-0.039
	c-9.401-3.604-12.903-11.647-14.212-20.532c-0.982-6.663-0.3-13.565-0.152-20.36c0.098-4.487,2.314-8.226,4.219-12.077
	c10.125-9.856,18.494-21.096,26.019-33.002c6.33,6.946,14.997,9.579,23.473,12.38c3.412,1.127,5.765-0.9,6.165-4.621
	c0.485-4.511,0.231-8.966-1.888-13.158c-0.611-1.208-0.774-2.655,0.516-3.632C348.472,378.601,348.986,380.414,349.981,380.712z"/>
<path class="st13" d="M43.378,146.725c1.875,6.71,2.511,13.491,1.961,20.334c-1.812,22.574-0.317,44.939,4.811,66.962
	c2.663,11.436,6.417,22.615,9.557,33.943c2.935,10.587,5.266,21.254,5.273,32.365c0.01,16.162,1.405,32.163,4.507,48.117
	c0.824,4.238,4.518,7.602,3.307,12.265c-0.211,0.814,1.121,0.516,1.353,0.769c2.844,3.082,5.157,6.373,2.457,10.749
	c-1.68,2.722-2.881,5.586-2.916,8.866c-0.007,0.69,0.29,1.811-0.944,1.909c-1.229,0.098-1.499-0.81-1.934-1.802
	c-5.226-11.916-8.555-24.362-10.575-37.183c-2.523-16.012-2.824-32.171-2.903-48.321c-0.062-12.881-3.338-24.942-8.429-36.591
	C38.573,235.46,36.801,210.618,38.7,185.334c0.872-11.609,2.527-23.159,3.829-34.736C42.674,149.31,42.419,147.934,43.378,146.725z"
	/>
<path class="st14" d="M204.963,195.621c-0.227,2.822,2.267,2.789,3.854,3.805c1.633,1.047,3.943,2.044,3.68,4.311
	c-0.248,2.148-2.037,3.357-4.111,4.472c-19.975,10.74-41.574,12.238-63.598,11.611c-3.76-0.107-5.782-2.792-7.247-5.383
	c-1.3-2.3,1.183-4.598,2.771-5.878c7.507-6.049,15.869-10.377,25.338-12.921c9.73-2.615,19.488-3.2,29.417-2.913
	C198.684,192.607,201.918,193.79,204.963,195.621z"/>
<path class="st15" d="M217.817,334.354c0.291-2.089,0.766-4.234,3.553-2.731c2.757,1.487,5.634,1.086,8.505,1.196
	c2.161,0.675,4.184,1.63,6.018,2.97c2.075-2.85,0.404-6.154,1.113-9.171c1.549,3.214,1.79,6.668,1.966,10.159
	c0.196,3.902,2.156,6.052,6.268,6.124c7.599,0.133,15.197-0.166,22.514,2.887c5.424,2.263,7.752,3.895,9.366,8.833
	c-5.413-0.366-9.625,1.916-13.205,6.276c-3.483-6.211-6.899-12.193-15.58-12.036c1.137,1.284,1.865,2.107,2.593,2.93
	c-2.278,1.929-4.842-0.15-7.222,0.514c-1.28,0.357-2.896,0.425-3.245,1.916c-0.391,1.675,1.223,2.153,2.384,2.73
	c1.342,0.667,2.735,1.231,4.164,1.689c5.31,1.702,6.154,1.297,7.841-3.73c3.146,1.983,3.25,5.434,4.329,8.36
	c-1.421,1.116-2.783,0.586-4.037,0.45c-7.143-0.777-12.771,1.483-15.935,8.192c-1.072,2.272-2.239,1.128-2.889,0.28
	c-1.187-1.548-2.737-2.821-3.412-4.828c-0.948-2.817-2.594-5.071-5.207-6.897c-4.703-3.287-4.993-6.622-1.085-11.166
	c2.11-2.453,2.167-4.471-0.294-6.195C222.894,340.707,220.455,337.458,217.817,334.354z"/>
<path class="st16" d="M204.836,417.759c0.306,5.892,2.264,7.067,8.321,9.28c7.73,2.823,15.533,4.229,23.589,3.718
	c11.449-0.726,22.765-2.038,33.718-6.243c3.64-1.397,7.164-4.247,11.546-3.656c-6.474,6.917-14.912,10.876-23.354,14.41
	c-13.316,5.576-27.335,8.79-41.805,9.742c-6.598,0.454-13.108,3.314-19.817,0.72C202.261,437.14,202.962,427.286,204.836,417.759z"
	/>
<path class="st17" d="M374.913,298.729c1.093,1.949,3.237,2.679,4.773,4.112c4.12,3.279,8.888,3.829,13.628,2.277
	c11.239-3.681,20.736,1.903,30.677,5.256c0.436,0.147,0.855,0.568,1.114,0.97c0.844,1.313,4.157,1.931,2.086,3.962
	c-1.28,1.255-3.662,1.199-5.538-1.108c-3.536-4.348-8.704-5.68-14.16-5.849c-0.25-0.008-0.511,0.35-1.124,0.8
	c4.234,2.042,9.208,2.62,12.162,7.228c-7.022,0.634-12.462,3.037-14.977,9.825c-0.757,2.043-2.009,1.742-3.344,0.287
	c-1.431-1.559-3.015-2.978-4.529-4.456c-0.263,0.164-0.721,0.31-0.727,0.473c-0.238,6.526-0.238,6.542-6.755,4.362
	c-3.062-1.024-6.225-1.504-9.336-0.731c-3.399,0.845-3.253-0.919-2.778-3.172c0.205-0.972,0.498-1.926,0.768-2.884
	c0.816-2.894,3.082-6.452-3.012-5.968c-0.815,0.065-1.918-0.755-2.525-1.472c-0.815-0.963-0.671-2.555,0.058-3.272
	C374.416,306.375,368.904,300.62,374.913,298.729z"/>
<path class="st18" d="M349.981,380.712c-1.005,1.209-1.584-1.185-2.47-0.319c-0.915,0.893-0.389,1.834,0.193,2.646
	c3.177,4.436,2.356,9.539,2.106,14.404c-0.203,3.935-3.108,6.115-6.877,5.232c-8.106-1.899-15.509-5.65-22.589-9.99
	c-1.435-0.88-1.456-2.495-1.532-3.997c4.242-7.591,9.453-14.698,12.331-22.971c1.328-3.817,3.02-3.233,5.265-1.323
	C341.872,369.04,346.807,374.151,349.981,380.712z"/>
<path class="st19" d="M292.794,421.689c-3.312,9.361-3.023,19.07-2.914,28.789c0.107,9.598,4.027,17.1,11.724,22.728
	c0.521,0.381,0.894,0.964,1.335,1.453c-10.059,1.042-19.8-1.083-29.496-3.205c-6.406-1.402-7.291-5.119-2.689-9.839
	c0.688-0.706,1.467-1.335,2.259-1.926c9.294-6.946,8.382-10.83,1.447-20.132c-1.801-2.416-2.457-2.726,0.476-4.632
	C281.138,430.896,286.87,426.144,292.794,421.689z"/>
<path class="st20" d="M525.092,60.591c-0.935,0.646-1.801,1.706-2.816,1.876c-16.119,2.71-31.784,3.385-45.133-8.787
	c-5.061-4.615-4.907-10.248-5.204-16.084c2.383-0.563,1.658,2.052,3.052,2.177c5.209,10.242,15.463,11.843,27.142,9.928
	c5.765-0.945,11.166-3.014,16.167-6.051c2.382-1.447,3.725-1.224,3.633,1.924C521.781,50.83,523.483,55.702,525.092,60.591z"/>
<path class="st21" d="M132.805,513.912c-0.576,0.036-1.152,0.072-1.728,0.108c-4.122-1.336-7.844-3.894-12.354-4.048
	c-1.507-0.909-2.909-2.269-4.54-2.648c-6.638-1.545-7.511-7.656-9.917-12.393c-1.416-2.787,2.865-10.536,6.875-12.965
	c3.671-2.224,7.573-2.293,11.165,0.373c7.308,5.424,10.503,13.055,11.615,21.816c0.199,1.567-0.478,3.359,0.96,4.684
	C134.443,510.634,136.142,513.304,132.805,513.912z"/>
<path class="st22" d="M104.108,507.651c-0.211,1.813-0.453,3.624,0.79,5.226c1.036,1.335,1.25,2.89,0.031,4.051
	c-1.623,1.546-3.013,0.106-4.315-0.851c-1.458-1.071-2.85-2.255-4.839-2.062c-4.786-2.142-9.658-4.116-14.325-6.494
	c-2.541-1.295-2.479-4.163-2.353-6.603c0.313-6.063,3.813-10.741,8.621-11.898c3.878-0.933,9.564,1.979,12.411,7.124
	C102.082,499.671,104.289,503.303,104.108,507.651z"/>
<path class="st23" d="M394.883,255.857c2.482-8.159,3.773-16.46,2.991-25.009c8.872,6.459,17.27,13.591,26.953,18.895
	c1.631,0.893,1.874,2.323,0.032,2.744C415.008,254.741,405.351,259.04,394.883,255.857z"/>
<path class="st24" d="M240.761,285.736c1.659,0.032,3.328-0.036,4.975,0.124c1.848,0.179,4.335-1.023,5.271,1.507
	c0.908,2.452-0.712,4.25-2.215,6.141c-4.815,6.06-11.787,7.604-18.705,9.185c-3.196,0.73-6.448,1.44-9.825,1.132
	c-2.008-0.183-3.808-1.068-4.488-2.626c-0.697-1.597,1.39-2.334,2.464-3.3c3.069-2.759,6.462-4.964,10.42-6.234
	c2.043-0.655,2.8-2.682,4.23-3.993C235.183,285.683,237.993,285.795,240.761,285.736z"/>
<path class="st25" d="M335.793,475.854c-2.825,0-5.67,0.217-8.47-0.046c-5.581-0.523-6.49-1.591-4-6.654
	c4.401-8.951,7.179-12.552,17.873-7.089c4.37,2.233,8.089,4.956,10.863,8.983c1.644,2.386,1.675,3.844-1.835,4.008
	c-4.813,0.226-9.614,0.703-14.421,1.073C335.8,476.038,335.797,475.946,335.793,475.854z"/>
<path class="st26" d="M246.699,387.946c0.413-4.21-0.077-8.222-1.925-11.749c-2.386-4.555,0.308-6.916,3.448-8.785
	c6.002-3.572,11.688-0.093,11.714,6.822c0.027,7.221-2.784,12.986-8.35,17.57c-1.421,1.17-2.807,2.863-4.558,2.057
	c-1.586-0.729-0.124-2.7-0.315-4.109C246.626,389.103,246.699,388.431,246.699,387.946z"/>
<path class="st27" d="M58.808,441.747c0.452,7.971-1.983,15.883-0.828,23.821c1.506,10.349,5.489,19.594,13.772,26.481
	c1.41,1.172,3.09,1.972,5.055,1.709c0.258,2.019-1.832,3.09-1.973,4.979c-0.433,5.772-3.755,4.226-6.772,2.442
	c-7.351-4.348-11.41-10.603-11.184-19.459c0.312-12.242-0.652-24.517,1.013-36.725C58.047,443.853,57.873,442.654,58.808,441.747z"
	/>
<path class="st28" d="M423.938,335.574c-0.059,0.829,0.008,1.691-0.199,2.482c-0.72,2.762-0.454,6.885-3.466,7.442
	c-2.325,0.43-3.1-3.56-4.405-5.707c-1.44-2.369-2.894-4.632-5.29-6.317c-4.887-3.437-4.812-4.386-1.153-9.509
	c1.732-2.426,3.803-4.392,6.763-4.25c3.276,0.157,4.488,3.267,5.497,5.733C422.985,328.627,424.201,331.975,423.938,335.574z"/>
<path class="st29" d="M483.877,27.83c-0.713,1.504-1.307,3.088-3.459,2.988c-9.742-0.451-19.583,1.147-29.22-1.116
	c-3.328-0.782-6.448-2.372-10.025-1.971c-1.002,0.112-2.118-0.252-1.936-1.613c0.173-1.293,1.338-1.256,2.326-1.303
	c10.043-0.473,20.078-2.273,30.139-0.088c1.095,0.238,2.304-0.046,3.461-0.087C478.524,24.46,481.329,25.796,483.877,27.83z"/>
<path class="st30" d="M371.184,471.7c-3.465,0.312-6.917,0.538-10.343,0.963c-2.109,0.261-3.577-0.467-4.486-2.287
	c-2.586-5.178-6.538-8.936-11.646-11.59c-1.243-0.646-2.954-1.291-2.126-3.29c0.559-1.35,1.671-1.819,3.199-1.789
	C351.927,453.826,368.938,463.296,371.184,471.7z"/>
<path class="st31" d="M151.609,497.475c0.093,2.397-1,2.062-2.538,1.739c-3.89-0.816-7.268-3.146-11.303-3.572
	c-1.419-0.15-6.163-9.985-5.848-11.469c0.891-4.194,4.187-5.738,8.07-3.78C145.721,483.283,151.828,492.407,151.609,497.475z"/>
<path class="st32" d="M278.225,381.757c-3.777-5.718-5.51-12.008-9.944-16.868c-1.983-2.174,1.234-3.76,3.02-5.018
	c2.327-1.638,4.527-3.339,7.312-0.447C282.5,363.459,284.414,374.091,278.225,381.757z"/>
<path class="st33" d="M433.159,343.076c-2.188-3.487-4.525-6.393-5.081-9.893c-0.505-3.179-1.409-6.024-2.838-8.866
	c-0.74-1.472-2.657-3.662,0.16-4.92c2.035-0.909,4.393-1.545,6.272,0.84c4.106,5.211,4.925,11.055,3.47,17.329
	C434.749,339.249,433.975,340.843,433.159,343.076z"/>
<path class="st34" d="M390.408,348.786c-6.854-3.278-10.527-8.161-12.655-14.582c-0.893-2.694,0.118-3.771,2.182-4.439
	c2.571-0.832,5.046-0.508,7.705,0.454c3.997,1.446,1.363,4.142,1.63,6.228C389.771,340.359,390.011,344.304,390.408,348.786z"/>
<path class="st35" d="M524.124,119.7c4.996,2.248,10.495,0.47,15.646,1.98c2.131,0.624,4.437,0.329,6.592,1.603
	c3.172,1.874,5.362-0.503,7.476-2.508c-1.222,5.967-3.245,7.588-8.987,6.915c-1.789-0.21-3.542-0.932-4.842,0.983
	c-2.595,0.717-5.191,0.544-7.791,0.031C527.771,127.279,524.387,124.889,524.124,119.7z"/>
<path class="st36" d="M254.85,354.909c1.097,5.96-0.144,7.159-6.251,5.59c-2.71-0.696-5.305-1.866-7.912-2.919
	c-1.543-0.623-2.273-1.979-2.154-3.571c0.114-1.529,1.456-1.882,2.682-2.521c3.373-1.757,6.485,0.238,9.711,0.301
	C252.964,351.912,253.699,353.672,254.85,354.909z"/>
<path class="st6" d="M539.964,132.708c-1.757,2.23-5.2,0.67-6.884,3.064c0.012,1.359,0.023,2.718,0.035,4.076
	c0.012,0.867-0.408,1.276-1.28,1.205c-5.348,0.966-5.241-2.656-5.219-6.206c-0.521-0.668-0.628-1.436-0.548-2.251
	C527.045,129.786,539.98,131.362,539.964,132.708z"/>
<path class="st37" d="M253.983,306.937c-0.489,2.199-0.932,4.39,1.121,6.125c-3.284,2.845-7.38,4.142-11.233,5.903
	c-1.478,0.675-2.861,1.04-3.653-0.922c-0.73-1.809,0.314-3.035,1.717-3.591C246.424,312.671,250.152,309.737,253.983,306.937z"/>
<path class="st38" d="M197.033,445.731c6.657,1.135,13.19-1.128,19.818-0.721c-1.489,1.359-3.469,0.875-5.194,1.268
	c-2.433,0.555-4.332,0.921-5.695,3.665c-1.984,3.994-6.177,2.984-9.753,2.665c-1.226-0.11-1.254-1.339-1.272-2.339
	c-0.023-1.27,0.297-2.345,1.823-2.412c1.312-0.058,2.629-0.012,4.444-0.012C199.92,446.136,197.596,447.644,197.033,445.731z"/>
<path class="st39" d="M492.937,36.847c4.303,7.765,10.823,5.834,17.112,5.064c-6.318,3.728-12.921,5.633-20.64,4.766
	C490.947,43.491,494.424,41.308,492.937,36.847z"/>
<path class="st40" d="M480.281,42.335c4.089-1.124,0.236-8.976,7.297-6.099c1.939,0.79,2.451,2.101,1.69,3.919
	C487.62,44.092,484.613,43.53,480.281,42.335z"/>
<path class="st10" d="M196.768,389.867c-1.864,1.182-1.254,3.962-3.243,5.367c-2.455-4.92,2.479-8.751,1.334-13.219
	C196.178,384.466,197.162,386.999,196.768,389.867z"/>
<path class="st11" d="M122.131,474.1c3.07-1.045,5.073,0.741,7.288,1.863c0.686,0.347,1.333,1.126,0.644,2.011
	c-0.537,0.689-1.271,1.004-2.124,0.375C126.009,476.925,124.067,475.515,122.131,474.1z"/>
<path class="st16" d="M204.867,399.833c1.733,5.981,1.792,11.958-0.036,17.931C204.842,411.787,204.854,405.81,204.867,399.833z"/>
<path class="st16" d="M203.16,389.803c3.159,2.9,1.381,6.641,1.707,10.024C204.297,396.485,203.728,393.144,203.16,389.803z"/>
<path class="st41" d="M190.931,413.817c0.84,5.296-1.982,9.744-4.002,14.092c-2.831,6.092-10.67,7.858-18.175,4.155
	c-15.017-7.411-29.086-16.197-38.689-30.55c-5.046-7.543-8.986-15.401-8.219-24.905c0.498-6.172-1.115-12.541,2.891-18.313
	c1.32-1.902,3.205-3.354,4.163-5.495c15.689-12.182,42.373-0.09,52.997,12.202c7.604,8.798,9.799,19.045,9.939,30.037
	C191.917,401.295,192.737,407.635,190.931,413.817z"/>
<path class="st14" d="M22.068,115.116c0.978-2.429,2.655-2.903,4.223-3.198c11.131-2.096,22.112-2.411,33.514-0.585
	c14.818,2.374,27.316,8.759,39.382,17.091c15.269,10.543,28.269,23.264,39.05,38.287c2.362,3.292,4.59,6.668,5.202,10.969
	c0.736,5.164-1.743,8.424-7.079,8.093c-5.941-0.368-10.834-3.409-15.603-6.62c-10.913-7.347-18.4-17.719-26.004-28.233
	c-10.244-14.161-23.712-24.341-40.49-30.42C43.845,116.726,33.599,113.936,22.068,115.116z"/>
<path class="st42" d="M264.174,197.677c2.478,0.19,4.985,0.21,7.427,0.617c2.6,0.434,3.907,2.729,4.648,4.817
	c0.674,1.9-1.442,3.638-2.795,4.094c-3.873,1.306-6.933,4.164-11.079,4.989c-9.46,1.882-18.955,3.646-27.979,7.37
	c-1.971,0.813-5.648,1.518-6.882-0.752c-1.135-2.088,1.826-3.971,3.408-5.381c5.606-4.995,11.73-8.993,18.748-12.167
	C254.553,199.056,259.017,197.703,264.174,197.677z"/>
<path class="st43" d="M109.969,242.121c1.259-2.881,2.63-6.779,4.618-10.331c1.629-2.911,4.658-3.891,7.795-2.585
	c3.319,1.382,4.937,4.544,5.335,7.81c0.454,3.736-5.694,11.535-9.338,12.736C113.527,251.351,109.792,248.419,109.969,242.121z"/>
<path class="st44" d="M235.892,335.789c-2.672,0.359-4.777-0.429-6.018-2.97c-1.834-5.736-6.979-9.01-10.329-13.63
	c-1.861-2.567-1.353-5.65-3.148-8.15c-0.865-1.205,1.255-2.422,2.296-3.41c1.141-1.082,2.068-0.303,3.005,0.489
	c5.495,4.643,10.145,9.887,11.489,17.238C233.84,328.914,236.243,331.993,235.892,335.789z"/>
<path class="st45" d="M106.924,342.907c-4.14,0.864-6.642,4.034-9.49,6.725c-1.569,1.483-2.78,3.443-5.931,4.371
	c2.424-3.192,4.342-5.717,6.26-8.243c10.229-11.621,23.494-12.174,37.401-10.147c3.582,0.522,7.1,1.488,10.647,2.25
	c0.625,0.614,2.074,0.245,2.069,1.517c-0.004,0.975-0.948,1.158-1.735,1.277c-1.147,0.173-2.199-0.225-3.234-0.66
	c-2.926-0.707-6.112,0.429-8.9-1.254c-4.076-0.748-8.152-0.736-12.229-0.005C116.735,339.792,111.61,340.566,106.924,342.907z"/>
<path class="st46" d="M56.738,162.73c3.122,3.577,2.34,7.398,2.218,10.863c-0.158,4.463,0.956,6.177,5.413,4.021
	c0.85-0.411,1.793-0.963,3.859,0.207c-12.876,3.39-8.903,12.943-8.846,21.29c-3.6-4.238-1.627-9.503-2.658-14.182
	c-3.16,0.968-3.571,4.573-6.188,6.38c-1.316-2.662,0.342-4.215,1.847-5.469c5.898-4.912,5.094-11.288,4.113-17.727
	C56.251,166.503,55.621,164.924,56.738,162.73z"/>
<path class="st47" d="M25.663,121.284c17.324-0.509,27.758,12.338,30.894,36.076c-2.528-2.088-3.095-4.726-3.773-7.365
	c-2.106-8.199-4.653-16.169-11.704-21.73C36.792,124.885,31.516,123.575,25.663,121.284z"/>
<path class="st48" d="M105.31,232.161c-2.381,7.337-6.992,12.71-9.663,20.214C94.452,246.016,99.421,236.016,105.31,232.161z"/>
<path class="st49" d="M328.174,125.583c-2.416-3.705,0.036-5.886,1.768-7.659c2.201-2.253,5.074-3.816,8.56-2.913
	c0.736,0.191,1.157,0.688,1.06,1.42c-0.138,1.05-1.017,1.258-1.857,1.212C332.384,117.348,329.806,120.613,328.174,125.583z"/>
<path class="st50" d="M71.812,208.8c-5.142,3.643-10.084,5.87-13.054,11.274C58.536,214.081,63.748,209.56,71.812,208.8z"/>
<path class="st51" d="M321.474,162.535c-1.622,5.255-5.495,8.092-4.765,12.639c0.143,0.89-0.665,1.5-1.67,1.238
	c-1.022-0.266-1.074-1.195-1.026-2.001C314.296,169.667,316.43,165.989,321.474,162.535z"/>
<path class="st52" d="M304.693,183.524c-1.516,3.782-3.58,6.282-2.709,9.649C298.656,189.345,299.223,187.004,304.693,183.524z"/>
<path class="st53" d="M68.007,221.424c-1.045,2.459-2.933,3.559-3.339,5.632c-0.187,0.952-1.098,1.872-2.201,1.276
	c-0.783-0.423-0.639-1.509-0.204-2.245C63.473,224.042,64.358,221.57,68.007,221.424z"/>
<path class="st54" d="M323.126,132.316c-0.603,3.125-3.649,4.266-3.864,6.959c-0.009,0.113-0.952,0.34-1.311,0.18
	c-0.312-0.139-0.673-0.846-0.566-1.14C318.343,135.683,319.183,132.872,323.126,132.316z"/>
<path class="st10" d="M142.911,339.997c0.985-0.003,1.971,0,2.956-0.012c0.641-0.007,1.527,0.015,1.371-0.844
	c-0.09-0.496-0.926-0.857-1.426-1.279c1.299-0.047,2.703-0.23,3.02,1.551c0.145,0.814,0.005,1.769-0.848,2.057
	C146.011,342.139,144.152,342.029,142.911,339.997z"/>
<path class="st10" d="M121.781,338.738c4.077-1.271,8.153-1.134,12.229,0.006C129.934,338.741,125.858,338.739,121.781,338.738z"/>
<path class="st55" d="M638.92,213.827c-2.913,3.898-7.856,3.862-11.763,5.764c-6.865,3.342-14.154,6.116-21.555,7.977
	c-9.524,2.395-18.814,5.576-28.494,7.564c-8.038,1.65-16.102,4.063-24.176,4.87c-11.946,1.194-23.989,3.056-36.14,1.059
	c-7.02-1.153-14.23,0.343-21.341-1.191c-9.323-2.011-18.96-2.77-28.117-5.31c-27.578-7.649-53.275-19.356-74.152-39.453
	c-7.803-7.512-14.522-16.308-19.258-26.309c3.293,1.509,6.67,2.895,7.255,7.192c0.108,0.796,0.828,1.608,1.794,1.308
	c1.011-0.314,0.979-1.314,0.562-2.051c-2.223-3.926,0.538-3.443,2.937-3.461c2.343-0.017,4.566,0.429,6.858,0.923
	c9.256,1.994,18.487,3.745,28.048,4.426c9.925,0.707,20.174,1.455,29.607,5.097c3.206,1.238,4.882,2.733,8.402,0.063
	c1.916-1.454,6.323,0.26,9.582,0.723c3.263,0.464,6.482,1.231,9.742,1.719c4.229,0.633,7.779-1.118,11.108-3.47
	c0.932-0.658,1.831-1.813,3.064-1.135c1.535,0.844,0.38,2.177-0.013,3.045c-1.88,4.157,0.104,4.509,3.714,4.742
	c6.891,0.444,13.884,0.331,20.567,2.72c2.956,1.057,6.188,0.923,9.308,1.273c10.784,1.209,21.561,2.604,32.255,4.431
	c5.839,0.998,11.732,0.735,17.65,1.882c6.008,1.165,12.086,2.71,18.174,3.403c8.623,0.982,8.683,0.454,6.03-7.78
	c5.891,3.29,11.07,7.058,17.042,9.398c6.566,2.572,13.162,4.463,20.282,3.029c0.884-0.178,1.753-0.289,2.183,0.563
	c0.63,1.249-0.158,2.358-1.005,3.068C637.456,211.258,636.094,212.396,638.92,213.827z"/>
<path class="st0" d="M531.939,127.641c-2.878,0.432-3.67,3.068-5.202,4.923c-1.895,2.208-4.521,1.836-6.875,1.587
	c-3.142-0.333-6.168-0.063-9.213,0.542c-12.308,1.865-24.475,4.704-36.922,5.59c-15.157,1.079-29.554-0.595-40.884-12.31
	c-3.478-3.597-6.185-7.707-7.927-12.409c-0.313-0.844-0.586-1.623-1.602-1.527c-1.02,0.097-1.213,0.948-1.31,1.817
	c-0.111,0.991-0.173,2.002-0.427,2.959c-0.255,0.961-0.691,2.005-1.99,1.721c-1.073-0.234-0.787-1.301-0.91-2.045
	c-1.412-8.514,3.365-18.672,10.64-23.114c2.12-1.295,4.21-1.844,6.674-1.442c0.473,1.877-1.68,1.736-2.104,2.853
	c-5.826,7.442-5.883,7.931-1.199,16.126c0.984,1.722,1.987,3.445,3.088,5.092c3.936,5.886,5.58,5.984,9.954,0.746
	c3.963-7.623,8.371-14.887,15.656-19.905c5.8-3.996,9.766-2.38,11.592,4.403c2.43,9.031,4.197,18.305,8.883,26.59
	c6.081,4.893,16.402,2.385,20.859-5.069c0.646-4.793,3.108-8.72,6.351-12.06c3.566-3.673,7.991-3.287,11.075,0.739
	c1.496,1.953,2.662,4.159,3.978,6.251C526.183,122.884,527.804,126.499,531.939,127.641z"/>
<path class="st5" d="M531.836,141.053c0.426-0.402,0.852-0.804,1.279-1.205c3.39-0.219,14.238,3.189,15.939,1.958
	c8.855-0.022,8.854-0.022,8.856,9.031c0.001,2.657,0.01,5.313,0.016,7.97c-1.549,1.852-3.65,2.016-5.861,2.009
	c-9.111-0.028-18.223,0.046-27.334-0.032c-6.193-0.053-6.913-0.768-6.801-6.796c0.071-3.779-1.562-8.433,0.7-11.111
	c2.403-2.846,7.197-0.606,10.904-1.103C530.319,141.667,531.069,141.299,531.836,141.053z"/>
<path class="st56" d="M430.689,41.8c9.914-5.911,20.773-7.401,32.035-6.575c3.587,0.263,5.309,1.938,4.59,6.304
	c-2.205,13.383-9.822,20.994-22.439,24.567c-2.259,0.64-4.206,0.702-4.76-2.241c3.593-1.98,7.681-2.789,10.85-4.887
	c-4.003,0.521-8.186,0.048-11.967-2.672c-3.707-2.666-5.943-6.185-6.462-10.642C432.346,44.024,430.47,43.459,430.689,41.8z"/>
<path class="st57" d="M445.731,118.751c-3.121,8.246-3.187,8.268-9.301,1.893c-3.956-4.126-6.329-9.24-8.174-14.494
	c-1.74-4.955,1.699-7.465,5.632-9.363c-0.092,8.784,5.062,15.353,9.491,22.201C443.574,119.29,444.921,118.847,445.731,118.751z"/>
<path class="st58" d="M430.689,41.8c1.754,1.226,3.389,2.009,3.525,4.96c0.254,5.499,6.497,10.768,12.082,11.062
	c2.572,0.135,5.156,0.023,9.234,0.023c-5.642,3.383-9.887,6.249-15.416,6.01c-7.682-3.125-10.662-7.433-10.226-14.988
	C430.025,46.503,430.415,44.155,430.689,41.8z"/>
<path class="st59" d="M502.719,124.77c0.171,6.018-3.519,7.752-8.713,8.039c-2.287,0.126-4.547,0.693-6.825,1.012
	c-3.071,0.431-5.291-0.326-5.32-3.983C489.308,130.185,496.31,128.694,502.719,124.77z"/>
<path class="st55" d="M510.649,134.693c5.132-2.453,10.697-1.634,16.088-2.129c-0.039,0.76-0.079,1.521-0.119,2.282
	C521.268,137.521,515.979,133.982,510.649,134.693z"/>
<path class="st60" d="M361.665,276.954c-9.818,9.291-41.948,9.956-62.374-10.605c9.756,4.495,18.572,11.684,29.522,12.753
	C339.736,280.168,350.902,281.505,361.665,276.954z"/>
<path class="st61" d="M347.265,213.719c7.536,13.508,18.812,22.118,33.834,25.981C367.488,241.813,348.609,226.137,347.265,213.719z
	"/>
<path class="st62" d="M367.403,247.2c-10.21,1.331-21.179-4.299-24.113-14.181C349.362,241.248,358.348,244.243,367.403,247.2z"/>
<path class="st63" d="M356.919,256.575c-5.825,1.362-11.755-2.04-14.247-7.641C347.88,250.58,351.377,254.415,356.919,256.575z"/>
<path class="st64" d="M340.435,231.348c-1.194-0.329-2.074-0.86-2.859-1.836c-1.303-1.619-3.843-3.682-1.795-5.183
	c2.403-1.761,1.815,2.14,3.05,3.142C339.81,228.266,341.62,229.009,340.435,231.348z"/>
<path class="st65" d="M226.255,415.72c16.234,7.679,31.785,3.092,47.28-2.695C263.119,422.911,234.215,425.809,226.255,415.72z"/>
<path class="st66" d="M316.393,368.721c-7.847,6.54-16.999,3.698-25.86,3.219C299.116,370.835,307.923,371.352,316.393,368.721z"/>
<path class="st67" d="M238.099,424.221c-6.902,3.436-19.67-1.645-23.587-9.322C221.73,419.673,228.937,424.477,238.099,424.221z"/>
<path class="st68" d="M299.921,376.166c3.752,0.192,7.006-2.611,12.108-1.497C307.207,376.938,303.627,377.723,299.921,376.166z"/>
<path class="st69" d="M95.37,372.476c-4.754,15.89-3.601,30.387,3.957,44.608C88.95,411.267,86.816,381.116,95.37,372.476z"/>
<path class="st70" d="M109.605,429.051c-5.006-0.45-6.525-4.253-7.84-8.296C104.378,423.52,106.991,426.285,109.605,429.051z"/>
<path class="st71" d="M176.585,198.255c2.236-3.579,6.5-4.596,9.076-2.244c0.279,0.255,0.454,0.828,0.394,1.207
	c-0.114,0.716-0.571,1.062-1.414,0.913c-1.29-0.228-2.607-0.303-3.909-0.468C179.394,197.494,178.417,199.066,176.585,198.255z"/>
<path class="st72" d="M166.399,362.553c-2.539-2.46-3.906-5.655-7.807-7.518C164.206,354.873,166.743,357.591,166.399,362.553z"/>
<path class="st73" d="M178.243,377.72c3.394,2.57,4.037,4.616,3.36,7.055c-0.173,0.623-1.115,1.079-1.642,0.585
	C178.028,383.545,179.117,381.14,178.243,377.72z"/>
<path class="st74" d="M180.892,369.48c4.526,1.771,4.853,2.545,3.341,8.289C183.017,374.753,182.004,372.241,180.892,369.48z"/>
<path class="st75" d="M262.297,203.306c2.829-5.017,5.865-3.82,9.441-0.639C268.359,204.039,265.209,202,262.297,203.306z"/>
<path class="st76" d="M247.648,213.087c-0.252-4.186,1.88-4.592,3.737-5.109c0.642-0.179,1.333,0.571,1.165,1.256
	C251.965,211.624,249.372,210.845,247.648,213.087z"/>
<path class="st77" d="M471.729,225.946c-9.012-1.985-18.487-3.056-24.256-12.001c-2.538-3.934-1.27-10.27,3.096-11.738
	c5.956-2.003,12.185-1.943,17.793,1.016c3.604,1.902,6.691,4.835,9.874,7.47c3.217,2.663,6.111,6.321,4.158,10.284
	C480.587,224.646,476.584,226.811,471.729,225.946z"/>
<path class="st78" d="M468.918,133.87c-6.408-0.547-12.865-0.886-18.747-4.079c-1.945-1.056-3.06-2.098-2.418-4.615
	c2.143-8.402,6.324-15.505,12.889-21.175c4.22-3.645,7.536-2.695,9.04,2.605c2.12,7.473,3.877,15.065,6.376,22.406
	c1.264,3.713,0.376,4.685-3.12,4.615C471.611,133.602,470.281,133.782,468.918,133.87z"/>
<path class="st79" d="M522.98,126.435c-5.678,0.244-9.95,0.641-14.089,1.884c-2.731,0.82-3.298-0.384-2.631-2.774
	c0.045-0.16,0.048-0.335,0.113-0.484c1.799-4.118,2.517-10.812,7.387-10.489C518.529,114.888,519.238,121.855,522.98,126.435z"/>
<path class="st80" d="M447.825,53.068c-1.511-0.369-3.85-0.668-5.968-1.518c-3.25-1.305-5.728-6.509-4.612-9.043
	c0.616-1.398,8.569-4.493,10.272-3.954c2.232,0.706,0.454,2.592,1.068,3.772c0.546,1.049-0.47,3.029,1.386,3.176
	c2.266,0.18,1.688-1.903,2.04-3.24c0.444-1.691-1.365-4.429,1.623-4.909c3.221-0.518,6.947-1.441,9.643,0.753
	c2.124,1.729,0.895,4.652-0.362,6.745C459.707,50.191,454.794,52.775,447.825,53.068z"/>
<path class="st5" d="M677.728,191.376c-1.258-5.144-4.771-6.585-9.649-6.037c-4.726,0.531-9.359,0.412-14.07-0.887
	c-8.32-2.295-17.537-0.64-25.403-3.503c-9.27-3.375-18.941-1.74-28.195-4.762c-5.329-1.741-11.464-2.734-17.408-2.825
	c-1.505-0.023-3.124,0.115-3.93-1.509c-0.729-1.469,0.058-2.544,1.281-3.344c0.787-0.516,1.297-1.213,0.607-1.997
	c-0.326-0.371-1.249-0.552-1.751-0.38c-5.322,1.824-9.914,1.307-14.134-2.97c-2.067-2.095-5.518-2.01-8.378-2.8
	c-2.154-2.344-1.378-5.257-1.434-7.954c-0.146-6.977-11.489-9.93-14.078-8.547c-3.455-0.354-6.965-0.489-9.973-2.576
	c-0.707-1.371-0.687-2.716,0.134-4.033c5.84-2.292,11.659-1.724,17.479,0.123c2.608,0.828,5.249,2.571,7.842-0.058
	c12.77,0.739,25.188-0.643,36.999-5.942c9.709-4.356,18.882-9.752,27.118-16.359c9.379-7.524,19.765-8.649,30.955-7.229
	c3.792,0.481,7.563,1.161,11.324,1.859c6.94,1.288,12.716-0.271,17.151-6.17c2.776-3.692,8.341-2.735,12.653,2.194
	c1.841,2.105,3.38,4.638,3.64,7.538c0.832,9.293,2.127,18.461,6.095,27.045c0.263,0.57,0.151,1.313,0.213,1.975
	c2.418,6.89,1.874,13.648-0.977,20.272c-4.327,10.054-11.174,18.348-18.561,26.233C681.841,190.264,680.223,191.857,677.728,191.376
	z"/>
<path class="st81" d="M569.739,131.858c-3.167-0.226-4.991-0.391-6.818-0.48c-8.323-0.404-8.325-0.398-5.662-8.052
	c2.491-7.158,4.978-14.316,7.483-21.469c1.789-5.109,3.369-5.479,6.732-1.388c6.417,7.805,9.678,17.051,12,26.722
	c0.781,3.253-1.531,3.758-3.619,4.006C576.065,131.648,572.227,131.711,569.739,131.858z"/>
<path class="st82" d="M645.288,30.709c-9.792-5.953-19.664-11.494-29.967-16.238c-1.588-0.731-1.899-1.711-1.454-3.129
	c0.8-2.547,2.314-4.351,5.164-4.718c2.144-0.276,3.862,0.858,5.624,1.693C634.495,12.977,641.838,20.007,645.288,30.709z"/>
<path class="st83" d="M561.776,31.164c-0.027,6.935-0.048,13.871-0.086,20.806c-0.012,2.109,0.342,4.382-3.025,6.063
	c0-4.473-0.017-8.458,0.004-12.443c0.037-7.128-3.472-12.972-7.178-18.572c-2.424-3.663-6.349-4.902-10.813-3.833
	c-1.074,0.257-2.268,0.552-3.528-0.631c2.522-3.047,5.092-5.772,9.584-5.219C554.262,19.209,558.622,24.53,561.776,31.164z"/>
<path class="st84" d="M604.515,119.601c1.708-8.187,1.736-15.774,4.722-22.946c1.265-3.04,2.494-2.539,4.275-1.055
	c3.502,2.917,5.522,6.958,7.773,10.785c1.259,2.14-0.769,2.85-2.103,3.72C614.674,113.044,610.149,115.957,604.515,119.601z"/>
<path class="st85" d="M621.633,98.393c3.901,1.179,7.769-0.298,11.687-0.156c8.436,0.305,16.89,0.107,25.337,0.114
	c0.041,3.919-1.515,4.988-5.592,4.325c-7.293-1.186-14.71-0.404-21.712,1.81c-4.076,1.289-6.397,0.799-8.046-3.129
	C622.882,100.345,621.678,99.685,621.633,98.393z"/>
<path class="st55" d="M531.852,137.326c0.541-4.964,4.593-2.034,6.885-3.063c6.216-0.386,12.092,1.219,17.93,3.053
	c0.079,4.268-3.395,3.703-5.109,2.684C545.257,136.252,538.474,137.694,531.852,137.326z"/>
<path class="st86" d="M534.711,35.293c-0.926-3.842,0.098-7.288,3.655-8.836c3.544-1.542,6.643,0.281,9.167,3.171
	c7.539,8.629,7.012,23.326,1.853,31.668c-1.799,2.91-5.557,3.086-8.722,0.596c-1.847-1.453-2.795-3.59-3.952-5.558
	c-0.962-2.005-0.042-2.407,1.666-1.798c1.832,0.654,2.937,2.682,5.999,3.114c-5.652-8.008-10.984-15.597-5.239-25.352
	C536.681,32.535,537.103,35.808,534.711,35.293z"/>
<path class="st87" d="M534.711,35.293c0.769-1.233,1.485-2.504,2.322-3.689c0.731-1.035,1.456-2.701,3.022-1.785
	c1.456,0.852,0.804,2.406,0.048,3.512c-3.161,4.622-2.567,9.354-0.635,14.192c1.18,2.954,3.113,5.403,5.036,7.873
	c0.708,0.909,2.799,1.408,1.36,3.06c-1.311,1.505-3.033,1.144-4.459,0.021c-1.165-0.917-2.085-2.143-3.243-3.071
	c-1.097-0.88-1.324,0.048-1.449,0.927c-3.366-4.511-1.664-9.737-2.025-14.663C534.532,39.556,534.694,37.419,534.711,35.293z"/>
<path class="st88" d="M592.122,24.06c0.506-1.763,2.32-2.692,3.059-2.236c3.839,2.369,7.836-2.195,11.54,0.526
	c1.537,1.129,3.736,1.578,3.882,5.154C604.861,22.517,597.93,27.513,592.122,24.06z"/>
<path class="st5" d="M561.467,171.545c-5.922,0.36-10.708-1.78-15.812-2.436C553.258,165.049,554.702,165.238,561.467,171.545z"/>
<path class="st89" d="M640.156,48.039c6.085-0.938,8.6,1.498,8.196,8.7C646.098,52.583,643.692,49.777,640.156,48.039z"/>
<path class="st90" d="M645.032,110.305c3.458,0.301,6.982-0.549,10.371,0.518c1.372,0.432,3.052,0.999,3.068,2.828
	c0.017,1.934-1.749,2.218-3.141,2.583c-7.094,1.864-14.182,3.759-21.321,5.437c-3.613,0.85-8.627,2.583-10.236-1.457
	c-1.458-3.663,3.415-5.713,6.308-7.754C634.684,109.213,639.999,110.713,645.032,110.305z"/>
<path class="st5" d="M597.86,206.821c0.317-1.525,1.594-2.255,2.849-2.058c1.253,0.197,3.413-0.01,3.407,1.921
	c-0.004,1.599-1.758,1.692-3.084,1.648C599.815,208.291,598.28,208.76,597.86,206.821z"/>
</svg>