<!-- Generator: Adobe Illustrator 21.0.0, SVG Export Plug-In  -->
<svg version="1.1"
	 xmlns="http://www.w3.org/2000/svg" xmlns:xlink="http://www.w3.org/1999/xlink" xmlns:a="http://ns.adobe.com/AdobeSVGViewerExtensions/3.0/"
	 x="0px" y="0px" width="624.11px" height="432.706px" viewBox="0 0 624.11 432.706"
	 style="enable-background:new 0 0 624.11 432.706;" xml:space="preserve">
<style type="text/css">
	.st0{fill:#1E0B04;}
	.st1{fill:#E9DCBE;}
	.st2{fill:#1F0E0A;}
	.st3{fill:#E17E14;}
	.st4{fill:#DC6A0E;}
	.st5{fill:#E38416;}
	.st6{fill:#E28215;}
	.st7{fill:#CC4C09;}
	.st8{fill:#EE9F17;}
	.st9{fill:#DB690E;}
	.st10{fill:#D34707;}
	.st11{fill:#F5AE17;}
	.st12{fill:#D44C08;}
	.st13{fill:#D95E0C;}
	.st14{fill:#DA620D;}
	.st15{fill:#E38615;}
	.st16{fill:#E4C986;}
	.st17{fill:#A02002;}
	.st18{fill:#DE7211;}
	.st19{fill:#F2AD23;}
	.st20{fill:#B32603;}
	.st21{fill:#F9C624;}
	.st22{fill:#B23606;}
	.st23{fill:#F0E4CC;}
	.st24{fill:#D75A0B;}
	.st25{fill:#EAD7B1;}
	.st26{fill:#F1A617;}
	.st27{fill:#B11F02;}
	.st28{fill:#D7570B;}
	.st29{fill:#FCF5E4;}
	.st30{fill:#F4AC17;}
	.st31{fill:#FCF6E6;}
	.st32{fill:#EE6507;}
	.st33{fill:#FAF5E5;}
	.st34{fill:#BA3606;}
	.st35{fill:#EAD9B5;}
	.st36{fill:#E4CFA5;}
	.st37{fill:#EAD9B4;}
	.st38{fill:#E1CBA1;}
	.st39{fill:#E5D0A6;}
	.st40{fill:#B83004;}
	.st41{fill:#C2A25F;}
	.st42{fill:#B93506;}
	.st43{fill:#B93105;}
	.st44{fill:#BFA16B;}
	.st45{fill:#EFE1C2;}
	.st46{fill:#E9DBBC;}
	.st47{fill:#E58E16;}
	.st48{fill:#EDDFBF;}
	.st49{fill:#E7D8B7;}
	.st50{fill:#DACBAD;}
	.st51{fill:#EADCBB;}
	.st52{fill:#E5D6B5;}
	.st53{fill:#EEDFBD;}
	.st54{fill:#DFCFAE;}
	.st55{fill:#E9DAB9;}
	.st56{fill:#E7DBBE;}
	.st57{fill:#E1D6BA;}
	.st58{fill:#E89920;}
	.st59{fill:#564433;}
	.st60{fill:#DACBA8;}
	.st61{fill:#89724A;}
	.st62{fill:#C95B0C;}
	.st63{fill:#331A06;}
	.st64{fill:#331906;}
	.st65{fill:#331905;}
	.st66{fill:#351B05;}
	.st67{fill:#2F1706;}
	.st68{fill:#F1780D;}
	.st69{fill:#ED9C1D;}
	.st70{fill:#351605;}
	.st71{fill:#622B08;}
	.st72{fill:#281306;}
	.st73{fill:#3A1C06;}
	.st74{fill:#422007;}
	.st75{fill:#1E0E07;}
	.st76{fill:#22130A;}
	.st77{fill:#D1720F;}
	.st78{fill:#632205;}
	.st79{fill:#4F1B05;}
	.st80{fill:#421704;}
	.st81{fill:#451805;}
	.st82{fill:#352007;}
	.st83{fill:#5C3B0C;}
	.st84{fill:#61400B;}
	.st85{fill:#F0750C;}
	.st86{fill:#4C1C05;}
	.st87{fill:#421906;}
	.st88{fill:#B43806;}
	.st89{fill:#695335;}
	.st90{fill:#231105;}
	.st91{fill:#3F2A09;}
	.st92{fill:#2F1005;}
	.st93{fill:#C1A976;}
	.st94{fill:#261510;}
	.st95{fill:#F6F5F4;}
	.st96{fill:#F5F5F3;}
	.st97{fill:#807774;}
	.st98{fill:#261A18;}
	.st99{fill:#0B0100;}
</style>
<defs>
</defs>
<g>
	<path class="st0" d="M157.619,401.098c1.702-9.051,7.398-15.997,13.538-24.308c-6.394,1.102-11.248,2.927-16.2,4.048
		c-16.546,3.747-32.611,1.967-48.72-2.521c-25.074-6.986-40.045-25.477-53.1-46.099c-8.375-13.23-15.001-27.37-19.784-42.318
		c-4.516-14.115-6.704-28.718-8.936-43.309c-0.151-0.987-0.23-1.987-0.417-2.966c-1.023-5.362-1.314-5.51-6.354-3.228
		c-1.815,0.822-3.665,1.461-5.598,2.015c-8.248,2.364-10.933,0.833-11.672-7.853c-1.936-22.772,3.411-43.297,19.28-60.451
		c3.836-4.147,3.371-10.085,5.99-14.873c6.723-12.293,14.782-23.141,27.849-29.278c3.188-1.497,6.634-2.169,10.207-1.824
		c4.344,0.42,7.188,2.42,7.21,7.135c0.038,8.161-0.116,16.324,0.014,24.483c0.067,4.17,0.612,8.372,3.8,11.513
		c1.334,1.315,2.51,4.224,4.395,3.241c1.726-0.899,3.354-3.58,3.51-5.594c0.449-5.795,0.195-11.65,0.085-17.479
		c-0.045-2.36-2.531-2.89-3.862-4.205c-6.486-6.407-6.719-11.042-0.773-17.716c2.798-3.141,6.898-4.549,8.002-9.966
		c2.008-9.843,0.865-18.302-4.784-26.6c-4.525-6.647-9.77-12.699-14.496-19.161c-1.902-2.6-4.87-5.652-3.009-8.865
		c2.153-3.716,6.898-2.532,9.56-1.131c9.767,5.138,19.207,2.81,28.826,0.173c0.952-0.261,2.233-0.074,2.656-1.054
		c2.485-5.755,8.24-9.992,7.921-17.049c-0.051-1.136-0.292-2.907,0.999-3.035c6.356-0.629,6.922-6.805,10.275-10.28
		c5.701-5.908,8.088-13.202,9.77-21.048c2.449-11.424,11.346-14.793,20.78-8.025c2.236,1.604,4.057,1.734,6.419,0.957
		c11.877-3.911,23.646-2.827,35.132,1.433c2.281,0.846,3.524,0.437,5.354-0.516c2.444-1.273,4.69-2.847,7.429-3.716
		c8.526-2.707,13.497,0.132,14.789,8.913c0.121,0.821,0.141,1.659,0.179,2.491c0.414,9.061,0.427,18.249,7.976,25.038
		c2.797,8.325,5.374,9.414,13.469,5.878c1.81-0.79,3.661-2.602,5.787-0.534c0.344,3.072-2.215,3.769-4.157,4.584
		c-2.823,1.185-3.689,2.9-2.615,5.694c-0.209,2.259,0.501,3.952,2.853,4.638c1.478,0.762,2.395,2.245,3.888,2.99
		c4.887,0.966,9.961-0.087,14.792,1.809c6.469,2.54,8.873,6.234,7.817,13.1c-0.531,3.451-0.841,7.005-2.707,10.062
		c-2.427,3.977-2.02,7.852-0.163,11.877c4.053,8.786,6.88,18.011,9.79,27.218c1.268,4.014,1.563,8.161,2.49,12.21
		c0.865,3.775,2.445,6.801,6.174,8.502c1.801,0.821,3.326,2.191,4.839,3.507c8.602,7.482,9.178,14.416,1.833,23.247
		c-1.916,2.304-4.043,4.454-6.339,6.361c-2.93,2.433-4.197,5.511-4.341,9.161c-0.477,12.084-4.353,23.486-7.263,35.053
		c-1.289,5.126-2.366,10.355-4.356,15.337c-1.907,4.773,2.09,8.006,3.835,11.802c0.784,1.421,1.333,2.927,1.631,4.522
		c0.714,3.674,1.654,7.354-0.12,11.001c-2.094,3.976-5.756,5.834-9.769,7.218c-3.088,0.702-6.171,1.432-9.152,2.531
		c-5.475,1.062-6.596,6.216-8.966,9.984c-1.85,2.941-3.459,6.039-5.609,8.8c-6.897,10.657-14.183,21.054-21.069,31.714
		c-0.899,1.405-2.004,2.658-2.987,4.003c-3.511,4.807-3.531,6.111,1.409,9.079c6.68,4.013,13.266,8.225,20.423,11.415
		c2.385,1.063,3.358,0.687,3.355-2.04c-0.005-3.824-0.302-7.668,0.425-11.477c0.944-2.401-0.236-6.599,4.721-5.613
		c1.773,1.717,1.496,3.982,1.357,6.058c-0.494,7.341,1.076,14.444,2.237,21.597c0.413,2.544,1.372,4.575,4.125,5.628
		c4.316,1.651,4.416,2.74,1.112,6.016c-0.826,0.819-1.88,1.339-2.678,2.176c-4.118,3.005-7.797,6.457-10.723,10.665
		c-5.375,6.075-8.948,13.149-11.63,20.743c-0.781,2.213-1.534,4.089,1.744,4.905c2.484,0.618,2.856,3.494,4.813,5.236
		c2.348-3.324,3.816-8.381,8.655-7.757c5.086,0.655,5.374,6.122,7.588,10.139c1.028-1.209,1.835-2.618,2.931-3.757
		c4.106-4.267,7.002-4.03,10.404,0.939c0.939,1.371,1.754,2.827,2.524,4.301c2.593,4.965,7.94,6.261,12.497,3.054
		c1.389-0.977,1.712-2.345,1.802-3.896c0.167-2.866-0.264-5.701-1.103-8.373c-1.881-5.991-0.044-10.438,5.115-13.648
		c6.867-4.272,12.419-10.044,17.774-15.935c6.536-7.19,11.24-15.459,10.136-25.627c-0.898-8.275-2.966-16.325-7.475-23.524
		c-5.385-8.377-10.086-17.27-18.503-23.268c-2.316-1.65-4.8-2.978-7.172-4.508c-1.149-0.742-2.207-1.699-1.711-3.25
		c0.413-1.292,1.682-1.491,2.846-1.642c3.095-0.401,5.914,0.303,8.544,2.014c6.87,4.471,13.387,9.312,17.908,16.351
		c7.183,8.936,12.543,18.804,15.339,29.985c1.221,6.232,1.522,12.511,0.258,18.742c-0.745,3.672,0.497,5.288,4.134,5.551
		c7.93,0.573,15.654-1.782,24.616-0.658c-3.141-4.237-5.253-7.547-7.466-10.8c-7.637-12.265-8.198-25.781-6.95-39.594
		c0.18-1.987,0.542-3.96,0.568-5.961c-0.426-8.08,3.826-14.91,5.971-22.301c2.622-11.573,8.42-21.667,15.292-31.083
		c6.323-8.664,14.505-15.453,23.934-20.671c1.017-0.563,1.924-1.355,3.127-1.46c1.659-0.145,3.536-0.417,4.365,1.46
		c0.755,1.709-0.645,2.797-1.815,3.706c-4.6,3.573-9.052,7.292-13.116,11.49c-8.361,8.637-13.884,19.02-18.704,29.86
		c-4.259,9.593-6.303,19.826-8.686,29.961c-2.19,8.886-2.43,17.774-0.096,26.667c0.624,1.697,1.195,3.412,1.455,5.209
		c1.55,6.83,5.632,12.264,9.778,17.655c6.421,8.352,14.501,14.948,22.74,21.37c5.287,4.082,11.176,7.207,16.856,10.667
		c4.939,3.009,5.457,4.459,3.134,9.79c-1.046,2.401-1.36,3.842,1.674,4.877c2.268,0.774,9.407,0.742,11.601-0.692
		c3.76-2.458,7.322-1.771,9.994,1.849c1.489,2.016,2.01,4.552,3.529,6.508c1.134,0.073,1.424-0.849,1.907-1.463
		c5.32-6.752,9.542-6.798,15.399-0.287c1.682,1.871,2.447,5.013,5.909,4.68c4.996-0.482,9.955-1.184,14.269-3.992
		c1.64-1.067,1.282-2.898,1.07-4.581c-1.918-15.243-7.808-28.73-17.82-40.403c-4.55-6.58-4.404-6.508-0.43-13.214
		c2.964-5.001,6.858-9.339,9.71-14.415c1.314-2.339,2.402-4.703,3.087-7.275c1.173-3.006,1.724-6.231,3.184-9.137
		c1.366-2.457,1.926-5.091,1.743-7.894c0.971-8.378,1.475-16.784,0.75-25.191c-0.706-8.187-3.617-15.708-7.706-22.786
		c-4.92-9.164-11.301-17.13-19.388-23.722c-3.095-2.523-6.132-5.077-9.913-6.572c-1.724-0.682-3.186-1.783-3.98-3.572
		c0.194-5.141,3.363-3.5,6.165-2.718c1.575,0.781,3.111,1.658,4.82,2.154c1.206,0.439,2.376,0.955,3.495,1.589
		c24.388,14.949,35.764,37.362,37.515,65.325c0.569,9.095-1.403,17.843-3.376,26.598c-1.388,4.364-2.959,8.681-4.524,13.708
		c6.601-2.016,12.11-4.596,17.537-7.38c2.239-1.149,2.8-3.095,2.743-5.424c-0.045-1.827-0.07-3.658,0.006-5.491
		c0.067-0.985,0.26-1.929,0.865-2.74c2.67-0.559,2.328,1.558,2.526,2.997c0.293,2.126-0.03,4.315,0.642,6.811
		c4.284-0.623,7.178-3.762,10.581-5.849c9.976-6.118,18.797-13.673,26.867-22.11c1.351-1.412,2.814-2.863,3.178-4.957
		c0.108-2.941-1.746-5.371-2.108-8.175c-0.172-1.335-0.272-2.831,1.473-3.207c1.434-0.309,1.995,0.928,2.523,1.96
		c0.826,1.615,1.199,3.441,2.225,5.088c6.543-7.892,12.483-16.042,19.739-23.159c11.119-10.905,23.875-12.017,37.838-7.416
		c2.357,0.777,4.766,1.508,7.017,2.582c2.815,1.343,3.515,0.079,3.56-2.521c0.162-9.533-5.315-16.29-11.538-22.357
		c-13.524-13.185-30.312-19.388-48.786-21.408c-7.169-0.784-14.228,0.839-21.286,1.875c-5.908,0.867-11.805,1.672-17.562,3.501
		c-3.32,1.055-4.901,2.313-3.968,5.943c0.561,2.185,1.607,5.124-0.972,6.317c-2.742,1.269-3.715-1.98-5.299-3.504
		c-6.606-12.443-10.152-25.947-13.417-39.51c-8.517-35.387-19.158-69.96-38.436-101.236c-3.83-6.214-7.682-12.452-12.415-18.065
		c-7.408-10.32-16.035-19.529-25.719-27.715c-15.7-13.271-33.924-20.442-54.315-22.863c-22.189-2.634-44.073-0.991-65.885,3.169
		c-6.863,1.309-13.324,4.131-20.207,5.35c-2.38-0.922-4.606-2.115-7.437-1.229c-1.399,0.438-3.373,0.028-3.326-2.378
		c5.614-3.031,11.809-4.405,17.838-6.256c3.428,0.315,6.359-1.022,9.172-2.755c6.636-0.546,12.977-2.625,19.597-3.489
		c27.135-3.545,53.808-1.684,79.804,6.657c16.319,5.236,29.619,15.635,41.486,27.809c19.019,19.51,34.045,41.808,45.403,66.517
		c7.395,16.088,12.163,33.145,17.084,50.105c4.606,15.875,9.098,31.79,13.191,47.803c0.834,3.265,2.071,3.042,4.301,2.445
		c4.787-1.282,9.522-2.805,14.365-3.819c32.728-6.852,61.733-0.163,85.339,24.47c9.087,9.482,13.73,20.81,10.609,34.327
		c-0.853,3.695-3.154,4.987-6.771,5.121c-5.956,0.22-11.223-2.753-17.056-3.233c-13.037-1.073-15.193,0.116-21.397,11.804
		c-7.081,13.34-13.114,27.348-23.117,38.931c-20.757,24.038-45.644,42.315-75.536,53.452c-3.001,1.118-3.944,2.095-2.365,5.502
		c3.991,8.614,6.242,17.856,7.402,27.247c1.117,9.041-0.195,11.257-11.685,13.137c-11.954,1.956-24.121,2.448-36.13,3.707
		c-12.189,1.278-23.316-1.504-34.826-3.469c-3.021-0.516-3.899-2.287-3.926-5.282c-0.054-6.136,2.243-11.661,3.909-17.358
		c0.35-1.196,1.582-2.201,0.263-3.541c-1.224-1.243-2.486-0.722-3.645-0.095c-1.274,0.689-3.572,0.02-3.451,2.688
		c0.143,3.16-0.154,6.349,0.131,9.49c0.319,3.527-1.253,5.021-4.501,5.787c-12.611,2.974-25.442,2.72-38.245,2.754
		c-6.324,0.017-12.651-0.356-18.974-0.619c-7.29-0.304-8.415-1.309-8.875-8.251c-0.147-2.221-0.828-3.337-3.226-3.371
		c-7.676-0.107-15.255-0.993-22.673-3.096c-2.623-0.744-2.609,0.969-2.395,2.826c0.475,4.127,0.946,8.257,1.318,12.394
		c0.292,3.248-0.91,4.997-4.475,5.793c-13.673,3.05-27.51,4.762-41.46,4.301c-8.005-0.265-16.051-1.562-23.723-4.423
		c-3.062-1.142-4.143-3.017-3.722-6.068c1.478-10.697,3.455-21.253,9.551-30.479c1.361-2.06,1.723-3.306-0.96-4.544
		c-2.32-1.071-4.122-2.155-5.64,1.055c-2.104,4.45-5.756,7.584-9.754,10.264c-2.868,1.923-3.993,4.185-3.761,7.831
		c0.838,13.215,0.72,13.54-12.448,15.188c-11.072,1.386-22.335,1.573-33.378,0.31c-4.2-0.48-9.701-0.884-12.629-5.562
		c0.568-0.9,0.331-1.915,0.406-2.885c0.082-1.06,0.449-2.013,1.568-2.228c1.329-0.255,1.52,0.935,1.882,1.812
		c0.521,1.262,0.621,3.6,2.589,2.562c2.005-1.057,1.357-3.565,0.931-5.417c-0.52-2.258-2.009-0.881-3.073-0.398
		c-2.717,1.233-3.064,0.066-2.827-2.384C156.65,405.155,156.404,403.004,157.619,401.098z"/>
	<path class="st0" d="M251.21,44.176c-3.191-1.727-5.169,1.173-7.565,2.143c-7.104,2.877-12.048-0.471-11.781-8.249
		c5.091,5.887,5.059,5.821,12.798,1.981c2.99-1.484,5.789-3.543,9.311-3.738c1.353,1.641,3.372,2.688,4.242,4.764
		c0.052,0.457-0.052,0.879-0.283,1.274c-1.486,1.042-3.084,1.861-4.818,2.414C252.396,44.839,251.74,44.709,251.21,44.176z"/>
	<path class="st1" d="M157.619,401.098c-0.229,2.865-0.459,5.73-0.693,8.649c2.474-0.393,3.528-4.501,5.53-2.983
		c2.963,2.247,1.312,6.147,1.097,9.345c-0.113,1.681-1.668,1.724-3.075,1.573c-4.601-0.493-1.602-4.512-3.273-7.091
		c-0.856,2.151-1.546,3.883-2.236,5.614c-0.89-4.628,1.205-9.045,0.969-13.636C155.892,401.655,156.737,401.227,157.619,401.098z"/>
	<path class="st0" d="M264.952,32.199c1.403,1.403,3.131,2.075,4.822,0.92c2.823-1.928,4.032,0.211,5.532,1.833
		c-3.23,3.613-7.583,4.81-12.11,5.636c-2.114-1.651-4.061-3.47-5.53-5.748C259.862,33.317,262.281,32.412,264.952,32.199z"/>
	<path class="st2" d="M257.666,34.84c2.623,0.67,4.278,2.403,5.3,4.831c-1.153,2.309-2.917,2.761-5.177,1.701
		c-0.843-2.01-4.948-1.559-3.816-5.059C255.021,35.365,256.294,34.978,257.666,34.84z"/>
	<path class="st0" d="M291.962,23.189c-2.611,2.406-5.256,4.697-9.172,2.755C285.684,24.483,288.825,23.844,291.962,23.189z"/>
	<path class="st3" d="M276.667,251.182c-4.601-5.269-5.348-10.531-3.025-17.632c4.829-14.761,8.966-29.832,10.355-45.447
		c0.372-4.184,0.992-7.95,5.225-10.525c3.159-1.922,5.541-5.074,7.665-8.251c4.942-7.39,4.393-11.486-2.327-17.618
		c-2.454-2.239-4.995-4.37-8.062-5.627c-2.275-0.933-3.437-2.441-3.843-4.755c-2.848-16.245-7.956-31.776-14.829-46.743
		c-0.749-1.631-0.788-3.027,0.12-4.696c2.471-4.538,3.927-9.428,4.719-14.554c0.796-5.152-1.13-8.513-5.968-10.519
		c-3.962-1.643-8.055-1.889-12.23-1.906c-1.598-0.007-3.349,0.774-4.686-0.8c0.538-3.304,2.927-4.016,5.786-4.357
		c9.616-1.147,18.548-3.466,24.377-12.396c1.992-3.052,5.578-5.057,9.197-5.596c11.495-1.714,22.45-5.767,33.973-7.404
		c5.422-0.77,10.311,0.165,15.004,2.32c3.301,1.516,6.565,2.23,10.114,2.059c0.665-0.032-0.16,0.062,0.498-0.015
		c12.793-1.506,24.665,1.649,36.109,7.058c2.268,1.072,4.704,1.938,7.208,1.821c11.933-0.554,20.799,6.161,29.576,12.687
		c7.166,5.328,14.521,10.609,19.52,18.318c0.388,0.598,0.992,0.837,1.71,0.747c7.374,8.29,12.606,17.988,18.029,27.548
		c11.825,20.848,19.961,43.199,26.438,66.172c4.358,15.454,8.086,31.086,12.491,46.525c1.804,6.324,4.649,12.351,7.021,18.512
		c0.719,2.028-0.09,2.497-1.826,1.635c-1.944-0.966-2.522-3.014-3.379-4.797c-1.468-3.055-3.766-4.363-7.225-4.104
		c-15.407,1.156-30.871,0.683-46.28,2.961c-8.914,1.318-18.206,0.87-27.326,1.289c-5.08,0.233-8.076-2.825-8.251-8.504
		c-0.246-7.987-0.042-15.983-0.092-23.974c-0.012-1.971,0.332-4.041-1.252-5.665c-1.656-1.5-3.72-1.292-5.687-1.303
		c-8.473-0.047-16.947-0.069-25.42,0c-5.19,0.042-5.645,0.494-5.687,5.769c-0.086,10.798-0.008,21.597,0.005,32.394
		c-0.136,0.666-0.401,1.535-1.025,1.576c-6.021,0.393-11.278,3.906-17.342,4.136c-12.097,0.459-24.139,1.937-36.307,1.167
		c-5.767-0.365-11.453,1.658-17.271,2.163c-6.99,0.607-13.946,0.657-20.923,0.625c-5.782-0.026-5.738-0.144-3.816,5.157
		C278.327,248.283,279.996,250.371,276.667,251.182z"/>
	<path class="st4" d="M276.667,251.182c1.25-0.772,1.369-1.827,0.611-2.963c-0.55-0.824-1.588-1.45-1.831-2.325
		c-0.599-2.158-1.943-4.657-0.801-6.574c1.127-1.892,2.675,0.829,4.328,0.827c11.099-0.014,22.21,0.168,33.162-1.995
		c4.927-0.973,9.734-0.723,14.721-0.526c6.028,0.238,12.191-0.428,18.307-0.587c9.781-0.255,19.161-3.009,28.671-4.94
		c0.439-0.317,0.922-0.415,1.449-0.301c5.434,2.28,10.757,2.48,15.896-0.869c4.136-0.696,8.301-0.343,12.45-0.386
		c7.468-0.078,7.625-0.179,7.654-7.44c0.03-7.481,2.511-7.209,2.584,1.101c0.055,6.215,2.677,8.192,8.725,7.191
		c2.594-0.429,5.297-0.149,7.943-0.321c18.607-1.211,37.203-2.648,55.826-3.522c3.544-0.166,7.136-0.536,10.697-0.414
		c4.318,0.148,5.407,3.698,6.655,6.952c0.549,1.433,0.507,3.774,3.119,2.019c1.938,0.62,1.918,4.635,4.118,3.473
		c2.052-1.084,0.409-3.865-0.126-5.798c-1.105-3.985-0.149-5.832,4.284-6.977c12.623-3.261,25.414-5.918,38.371-5.311
		c22.022,1.032,41.202,9.173,55.804,26.301c4.792,5.621,8.114,12.01,7.789,19.822c-0.147,3.522-0.198,5.376-4.618,3.073
		c-4.338-2.26-9.107-3.744-14.001-4.91c-13.076-3.116-23.323,1.335-32.316,10.513c-6.832,6.973-12.272,15.078-18.824,22.49
		c-2.807-2.179-2.012-6.488-5.136-8.874c-1.094,4.683,3.734,7.771,2.444,12.071c-10.494,8.213-21.786,15.146-33.709,21.074
		c-3.526,1.753-7.033,3.343-10.99,1.296c-0.046,0.9-0.092,1.799-0.137,2.699c-4.299,4.16-9.871,5.409-15.424,6.607
		c-1.075,0.232-2.823,0.528-2.628-1.684c1.348-9.32,3.619-18.495,3.13-28.07c-1.203-23.524-11.35-42.579-28.649-58.043
		c-2.49-2.226-5.93-3.416-8.53-5.699c-0.214-2.041-1.505-1.677-2.819-1.262c-1.715,0.2-2.888-0.869-4.135-1.766
		c-0.961-3.005-3.519-2.242-5.356-1.773c-1.993,0.508-2.29,2.133-0.463,3.602c12.442,5.848,22.394,14.537,29.724,26.177
		c1.206,1.914,2.146,3.996,3.21,6c1.423,3.759-0.797,3.465-3.104,2.64c-2.101-0.751-3.335-1.365-3.871,1.906
		c-0.51,3.109-7.083,5.127-12.355,4.443c-1.422-4.518,0.607-9.139-0.727-13.784c-2.368-8.241-7.113-14.013-15.062-17.301
		c-21.341-8.826-40.648,3.208-51.276,17.869c-3.712,5.12-6.85,10.644-9.546,16.394c-0.778,1.659-1.596,3.329-3.474,4.073
		c-2.197-0.276-3.666-1.603-4.835-3.36c4.582-12.523,11.677-23.45,21.244-32.699c3.427-3.313,7.31-6.16,11.053-9.133
		c0.787-0.625,1.93-1.051,1.623-2.184c-0.441-1.627-1.967-0.977-2.91-0.768c-4.518,1-8.206,4.003-11.656,6.579
		c-10.88,8.124-19.072,18.803-24.826,31.092c-2.125,4.539-4.514,9.112-5.443,14.171c-8.191,0.016-16.368,0.293-24.521,1.159
		c-1.671,0.178-3.234-0.582-4.794-1.118c-4.242-2.806-8.03-6.65-13.768-6.07c-2.64-0.77-4.372-0.398-3.736,2.972
		c0.17,1.458,0.209,2.891-0.676,4.171c-1.332,1.063-3.127,1.316-4.059,0.123c-2.593-3.316-5.078-1.897-7.723-0.354
		c-0.426,0.249-0.91,0.392-1.375,0.562c-4.854,1.779-10.423,1.792-14.366,5.832c-1.947,0.096-3.892,0.066-5.836,0.023
		c-2.08,0.074-4.663-2.51-6.057,1.169c-0.444,0.191-0.908,0.275-1.39,0.277c-4.332-5.479-9.929-4.881-15.781-3.366
		c-2.024,0.524-4.469,1.239-3.809-2.511c3.346-5.797,6.693-11.593,10.038-17.391c1.14-1.975,3.037-1.576,4.817-1.546
		c3.033-1.012,6.37-0.982,9.203-2.683c3.482-1.488,6.693-3.376,9.245-6.242c2.14-3.669,1.641-7.32-0.075-10.963
		C277.566,253.807,277.116,252.495,276.667,251.182z"/>
	<path class="st5" d="M43.909,293.075c-4.639-9.294-6.516-19.449-8.933-29.404c-1.757-7.237-2.617-14.687-4.219-21.966
		c-0.897-4.078-0.694-5.952,4.433-5.772c11.32,0.397,21.84,3.978,32.396,7.325c18.041,5.72,36.379,8.175,55.015,4.556
		c15.618-3.033,26.864-12.722,35.28-26.003c4.789-7.558,8.085-15.773,10.888-24.246c0.565-0.323,1.13-0.646,1.695-0.968
		c2.411,3.054,4.821,6.107,7.232,9.161c0.144-6.292-4.112-9.761-7.552-13.717c0.441-2.354,1.145-4.418,3.695-5.466
		c8.747-3.594,17.497-7.19,25.976-11.396c12.144,6.578,19.401,16.747,22.609,30.111c1.648,6.867,1.509,13.774,1.506,20.714
		c-2.291,4.463-2.518,9.53-4.092,14.248c-2.359,7.07-6.165,10.957-13.187,14.015c-13.72,5.975-27.802,11.079-41.375,17.418
		c-7.528,3.516-15.215,6.761-22.898,9.97c-3.228,1.348-6.516,2.573-10.082,2.731c-1.17,0.052-2.411,0.101-3.344,0.857
		c-10.09,8.168-23.008,10.305-34.213,16.09c-5.623,2.903-11.666,4.86-17.315,7.725c-7.907,4.01-14.663,0.781-20.717-4.126
		C52.203,301.28,47.47,297.784,43.909,293.075z"/>
	<path class="st6" d="M228.177,44.627c4.819,6.893,9.585,13.823,14.49,20.654c1.325,1.845,1.927,3.659,1.961,5.956
		c0.168,11.303,5.213,19.912,14.833,25.819c1.495,0.918,2.505,2.148,3.146,3.734c4.156,10.281,7.676,20.764,10.897,31.386
		c2.169,7.153,1.334,13.514-1.892,19.9c-2.244,4.902-1.148,10.045-1.052,15.107c0.027,1.448,0.716,3.432-1.132,3.744
		c-2.042,0.345-2.515-1.724-2.809-3.373c-0.287-1.609-0.092-3.323-1.137-4.74c-1.563-5.039-1.31-10.048,0.104-15.03
		c-2.194,6.966-1.79,14-0.296,21.063c-4.433,2.121-7.393,6.369-11.955,8.32c-1.181,0.505-2.223,0.636-2.93-0.715
		c-0.214-3.988,3.905-5.633,4.601-8.661c-6.502,7.511-13.073,15.55-21.942,21.227c-1.617,0.389-3.4,1.034-3.932-1.401
		c-0.369-1.688,0.508-2.826,2.028-3.536c3.582-1.673,6.645-4.016,9.938-7.694c-6.338,1.97-10.677,6.615-17.26,5.841
		c0.653,2.495,2.542,4.254,1.371,6.45c-0.334,0.627-0.879,0.938-1.609,0.54c-7.956-11.205-20.005-18.124-29.274-27.952
		c-3.059-3.244-6.157-6.46-9.048-9.851c-3.092-3.627-3.135-8.222-3.35-12.649c-0.363-7.495-2.579-14.622-4.077-21.892
		c-0.586-0.547-0.624-1.215-0.436-1.935c3.878-3.849,0.132-6.925-1.055-10.264c0.41-2.606,0.411-5.403,3.203-6.9
		c2.131,0.379,3.24,2.23,4.827,3.391c2.734,2.001,5.547,1.999,8.449,0.498c0.888-0.459,1.851-1.038,1.601-2.239
		c-0.259-1.243-1.402-1.378-2.385-1.27c-5.806,0.638-8.949-2.596-11.037-7.444c-0.578-4.04,1.036-7.405,3.25-10.583
		c2.58-1.591,19.311,2.013,20.391-2.141c1.529-0.559,20.815-6.145,21.644-7.605c1.631-1.314,3.897-0.638,5.587-1.785
		c3.757-0.546,4.052-2.41,1.803-5.026c-3.037-3.532-5.944-7.162-8.443-11.089C222.952,48.869,223.928,46.421,228.177,44.627z"/>
	<path class="st7" d="M223.788,262.052c0.764,7.901-1.348,15.426-3.004,23.011c-4.379,12.271-10.411,23.74-16.92,34.983
		c-6.181,10.677-15.314,18.337-25.467,24.916c-10.413,6.747-21.599,12.028-33.804,14.26c-10.956,2.004-21.926,1.957-33.046-0.976
		c-17.041-4.495-31.55-13.025-44.678-24.424c-2.672-2.32-4.613-5.244-7.128-7.666c-0.743-1.311-1.485-2.622-2.228-3.933
		c7.31-7.275,15.666-7.804,25.116-4.696c6.888,2.265,14.088,3.443,21.346,4.535c9.521,1.433,18.719,0.497,28.104-0.13
		c8.693-0.581,16.686-3.357,24.193-7.157c19.41-9.824,34.521-24.648,46.738-42.474c4.199-6.126,7.931-12.557,12.86-18.183
		c2.272-2.593,3.813-1.856,5.529,0.416C223.09,256.772,222.548,259.689,223.788,262.052z"/>
	<path class="st8" d="M199.817,175.177c-5.296,5.777-13.05,6.839-19.641,10.115c-3.691,1.834-7.84,2.762-10.031,6.747
		c-4.668-2.904-9.33-5.831-15.233-3.647c0.275,2.318,1.939,1.506,2.819,1.796c3.92,1.29,5.246,3.524,3.614,7.449
		c-0.431,1.038-0.392,2.271-0.569,3.414c-1.656,0.222-2.135-1.139-2.121-2.154c0.067-4.816-2.766-3.464-5.18-2.439
		c-10.683,4.535-21.283,9.261-31.955,13.826c-15.549,6.651-31.313,12.803-46.672,19.907c-3.614,1.672-7.496,2.714-11.953,1.742
		c0.348,2.802,3.534,2.738,4.025,5c-1.748,1.311-3.453,0.744-5.158,0.181c-5.878-1.023-11.46-3.171-17.24-4.606
		c-11.132-2.765-21.651-1.99-32.052,2.651c-4.638,2.07-6.064,1.277-6.537-3.704c-0.897-9.455,0.81-18.597,3.838-27.531
		c1.808,1.635,1.461,3.981,1.914,6.034c1.394,6.314,4.582,8.91,11.133,7.304c9.66-2.368,19.215-5.311,27.83-10.552
		c4.525-2.753,9.503-4.812,13.093-8.981c5.005-5.814,4.428-9.347-2.222-13.013c-2.838-1.564-5.792-2.358-9.056-2.314
		c-5.487,0.075-10.984,0.205-16.461-0.091c-1.77-0.096-4.869,0.794-4.186-3.036c8.965,0.097,17.935,0.716,26.891-0.203
		c1.81-0.186,3.955,0.063,5.351-0.825c5.308-3.373,8.349-0.607,11.312,3.432c3.118,4.251,6.383,8.361,7.887,13.567
		c0.524,1.813,1.552,3.479,2.962,5.045c-0.196-4.021,0.334-8.116-1.582-11.736c-2.55-4.818-2.401-8.745,0.905-13.559
		c6.18-9,12.549-17.682,21.608-23.944c3.505-2.423,7.497-4.125,11.712-5.12c4.164-2.793,8.739-3.899,13.719-3.341
		c2.5,3.546-0.319,5.301-2.552,7.039c-2.156,1.678-4.931,2.539-6.535,4.955c-8.576,7.892-5.709,29.031,4.389,35.744
		c1.71,1.489,3.581,1.949,5.753,0.96c0.218-1.618-1.801-2.297-1.534-3.866c4.059-6.125,5.25-12.774,3.748-19.95
		c-0.17-0.811,0.166-1.641,0.651-2.352c3.093-1.271,3.341,1.071,3.516,2.999c0.313,3.449,0.533,6.936-0.805,10.289
		c-0.218,0.597,0.716,0.472,0.077,0.281c-0.115-0.034,0.043-0.175,0.094-0.486c0.374-2.28,2.412-2.458,3.987-3.228
		c5.927-2.899,12.378-4.62,18.059-8.061c0.308-0.113,0.646-0.232,0.944-0.144c9.289,2.719,10.364,2.167,13.102-6.768
		c2.254-1.851,4.962-0.651,7.426-1.097C188.061,164.832,192.834,171.154,199.817,175.177z"/>
	<path class="st9" d="M223.788,262.052c-2.234-2.005-2.032-5.223-3.741-7.503c-0.939-1.253-1.758-2.06-3.01-0.322
		c-10.81,15.006-20.103,31.149-34.283,43.578c-11.27,9.879-23.182,18.096-37.758,22.713c-7.789,2.468-15.595,2.312-23.337,3.652
		c-9.672,1.675-18.863-1.508-28.284-2.233c-4.159-0.32-8.184-2.236-12.297-3.323c-6.569-1.736-13.209-3.556-19.054,1.854
		c-1.337,1.237-2.798,1.702-4.509,1.754c-5.744-9.152-10.981-18.539-13.605-29.147c4.496,1.955,7.334,6.025,11.195,8.796
		c1.339,0.961,2.458,2.226,3.79,3.198c6.918,5.049,13.408,5.318,21.503,1.109c12.145-6.314,25.245-10.786,37.911-16.105
		c3.313-1.392,7.016-2.227,9.049-5.718c0.537-0.922,1.539-1.303,2.582-1.234c7.359,0.491,13.425-3.387,19.772-6.06
		c12.223-5.147,24.022-11.41,36.483-15.843c8.205-2.919,15.768-7.376,24.247-9.494c3.658-0.913,5.936-4.77,6.427-6.97
		c1.002-4.497,4.299-8.276,3.956-13.05c-0.189-2.62,0.747-4.523,3.109-5.701l0.043-0.009c0.563,10.43,0.629,20.859-0.035,31.287
		C223.89,258.871,223.839,260.462,223.788,262.052z"/>
	<path class="st10" d="M470.752,338.032c-1.973,7.932-7.334,13.914-12.046,20.164c-3.539,4.695-5.337,8.873-0.752,13.728
		c1.814,4.783-1.012,8.557-3.316,11.974c-5.475,8.121-13.735,11.965-23.312,12.486c-15.112,0.822-29.303-2.62-42.385-10.356
		c-13.519-9.34-25.038-20.461-31.904-35.745c-0.476-1.06-1.185-2.02-1.001-3.271c1.668-5.972,2.449-6.546,8.704-6.392
		c6.655,0.164,13.321,0.511,19.7-2.073c1.225-0.496,2.622-0.696,3.939-0.469c10.49,1.805,20.961,0.02,31.357-0.695
		c7.045-0.485,14.183-1.535,21.215-2.783c4.282-0.759,7.418-3.656,10.902-5.874c7.03-4.475,10.576-3.656,14.884,3.654
		C467.918,334.384,471.06,334.984,470.752,338.032z"/>
	<path class="st11" d="M231.803,69.161c-1.281,2.701-3.244,1.753-5.177,0.968c-2.469,1.17-5.16,1.949-6.421,4.852
		c-0.431,0.992-1.729,1.509-2.774,2.021c-2.177,1.067-4.584,1.92-6.363-0.303c-2.044-2.554,0.391-4.195,1.856-5.89
		c0.758-0.877,1.743-1.529,2.601-2.307c1.763-1.598,4.923-2.694,3.923-5.665c-0.952-2.828-3.401-4.93-6.259-6.055
		c-3.677-1.447-8.093,0.479-11.153,4.593c-2.467,3.317-2.515,6.69-0.242,10.148c1.308,1.99,3.796,3.443,3.039,6.417
		c-0.36,5.658-2.006,6.715-7.95,5.109c-2.94-0.03-3.764-2.756-5.382-4.38c-2.486-2.495-0.671-4.396,1.29-6.153
		c0.657-0.589,0.929-1.401,0.412-2.199c-0.562-0.867-1.424-0.65-2.203-0.332c-1.071,0.436-2.115,0.961-3.29,0.314
		c-0.369-0.365-0.633-0.79-0.81-1.277c-1.274-5.463,0.928-11.029-0.751-15.925c0.802,4.38,0.789,9.292-0.479,14.138
		c-0.355,0.538-0.658,1.055-1.49,1.051c-1.292-0.005-2.266-2.332-3.427-0.955c-1.239,1.469,0.073,3.111,0.911,4.527
		c2.569,4.341-0.79,6.206-3.431,8.472c-2.818,2.418-5.186,2.496-7.4-0.78c-0.582-0.861-1.423-2.307-2.724-1.474
		c-1.253,0.802-0.499,2.161,0.165,3.06c1.992,2.695,1.657,5.584,0.967,8.547c-0.166,0.164-0.335,0.327-0.504,0.49
		c-5.411-9.806-11.244-19.326-18.719-27.74c-1.255-1.413-0.688-3.19-0.76-4.799c-0.333-7.527-0.243-15.121-4.482-22.846
		c0.785,8.421,1.484,15.917,2.289,24.549c-7.581-6.904-14.974-12.036-23.426-15.468c8.833-20.77,32.812-36.422,54.404-35.649
		c5.05,0.181,9.782,1.751,14.584,3.031c1.739,0.464,2.647,1.661,3.106,3.483c2.951,11.723,11.551,17.471,22.35,20.755
		c2.614,0.795,5.069,1.577,5.729,4.672c0.597,1.719-0.654,2.818-1.479,3.952c-2.745,3.775-2.359,7.464,0.381,10.901
		c2.452,3.077,4.224,6.677,7.267,9.303C231.424,65.559,232.189,67.174,231.803,69.161z"/>
	<path class="st12" d="M313.914,329.917c11.361,21.632,12.172,37.521-7.608,56.097c-4.817,4.523-9.856,8.74-15.314,12.451
		c-2.61,1.775-3.68,3.959-2.906,7.2c1.041,4.362,1.614,8.81,1.803,13.318c0.101,2.428-0.723,3.794-3.057,4.3
		c-0.65,0.141-1.288,0.336-1.937,0.48c-8.569,1.903-8.573,1.904-12.553-5.589c-0.231-0.435-0.262-0.984-0.521-1.395
		c-1.4-2.224-2.504-5.267-5.357-5.449c-3.208-0.204-4.351,3.18-6.124,5.273c-0.787,0.929-0.457,2.969-2.256,2.842
		c-1.985-0.14-0.759-2.117-1.374-3.105c-1.873-3.006-2.03-8.101-6.048-8.468c-4.047-0.37-5.37,4.142-6.991,7.345
		c-0.441,0.871-0.925,1.72-1.556,2.887c-3.105-2.658-2.013-10.101-9.758-7.084c3.042-10.845,6.595-20.526,14.371-28.137
		c0.485,0.154,0.991,0.385,1.191,0.831c2.613,5.859,2.6,5.838,9.246,4.667c10.728-1.891,20.857-5.324,29.85-11.631
		c1.565-1.097,3.94-2.065,3.386-4.435c-0.59-2.528-3.119-2.736-5.285-2.837c-7.815-0.362-15.614-0.601-22.708,3.672
		c-1.848,1.113-3.883,2.254-5.733-0.137c1.931-1.843,3.862-3.685,6.75-6.442c-8.848,1.018-8.594-4.572-9.895-9.696
		c-2.087-8.219-0.924-16.536-1.847-24.754c3.226,2.288,3.579,6.293,1.847,9.621c0.27-3.784,3.717-6.262,9.132-6.806
		c4.72-0.474,9.244-0.28,13.6,1.688c4.395,0.427,8.109,2.798,12.018,4.495c3.861,1.676,7.962,2.147,11.93,3.198
		c2.763,0.732,5.579-0.23,7.844-2.21c1.508-1.118,1.376-2.812,1.581-4.401C310.042,334.558,311.147,331.777,313.914,329.917z"/>
	<path class="st13" d="M470.752,338.032c-1.305-2.741-3.157-4.17-6.787-1.958c2.089-2.805,2.202-4.709-0.119-6.522
		c-2.482-1.938-4.974-3.503-8.138-1.693c-1.726,0.988-3.363,2.143-4.987,3.297c-3.797,2.698-7.534,5.353-12.554,5.339
		c-8.116-0.022-15.984,2.203-24.081,2.837c-10.063,0.788-20.249-0.654-30.053,1.071c-6.281,1.105-12.484,2.166-18.656,1.482
		c-4.896-0.542-7.479,1.131-9.34,5.128c-0.418-1.593-0.837-3.186-1.256-4.779c-1.54-9.437-1.262-18.875-0.014-28.314
		c1.745-10.321,3.891-20.523,8.827-29.902c2.098,0.084,3.343,1.349,4.256,3.074c1.681,1.889,0.546,3.643-0.122,5.535
		c-2.43,6.884-4.713,13.824-4.568,21.261c0.202,10.359,6.768,14.663,16.835,12.605c13.911-2.843,26.651-8.123,38.38-15.877
		c12.208-8.071,23.97-16.713,30.494-30.52c2.845-0.752,5.497-2.073,8.497-2.453c1.309-0.166,3.544-0.665,2.613-3.217
		c-1.995-5.468,1.448-2.731,3.611-2.56c1.349,0.107,3.802,4.538,4.254-0.728c5.671,7.99,8.335,17.015,9.107,26.67
		c0.625,7.821-0.103,15.578-1.283,23.306c-1.369,2.417-0.906,5.267-1.838,7.787C472.804,331.945,471.778,334.989,470.752,338.032z"
		/>
	<path class="st14" d="M313.914,329.917c-3.191,3.814-1.84,9.37-5.054,13.175c-1.83-5.281-0.937-11.285-4.391-16.147
		c-5.677-7.993-10.885-16.474-21.452-18.936c-3.47-0.808-6.872-0.896-10.332,0.126c-5.963,1.761-9.314,5.802-9.757,11.844
		c-0.377,5.137,2.895,8.619,6.701,11.532c1.315,1.006,2.904,1.62,4.32,2.486c1.515,0.926,3.389,1.678,2.911,4.065
		c-4.219-1.331-8.426-2.388-12.971-2.007c-5.281,0.443-9.016,2.487-10.026,9.295c-2.23-5.088,0.704-9.634-2.181-13.229
		c-4.256,0.152-1.803,4.435-3.714,6.031c-1.385,1.099-2.778,0.719-4.155-0.002c-6.987-3.657-14.068-7.159-20.271-12.127
		c3.664-7.423,8.993-13.768,13.484-20.654c2.508-3.845,4.356-8.178,7.758-11.424c0.38,2.584,1.904,2.252,3.572,1.354
		c1.954-1.052,4.009-0.893,6.145-1.051c4.606-0.34,8.601-0.262,10.466,4.89c0.13,0.714-0.087,1.378-0.64,1.768
		c-5.843,4.127-8.008,10.355-9.686,16.86c-0.206,0.572-0.502,1.108-0.76,1.662c-0.188,0.402-0.411,1.107-0.024,1.188
		c0.864,0.18,0.589-0.744,0.798-1.213c1.263-10.741,10.636-21.157,21.912-21.391c0.498-0.01,0.89-0.373,1.113-0.852
		c0.653-0.065,1.879-0.177,1.878-0.19c-0.441-5.438,3.658-3.412,6.291-3.959c3.039-0.631,6.018-1.501,8.762-3.097
		c2.435-1.416,5.151-3.938,6.627,1.218c0.409,1.43,2.297,0.835,3.565,0.936c1.95,1.643,2.64,4.172,4.249,6.052
		c2.428,2.839,4.979,5.602,9.241,3.957c4.214-1.626,5.574-4.868,4.489-10.093c-0.136-0.656-0.267-1.29,0.087-1.914
		c7.512,1.166,15.004,0.331,22.389-0.818c3.042-0.473,4.947,1.29,7.417,1.822c-1.69,7.405-5.812,14.15-5.965,21.973
		c-7.785-0.693-15.59-0.466-23.39-0.541c-3.235-0.031-6.444-0.312-7.165,4.112c-0.129,0.79-1.17,1.083-2.03,0.44
		c-5.049-6.384-10.9-11.869-17.948-16.011c-0.713-0.419-1.382-0.965-2.149-1.232c-2.465-0.858-6.084-2.335-7.207-0.016
		c-1.382,2.854,2.847,2.895,4.553,3.874C302.036,309.793,308.235,319.603,313.914,329.917z"/>
	<path class="st15" d="M61.763,237.115c1.315,0,2.63,0,5.071,0c-2.092-0.959-3.451-1.185-4.129-1.986
		c-1.015-1.199-2.875-2.608-2.251-4.128c0.819-1.993,2.583-0.108,3.901,0.048c4.357,0.515,8.238-1.105,11.986-2.794
		c20.27-9.135,40.916-17.373,61.37-26.07c5.624-2.391,10.931-5.588,16.803-7.354c2.22-0.668,7.179-4.09,4.991,3.149
		c-0.246,0.814,0.133,2.34,1.272,3.072c-2.187,10.601-8.634,18.711-15.597,26.485c-17.137,19.134-38.735,21.124-62.066,15.808
		C75.893,241.7,68.574,240.236,61.763,237.115z"/>
	<path class="st16" d="M547.844,307.083c-0.725-2.888,1.301-4.518,2.821-6.469c6.179-7.928,11.874-16.246,18.783-23.586
		c10.307-10.951,23.769-12.711,37.94-5.096c-2.055,0.489-4.016,0.187-5.953-0.247c-13.047-2.92-20.968,0.675-26.576,12.817
		c-10.229,22.149-24.188,41.513-42.523,57.598c-8.786,7.708-18.267,14.536-29.183,20.362c0.043-4.477,1.782-8.439,0.357-12.524
		c-1.075,2.349-0.673,4.861-1.085,7.212c-1.755,10.019-10.975,10.139-17.523,13.788c-0.848,0.473-1.915,0.533-2.828,0.91
		c-10.771,4.45-10.719,4.426-16.973-5.688c-0.89-1.439-0.455-1.991,0.255-3.282c4.69-8.535,12.447-12.657,21.232-15.568
		c3.837-1.271,7.522-3.002,11.45-4.595c1.375,4.491-2.019,8.466-0.948,12.829c1.316-1.043,1.375-2.598,1.372-3.737
		c-0.033-11.299,9.245-14.361,16.674-18.942c11.322-6.982,20.922-15.904,29.799-25.694c1.897-0.466,2.27,0.997,2.839,2.198
		C547.937,308.635,547.766,307.854,547.844,307.083z"/>
	<path class="st17" d="M59.741,326.155c4.92,4.042,9.733,8.222,14.781,12.096c10.881,8.349,22.725,14.387,36.097,18.365
		c9.837,2.926,19.398,2.491,29.042,2.21c7.489-0.218,14.808-3.13,21.679-6.213c12.617-5.662,24.241-12.921,33.865-23.117
		c7.358-7.795,11.541-17.491,16.531-26.697c2.569-4.74,4.924-9.635,6.38-14.893c0.365-1.32,1.47-2.182,2.667-2.843
		c0.998,6.525-1.746,12.553-3.339,18.495c-3.721,13.881-8.526,27.507-16.424,39.749c-7.778,12.056-19.126,19.558-32.297,24.263
		c-17.468,6.239-35.413,6.148-53.561,3.176c-22.233-3.641-37.762-16.496-49.485-34.882
		C63.639,332.665,61.046,329.803,59.741,326.155z"/>
	<path class="st18" d="M223.602,189.221c3.035-3.389-1.073-4.711-2.364-7.794c8.397,1.112,14.161-5.254,21.838-6.476
		c-2.645,4.665-6.318,8.113-11.222,10.085c-1.276,0.513-2.169,0.986-1.9,2.368c0.406,2.081,1.89,0.296,2.802,0.652
		c5.728-1.215,8.787-6.222,13.204-9.301c1.538-1.072,2.464-3.197,4.856-2.76c3.557-0.745,7.882-1.46,8.702-5.268
		c0.986-4.577,1.992-3.537,4.147-1.085c0.081,0.092,0.77-0.351,1.176-0.544c1.101-2.222-1.455-5.091,1.245-7.029
		c3.919,1.662,0.026,6.007,3.272,8.448c0.976-4.82,0.16-9.427,0.499-13.952c0.122-1.632-0.875-3.801,1.756-4.489
		c-1.304,10.275-1.88,20.345,4.754,29.45c1.674,2.298,0.216,5.491-0.191,8.238c-0.362,2.447-0.983,4.856-1.489,7.282
		c-4.401,13.553-10.69,26.049-20.377,36.674c-1.811,1.986-3.797,3.745-6.076,5.12c-8.391,5.061-16.522,0.081-16.831-10.409
		c-0.132-4.483,0.035-8.964-1.287-13.32C229.91,205.987,228.139,197.256,223.602,189.221z"/>
	<path class="st19" d="M442.854,77.35c-0.862,2.415-1.826,0.485-2.273-0.117c-5.279-7.106-12.342-12.344-19.284-17.505
		c-8.664-6.44-17.308-13.039-29.293-12.852c-7.246,0.113-13.833-3.924-20.422-6.801c-2.675-1.168-5.132-2.109-8.033-2.01
		c-2.827,0.097-5.671-0.14-8.488,0.053c-7.354,0.504-14.369-0.336-21.206-3.453c-7.302-3.329-14.964-1.143-21.74,1.289
		c-5.536,1.986-11.238,2.742-16.756,3.785c-7.443,1.407-13.1,4.146-17.581,10.281c-4.871,6.669-12.768,7.704-20.179,8.918
		c-3.015,0.494-5.811,0.581-7.815,3.17c-1.77-0.435-1.745-2.153-2.412-3.375c-0.417-1.865,1.315-2.023,2.261-2.603
		c5.156-3.167,8.348-7.421,8.106-13.739c0.018-0.34,0.036-0.679,0.053-1.019c1.723-0.566,3.447-1.132,5.173-1.699
		c4.114-1.575,8.226-3.148,12.34-4.721c29.806-10.416,60.5-12.713,91.532-8.524c26.014,3.512,47.121,16.727,64.421,36.274
		C435.397,67.38,439.472,72.083,442.854,77.35z"/>
	<path class="st20" d="M388.942,386.029c2.812,0.329,5.218,1.719,7.8,2.723c10.759,4.181,21.841,7.003,33.587,6.353
		c13.792-0.763,25.415-8.891,27.625-23.18c7.134,8.148,13.224,16.74,15.203,27.848c0.797,4.469,2.585,8.799,3.318,13.391
		c0.538,3.367-0.287,5.182-3.544,6.518c-4.363,1.79-8.961,2.292-13.468,3.287c-1.963,0.434-3.679-0.274-4.497-2.249
		c-0.858-2.072-2.436-3.561-3.919-5.102c-3.763-3.909-6.974-3.811-10.432,0.276c-1.475,1.744-2.796,3.618-4.271,5.542
		c-6.19-14.828-10.401-16.083-19.449-2.416c-2.723-2.831-3.205-8.429-9.077-7.349c-1.296,0.238-1.074-1.538-0.812-2.344
		c0.558-1.714,1.4-3.336,2.148-4.986c1.269-2.799,1.086-4.617-2.101-6.447C400.807,394.306,394.164,391.216,388.942,386.029z"/>
	<path class="st16" d="M389.97,394.615c-22.651,7.794-44.696,9.677-67.901,7.094c3.135-4.75,8.496-6.986,9.499-12.57
		c-3.754,3.723-7.168,7.776-11.705,10.572c-2.094,1.29-13.286,0.402-14.75-1.308c-0.959-1.121-0.095-1.785,0.676-2.411
		c6.676-5.421,12.877-11.274,17.613-18.555c1.086-1.67,2.949-1.817,4.903-1.66c11.636,0.935,23.272,0.751,34.902-0.191
		c1.318-0.107,2.849-0.508,3.859,0.479C373.873,382.716,381.471,388.412,389.97,394.615z"/>
	<path class="st21" d="M33.514,177.667c0.548,2.391,2.5,1.768,4.045,1.787c5.485,0.068,10.985,0.279,16.453-0.024
		c4.202-0.233,7.748,1.039,11.185,3.158c6.433,3.966,6.99,7.817,2.032,13.696c-4.949,5.869-11.915,8.742-18.395,12.24
		c-6.922,3.737-14.443,6.231-22.078,7.991c-10.829,2.496-14.78-0.79-15.166-11.712c-0.029-0.829-0.08-1.658-0.121-2.487
		c1.945-7.181,4.963-13.779,9.339-19.898C24.177,177.706,27.863,175.488,33.514,177.667z"/>
	<path class="st22" d="M230.115,215.113c1.652,1.717,1.58,3.886,1.709,6.059c0.206,3.464,0.018,6.906,0.643,10.405
		c1.5,8.405,11.025,9.253,15.769,5.719c8.045-5.993,12.969-14.261,17.723-22.812c3.169-5.699,4.73-12.177,8.728-17.436
		c0.471,6.646-2.59,12.6-3.844,18.906c-1.189,5.982-3.318,11.796-5.301,17.593c-1.225,3.58-3.36,6.398-6.304,9.187
		c-8.023,7.601-13.343,16.931-11.715,28.599c0.418,2.999-1.661,4.222-2.711,6.068c-5.374,9.448-11.732,18.258-18.874,28.351
		c0.492-3.918,0.62-6.417,1.139-8.832c5.564-25.939,6.132-52.058,2.995-78.326C229.936,217.45,230.094,216.273,230.115,215.113z"/>
	<path class="st23" d="M139.688,109.969c-0.021-0.323,0.051-0.623,0.216-0.901c0.088-0.141,0.282-0.316,0.249-0.419
		c-3.516-11.18,5.2-19.005,7.884-28.478c0.677-2.39,2.531-4.279,4.936-5.375c3.511,4.426,6.391,9.241,8.843,14.321
		c1.372,2.069,3.541,3.645,3.922,6.33c-0.299,5.068-0.3,10.096,0.271,15.191c0.404,3.605,1.782,4.992,5.177,4.833
		c2.195,0.967,2.993,2.463,1.788,4.713l-0.109-0.032c-0.493,0.447-0.821,1.203-1.384,1.407c-4.496,1.629-6.279,4.838-7.171,9.518
		c-0.944,4.952-3.068,5.528-9.708,4.528c-2.593,0.161-5.163-0.345-7.777,0.635c-3.961,1.485-6.06,0.009-5.949-4.231
		c0.091-3.466-0.649-6.869-0.41-10.318c0.141-2.038-0.423-3.893-1.4-5.654C138.26,113.91,138.745,111.916,139.688,109.969z"/>
	<path class="st24" d="M314.127,317.061c0.435-0.211,1.272-0.514,1.248-0.621c-1.513-6.671,3.239-5.32,6.842-5.345
		c5.481-0.038,10.966,0.097,16.443-0.053c2.929-0.081,5.595,0.423,8.052,2.008c-0.596,9.605-1.816,19.149-0.063,28.835
		c1.117,6.17,4.159,11.428,6.279,17.116c-0.273,2.629-2.483,2.378-4.124,2.491c-4.606,0.316-9.23,0.169-13.848,0.076
		c-3.544-0.071-4.888-1.758-4.661-5.32c0.218-3.417,0.56-6.955-1.291-10.155C326.15,335.337,320.585,325.971,314.127,317.061z"/>
	<path class="st25" d="M103.916,143.087c-3.284-15.567-8.306-30.556-14.944-45.01c4.945-1.62,9.475-4.044,13.696-7.067
		c1.805-1.292,3.412,0.272,5.122,0.36c4.164,3.494,6.83,8.023,8.937,12.937c2.204,8.392,2.038,17.547-0.428,22.665
		c1.271-0.076,2.017-1.126,3.074-1.569c2.337-0.977,4.81-2.308,6.517,0.737c1.54,2.747-0.474,4.31-2.494,5.629
		c-2.889,1.887-5.312,4.03-5.104,7.893c-0.576,1.348-2.012,2.439-3.03,2.008C111.104,139.91,107.627,142.163,103.916,143.087z"/>
	<path class="st26" d="M182.905,158.907c-1.925,2.932-4.78,0.287-7.045,1.175c-2.009-0.127-3.181-1.621-4.539-2.798
		c-1.9-1.646-4.064-2.304-6.443-1.408c-2.708,1.02-2.659,3.501-2.747,5.839c-0.069,1.812,0.204,3.643-0.296,5.432
		c-0.459,2.725-2.972,3.164-4.849,3.675c-5.186,1.412-9.59,4.693-14.765,5.931c-2.034,0.487-2.036,2.261-3.371,3.683
		c0-4.078,0.043-7.726-0.02-11.372c-0.027-1.554,0.585-3.508-1.854-3.982c-2.851-2.856-5.097-6.122-6.677-9.841
		c2.61-4.03,6.473-7.24,7.901-12.056c0.334-0.37,0.73-0.651,1.181-0.859c1.45-0.494,2.943-0.496,4.448-0.415
		c0.769,0.072,1.488,0.281,2.087,0.798c6.248,0.464,12.487,0.202,18.681,2.106C172.616,147.279,178.169,152.439,182.905,158.907z"/>
	<path class="st27" d="M182.838,371.061c9.676-8.086,9.598-7.974,19.993-0.753c4.999,3.472,10.245,6.631,15.591,9.543
		c3.194,1.739,3.148,3.649,1.139,5.898c-2.958,3.312-6.165,6.401-9.246,9.605c-1.963,2.042-3.736,4.063-3.247,7.333
		c1.931,12.912,2.156,13.803-13.31,13.344c-3.326-2.743-3.438-6.189-2.064-9.883c1.391-3.738,2.912-7.428,3.841-11.32
		c1.722-7.215-2.405-16.043-9.105-19.177C184.362,374.682,182.419,373.865,182.838,371.061z"/>
	<path class="st28" d="M182.838,371.061c1.222,0.612,0.959,2.253,2.403,2.939c10.569,5.023,14.182,13.361,10.678,24.268
		c-0.604,1.879-1.107,3.833-2.013,5.565c-2.14,4.092-2.472,8.102-0.147,12.198c-1.09-0.057-2.379,0.481-2.881-1.16
		c-0.288-0.94-0.839-1.798-1.136-2.735c-0.99-3.12-2.714-6.485-5.917-6.444c-2.992,0.039-4.46,3.526-5.474,6.521
		c-1.692-0.577-2.052-2.153-2.249-3.446c-0.451-2.964-1.267-6.045-4.421-6.443c-2.968-0.375-4.025,2.881-5.568,5.203
		c-3.496-2.962-2.823-6.414-1.38-9.909c2.033-4.928,5.276-9.144,8.323-13.442c1.925-2.716,3.79-5.114,3.973-8.81
		C177.166,372.592,180.693,372.288,182.838,371.061z"/>
	<path class="st29" d="M30.339,171.639c-2.104,0.098-2.174-1.425-1.676-2.649c5.487-13.487,11.125-26.894,24.395-34.962
		c3.264-1.985,6.763-3.274,10.56-3.735c1.863-0.226,3.229,0.417,3.909,2.25c1.821,8.069-2.015,15.803-0.115,24.411
		c-3.264-1.354-2.914-3.208-3.257-4.73c-0.209-0.929-0.05-2.195-1.28-2.404c-1.127-0.192-1.724,0.865-2.286,1.664
		c-4.105,5.839-8.173,11.705-12.318,17.91c3.395,1.636,7.509-0.481,10.202,2.889C49.044,173.547,39.663,174.725,30.339,171.639z"/>
	<path class="st30" d="M125.941,108.486c-5.132-9.867-11.672-18.671-19.946-26.126c-1.848-1.665-2.427-3.006-1.108-5.516
		c3.058-5.819,5.572-11.922,8.508-17.809c0.52-1.043,0.692-2.798,2.35-2.938c1.842-0.155,1.934,1.7,2.441,2.728
		c8.243,16.704,14.411,34.055,16.032,52.778c0.385,0.908,0.647,1.832,0.362,2.828c-0.661,1.701-1.668,2.979-3.699,2.981
		C127.662,115.31,126.581,112.02,125.941,108.486z"/>
	<path class="st31" d="M152.973,74.796c-4.307,5.3-6.45,11.62-8.548,17.976c-0.35,1.06-0.938,2.249-1.784,2.901
		c-3.019,2.326-2.942,5.074-1.887,8.345c0.523,1.621,2.019,3.827-0.851,5.051c-0.655-1.826-1.825-3.543-1.192-5.641
		c-0.672-2.427-0.048-5.155-1.708-7.353c-0.104-0.881-0.208-1.762-0.313-2.643c-0.757-2.488-1.22-5.078-2.559-7.365
		c-3.498-12.61-8.804-24.37-16.359-35.097c-0.903-1.282-2.622-2.819-1.482-4.395c1.24-1.714,3.075-0.168,4.526,0.344
		c10.236,3.617,17.717,11.005,24.933,18.648C148.421,68.395,150.581,71.705,152.973,74.796z"/>
	<path class="st16" d="M208.789,365.215c-1.137-0.951-2.775-1.362-3.252-3.022c2.124-4.681,5.786-5.757,10.26-3.014
		c3.725-0.673,6.382-3.14,9.047-5.52c2.228-1.99,4.068-2.895,7.252-1.125c4.71,2.617,9.935,4.309,14.941,6.393
		c4.164,1.733,5.672,9.451,2.436,12.462c-0.483,0.45-0.954,0.913-1.415,1.385c-9.332,9.552-9.506,9.555-21.28,2.924
		c-1.861-1.048-3.895-1.789-5.849-2.672c-0.839-0.585-1.846-0.7-2.78-1.026c-4.655-1.623-4.954-3.924-0.612-7.616
		C214.419,365.976,211.707,367.349,208.789,365.215z"/>
	<path class="st32" d="M256.676,373.014c4.266,1.038,7.262-2.161,10.784-3.432c7.307-2.639,14.662-2.075,21.828-0.534
		c4.425,0.952,4.642,4.37,0.783,7.158c-6.222,4.496-12.748,8.255-20.389,10.288c-4.885,1.3-9.686,2.864-14.711,3.626
		c-6.769,1.026-7.19,0.718-7.628-5.884c-0.031-0.462-0.401-0.901-0.614-1.351C249.316,378.86,252.584,375.522,256.676,373.014z"/>
	<path class="st33" d="M107.79,91.37c-4.79-0.037-8.275,2.648-11.665,5.561c-2.134,1.834-4.853,0.232-7.154,1.146
		c-5.277-10.011-11.915-19.064-19.271-27.633c-0.767-0.893-2.408-1.934-1.604-3.338c0.957-1.67,2.76-0.579,4.067-0.328
		c11.574,2.226,20.271,9.43,28.683,16.999C103.384,86.061,105.488,88.826,107.79,91.37z"/>
	<path class="st34" d="M223.545,326.024c5.44,1.171,9.317,5.301,14.216,7.514c3.403,1.537,6.373,4.028,10.21,4.615
		c-0.044,4.145-0.234,8.295-0.08,12.433c0.094,2.526-0.718,3.637-3.01,2.353c-4.393-2.461-9.182-3.995-13.35-7.144
		c-3.644-2.754-8.138-4.446-11.965-7.24c-2.941-2.147-3.125-4.149-1.018-6.457C220.328,330.149,221.083,327.378,223.545,326.024z"/>
	<path class="st35" d="M30.339,171.639c9.006,1.645,18.04,0.428,27.072-0.062c-3.951,0-7.902,0-12.481,0
		c5.485-7.909,10.582-15.33,15.784-22.677c0.71-1.002,1.61-2.428,3.173-1.977c1.849,0.534,1.615,2.278,1.644,3.756
		c0.029,1.477,0.006,2.954,0.438,4.449c-0.223-7.595,1.564-15.022,1.559-22.585c1.839,3.669,0.763,7.477,0.358,11.186
		c-0.837,7.67-0.977,15.261,1.32,22.723c0.982,3.189,0.377,5.255-3.319,5.95c-10.364,1.948-20.756,2.769-31.227,1.108
		C33.134,173.267,31.202,173.57,30.339,171.639z"/>
	<path class="st36" d="M275.215,160.018c0.779-3.755,0.186-9.07,4.313-11.069c4.75-2.3,8.109,2.182,11.229,5.137
		c5.141,4.869,5.227,8.742,0.484,14.035c-2.416,2.696-4.967,5.383-7.882,7.482c-2.151,1.549-4.705,2.334-5.723-1.974
		C276.6,169.242,275.876,164.842,275.215,160.018z"/>
	<path class="st37" d="M273.516,260.084c-0.138,5.364-2.334,6.171-9.767,8.595c-3.453,1.126-8.226,3.96-11.196,0.542
		c-2.685-3.089,0.736-7.229,1.786-10.676c1.424-4.669,4.183-8.839,8.039-12.182c1.87-1.621,3.284-1.913,5.073-0.151
		C270.029,248.75,273.525,256.651,273.516,260.084z"/>
	<path class="st38" d="M255.961,66.655c1.196,0.061,2.367,0.048,3.518,0.191c9.157,1.137,10.688,3.518,7.472,12.014
		c-1.393,3.679-3.131,7.229-4.737,10.826c-1.067,2.391-2.536,2.694-4.617,1.022c-6.228-5.003-8.931-11.851-9.289-19.441
		C248.068,66.175,252.551,66.793,255.961,66.655z"/>
	<path class="st39" d="M219.714,23.047c-0.46,2.1,1.381,5.891-0.88,6.993c-2.478,1.208-5.385-1.304-7.823-2.994
		c-3.554-2.463-6.275-5.648-9.043-8.939c-3.227-3.836-2.356-6.496,1.275-8.916c2.843-1.895,5.678-3.806,9.051-4.816
		c3.353-1.004,4.966,0.115,5.638,3.432C218.924,12.695,219.705,17.593,219.714,23.047z"/>
	<path class="st40" d="M329.006,346.093c2.569,1.493,1.783,4.034,1.857,6.236c0.297,8.812-1.173,7.839,8.077,7.681
		c4.656-0.08,9.477,1.291,13.988-1.01c2.821,3.749,5.642,7.499,9.19,12.215c-10.995-0.851-20.782,1.792-30.735,0.345
		c-2.472-0.359-3.869-0.447-2.773-3.807C330.921,360.668,330.338,353.344,329.006,346.093z"/>
	<path class="st34" d="M499.922,324.351c14.058-1.797,24.858-10.273,36.114-17.75c2.744-1.823,5.014-4.384,8.585-4.62
		c-7.934,11.23-18.821,19.202-29.863,26.988c-2.414,1.702-4.959,3.227-7.493,4.751c-5.219,3.139-5.998,2.679-6.274-3.245
		C500.895,328.415,501.759,326.127,499.922,324.351z"/>
	<path class="st41" d="M215.797,359.179c-3.859-0.489-7.65-0.746-10.26,3.014c-5.856-2.63-5.907-3.033-2.262-7.703
		c2.937-3.763,5.872-7.57,8.335-11.643c1.25-2.067,1.879-2.143,3.668-0.812c2.639,1.962,5.474,3.673,8.292,5.381
		c2.408,1.46,2.021,2.923,0.239,4.532C221.137,354.357,218.467,356.768,215.797,359.179z"/>
	<path class="st0" d="M164.793,95.218c-0.532-2.258-3.275-3.438-2.976-6.101c3.658,0.814,5.261,4.311,8.096,6.199
		c2.791-0.348,2.922,2.486,4.349,3.877c0.979-1.92,1.215-3.89,1.969-5.686c1.798-8.311,5.215-16.087,7.874-24.115
		c1.403-1.181,2.349-0.513,3.14,0.779c0.219,0.087,0.403,0.222,0.552,0.405c-0.52,3.364-1.376,6.628-2.888,9.696
		c-1.074,3.642-3.274,6.975-3.015,10.983c0.186,2.509-0.045,4.885-2.123,6.675c-1.501,2.232-1.972,4.838-2.668,7.361
		c-0.168,3.382,0.495,6.696,0.815,10.038c-0.021,0.516-0.043,1.032-0.065,1.547c-1.825,0.809-2.69,3.033-4.878,3.307
		c-0.475-1.491-0.245-3.343-2.112-4.119c-0.61-0.529-0.642-1.188-0.43-1.902c2.302-3.774,1.705-5.383-2.628-7.042
		C164.294,103.784,166.606,98.981,164.793,95.218z"/>
	<path class="st42" d="M481.732,331.973c5.871,1.507,10.237-2.578,15.289-4.113c0.918-0.279,1.842-0.54,2.763-0.809
		c-0.125,12.358,2.267,9.513-9.219,14.749c-4.049,1.846-8.19,3.494-12.322,5.153c-0.53,0.213-1.256-0.06-2.226-0.133
		C477.994,341.687,479.863,336.83,481.732,331.973z"/>
	<path class="st43" d="M386.8,408.959c1.043,5.603-2.419,6.545-6.075,6.984c-3.784,0.454-7.684-0.129-11.398,0.987
		c-5.386,1.617-7.733-1.825-9.86-5.716c-0.843-1.542-0.003-1.966,1.397-2.278c7.931-1.766,16.07-2.221,24.013-4.101
		C388.605,403.952,386.118,407.99,386.8,408.959z"/>
	<path class="st25" d="M117.874,140.006c-2.863-4.98,1.199-6.773,4.185-9.029c1.527-1.154,4.852-1.242,2.899-4.449
		c-1.854-3.044-3.721-0.21-5.518,0.335c-1.067,0.324-2.022,1.017-3.979,2.044c2.559-8.6,0.762-16.618,1.267-24.6
		c2.799,1.373,1.904,5.012,4.131,6.736c2.968,1.88,2.377,5.806,4.66,8.082c1.916,4.662,3.724,9.359,4.503,14.374
		c0.966,3.908-1.279,5.822-4.601,6.046C122.92,139.714,120.407,140.245,117.874,140.006z"/>
	<path class="st44" d="M154.726,135.289c7.906-0.417,8.361-0.808,9.038-9.128c0.2-2.453,0.826-4.289,3.651-4.091
		c2.161,0.152,3.379-2.033,5.451-1.919c0.033,0.618,0.065,1.235,0.098,1.852c1.354,3.916,1.133,8.173,2.617,12.06
		c0.165,2.431,0.33,4.863,0.55,8.107c-7.142-3.864-14.21-5.087-21.371-5.936c-0.274-0.2-0.371-0.407-0.29-0.62
		C154.553,135.398,154.638,135.289,154.726,135.289z"/>
	<path class="st45" d="M425.87,429.345c-7.522-0.013-8.871-2.03-5.725-8.727c1.035-2.202,2.066-4.464,3.493-6.41
		c2.661-3.631,5.236-3.179,7.129,1.055c0.605,1.354,1.132,2.743,1.682,4.121C435.636,427.362,434.315,429.359,425.87,429.345z"/>
	<path class="st11" d="M231.803,69.161c-1.606-4.052-5.203-6.606-7.699-10.004c-6.571-8.946-6.875-10.265-0.292-18.997
		c2.621,0.345,4.134,1.774,4.366,4.463c-3.595,2.748-3.91,5.536-0.715,9.028c2.979,3.255,5.516,6.921,8.157,10.473
		c0.761,1.024,2.747,1.818,1.154,3.625C235.43,69.276,234.034,70.714,231.803,69.161z"/>
	<path class="st46" d="M250.336,429.775c-7.52-0.159-7.799-0.825-6.089-7.874c0.873-3.6,2.168-6.917,3.964-10.067
		c0.945-1.657,2.407-2.543,3.747-0.33c2.975,4.912,4.038,10.547,4.169,16.036C256.204,430.806,252.159,429.236,250.336,429.775z"/>
	<path class="st0" d="M117.874,140.006c1.795-1.851,3.767-1.875,6.308-1.501c2.707,0.398,5.593-0.481,4.802-4.515
		c6.402,0.176,10.025,3.388,9.971,8.841c-0.049,0.188-0.15,0.342-0.301,0.464c-1.904,1.359-3.829,1.323-5.772,0.085
		c-4.857-0.151-9.248,2.254-14.021,2.556c-4.258-3.079-8.376-4.977-13.368-0.894c-2.059,1.684-1.429-0.934-1.577-1.954
		c0.92-0.69,6.193-5.698,8.763-2.507C113.855,142.04,116.069,139.984,117.874,140.006z"/>
	<path class="st47" d="M92.489,156.59c-0.768-12.327,0.694-23.908,1.312-36c2.264,1.835,2.405,3.916,2.768,5.998
		c0.881,5.053,1.684,10.141,2.98,15.094C101.301,148.384,97.944,152.514,92.489,156.59z"/>
	<path class="st48" d="M444.24,429.301c-2.011-0.792-5.288,1.223-5.453-2.651c-0.179-4.211,4.833-12.12,7.326-12.058
		c2.055,0.051,8.201,8.596,7.194,11.67C451.953,430.393,447.246,428.128,444.24,429.301z"/>
	<path class="st49" d="M264.02,429.984c-3.791,0.709-4.874-1.429-3.864-5.114c1.159-4.227,2.133-10.783,6.016-10.772
		c3.57,0.011,4.833,6.59,5.664,10.894C272.693,429.429,271.933,429.86,264.02,429.984z"/>
	<path class="st50" d="M410.371,427.774c-2.632-0.849-6.816,0.647-7.941-3.625c-0.704-2.671,4.442-10.141,6.482-10.335
		c2.329-0.222,5.66,6.395,5.818,11.108C414.84,428.207,412.569,427.559,410.371,427.774z"/>
	<path class="st0" d="M154.726,135.289c0.068,0.313,0.079,0.628,0.035,0.945c-0.817,0.017-1.639-0.023-2.448,0.063
		c-1.841,0.195-4.941-1.414-3.862,2.988c0.216,0.883-1.632,2.271-2.531,3.425c-0.682,0.01-1.361,0.021-2.04,0.032
		c-3.295-4.329-9.409-6.408-10.188-12.749c2.497-1.817-0.154-5.151,2.068-7.058c2.501,0.105,3.14,1.945,3.784,3.475
		c0.722-2.945-0.772-6.272-0.377-9.646c0.192-0.458,0.519-0.779,0.978-0.965c2.679,4.969,2.176,10.403,1.979,15.692
		c-0.129,3.46,0.229,4.987,4.272,3.99C149.027,134.832,151.939,135.314,154.726,135.289z"/>
	<path class="st19" d="M257.737,42.39c2.616,4.56-0.09,7.84-2.744,11.062c-2.026,2.46-4.857,3.85-7.627,5.28
		c-4.167-0.255-4.753-1.178-3.031-4.783c2.432-3.525,7.048-5.151,8.374-9.636C254.272,43.376,255.571,41.747,257.737,42.39z"/>
	<path class="st51" d="M175.773,415.788c-0.256,1.499,0.805,3.242-1.473,3.824c-2.877,0.736-5.712,0.133-8.274-0.821
		c-1.667-0.621-0.458-2.652-0.081-3.971c0.896-3.142,1.781-6.283,3.736-9.031c1.433-2.014,2.281-2.829,3.529,0.178
		C174.555,409.208,175.439,412.5,175.773,415.788z"/>
	<path class="st52" d="M236.489,428.033c-6.494-0.039-7.926-1.985-5.721-7.681c1.04-2.687,1.579-7.153,4.603-6.962
		c3.502,0.221,3.276,4.628,3.741,7.66c0.125,0.815,0.388,1.609,0.597,2.411C240.532,426.606,240.278,428.89,236.489,428.033z"/>
	<path class="st53" d="M352.16,420.528c-1.716-1.209-5.944,2.095-6.22-2.558c-0.268-4.525,3.099-7.905,6.875-7.985
		c3.133-0.066,6.21,3.813,6.265,7.899C359.115,420.472,358.968,420.532,352.16,420.528z"/>
	<path class="st54" d="M334.272,419.589c-2.273-1.721-6.687,1.837-7.188-3.047c-0.411-4.006,3.736-5.896,10.334-5.711
		c4.745,0.133,3.738,3.734,3.603,6.062C340.706,422.325,336.355,417.94,334.272,419.589z"/>
	<path class="st0" d="M124.736,119.067c-3.707-1.507-1.975-5.644-3.877-8.023c1.692-0.855,3.383-1.71,5.078-2.561
		c1.632,2.781,3.261,5.559,4.889,8.337c1.42,3.846,4.342,7.225,3.655,11.728c-1.959,1.963-2.805-0.157-3.845-1.135
		C128.114,125.038,126.615,121.912,124.736,119.067z"/>
	<path class="st55" d="M183.607,420.604c-1.92-0.615-4.819,1.135-4.768-2.704c0.042-3.125,4.121-11.325,5.266-10.559
		c3.59,2.399,4.019,6.64,4.375,10.43C188.827,421.453,185.336,419.927,183.607,420.604z"/>
	<path class="st56" d="M136.627,17.671c0.754-5.69,1.088-10.418,5.612-13.001c3.658-2.09,6.355,0.838,10.15,2.397
		C146.39,9.764,141.815,12.948,136.627,17.671z"/>
	<path class="st57" d="M85.939,128.035c-0.557,5.187-1.047,9.746-1.539,14.322C76.712,137.991,78.438,132.158,85.939,128.035z"/>
	<path class="st19" d="M252.709,44.312c0.595,6.156-4.575,7.303-8.375,9.638c-3.715-4.1-3.626-4.945,1.249-6.789
		c2.035-0.77,3.886-1.733,5.626-2.985C251.71,44.221,252.21,44.267,252.709,44.312z"/>
	<path class="st58" d="M176.91,94.072c-0.026,0.326,0.054,0.713-0.094,0.969c-1.162,2.012,0.099,5.7-2.86,6.093
		c-1.84,0.244-0.973-3.35-2.522-4.587c-0.51-0.407-1.014-0.822-1.521-1.232c0.434-1.902-0.966-3.385-1.176-5.141
		c0,0,0.218-0.345,0.218-0.345C174.596,89.035,175.449,89.49,176.91,94.072z"/>
	<path class="st59" d="M208.789,365.215c4.554,1.643,7.667-2.463,11.75-3.286c0.278,2.795-1.918,3.113-3.278,3.845
		c-3.348,1.803-3.119,3.286,0.052,4.885c1.294,0.652,2.859,0.895,3.616,2.368c-3.671,0.387-7.431,0.888-8.037-4.338
		C212.601,366.188,208.823,367.937,208.789,365.215z"/>
	<path class="st10" d="M354.767,313.92c0.005,9.437,0.01,18.875,0.015,28.313C351.624,332.798,352.358,323.359,354.767,313.92z"/>
	<path class="st60" d="M103.558,66.438c-1.456,2.865-0.611,6.748-4.4,6.699c-1.778-0.023-5.27-2.305-4.747-3.283
		C95.985,66.906,99.639,67.133,103.558,66.438z"/>
	<path class="st0" d="M134.076,114.373c0.048-0.929,0.095-1.859,0.143-2.779c2.395,1.376,3.741-0.764,5.469-1.625
		c0.152,1.943,0.303,3.887,0.455,5.83c-0.2,0.209-0.394,0.423-0.581,0.644c-0.94,1.515-1.647,3.364-4.031,2.815
		C133.652,118.046,133.971,116.177,134.076,114.373z"/>
	<path class="st7" d="M223.941,257.281c0.011-10.429,0.022-20.858,0.034-31.287C225.523,236.424,225.502,246.854,223.941,257.281z"
		/>
	<path class="st3" d="M434.911,238.962c-1.561,1.314-2.151-0.295-2.376-1.111c-0.371-1.346,0.433-2.755,1.651-3.216
		c2.871-1.086,5.749-1.029,8.188,1.229c0.643,0.596,0.605,0.638-1.643,1.269C438.59,237.105,435.468,233.954,434.911,238.962z"/>
	<path class="st61" d="M547.844,307.083c1.654,2.148,1.373,4.325,0.375,6.819c-2.896-1.69-0.163-5.579-3.285-6.73
		C545.836,304.927,546.865,306.843,547.844,307.083z"/>
	<path class="st14" d="M278.015,255.119c2.713,3.636,3.171,7.288,0.075,10.963C279.562,262.418,278.576,258.77,278.015,255.119z"/>
	<path class="st0" d="M175.581,134.063c-2.409-3.687-2.226-7.937-2.617-12.061C174.956,125.781,175.161,129.945,175.581,134.063z"/>
	<path class="st14" d="M268.845,272.324c-2.52,2.77-5.939,2.456-9.202,2.684C262.486,273.347,265.775,273.211,268.845,272.324z"/>
	<path class="st10" d="M473.831,328.902c0.437-2.637-1.237-5.773,1.838-7.788C475.907,323.911,475.151,326.473,473.831,328.902z"/>
	<path class="st3" d="M444.865,238.899c0.539-2.192,1.626-2.275,3.002-0.708c0.542,0.617,2.473,1.569-0.183,1.97
		C446.744,239.74,445.804,239.32,444.865,238.899z"/>
	<path class="st23" d="M137.004,96.074c3.329,1.81,1.515,4.814,1.708,7.353C137.889,101.035,136.767,98.712,137.004,96.074z"/>
	<path class="st23" d="M134.132,86.067c2.764,1.791,2.322,4.695,2.559,7.364C135.121,91.225,134.712,88.616,134.132,86.067z"/>
	<path class="st3" d="M374.865,232.101c-0.344-0.001-0.687-0.002-1.031-0.002c-1.085-0.828-0.993-2.026-0.993-3.189
		c0.002-11,0.065-22-0.031-32.999c-0.024-2.717,0.775-3.896,3.679-3.866c10.999,0.114,21.999,0.046,32.999,0.043
		c1.525,0,3.11-0.118,3.389,1.993c-0.008,11.252-0.109,22.505,0.032,33.755c0.04,3.196-0.926,4.413-4.227,4.307
		c-6.281-0.202-12.574-0.043-18.862-0.034C384.834,234.493,379.849,233.578,374.865,232.101z"/>
	<path class="st62" d="M367.849,166.796c0.028,1.667-0.006,4.632-2.414,7.605c-5.475,6.759-13.868,6.069-17.83-1.77
		c-3.386-6.7,3.437-18.192,10.296-18.612C364.66,153.605,367.855,156.899,367.849,166.796z"/>
	<path class="st19" d="M306.631,59.1c-2.655-0.002-5.312,0.012-7.968-0.009c-1.179-0.01-2.427-0.046-2.702-1.564
		c-0.208-1.15-0.236-2.317,0.543-3.332c3.682-4.8,20.419-8.663,26.322-5.933c1.897,0.877,4.484,1.847,4.325,4.269
		c-0.128,1.944-2.492,2.68-4.164,3.791C317.856,59.731,312.22,59.047,306.631,59.1z"/>
	<path class="st63" d="M397.761,65.495c-3.019-3.236-5.85-6.026-9.557-7.914c-3.548-1.807-7.886-0.705-11.265-3.384
		C385.794,50.6,398.147,57.058,397.761,65.495z"/>
	<path class="st64" d="M437.25,98.549c9.769-0.737,18.551,9.324,15.288,17.444C450.378,107.534,444.403,102.95,437.25,98.549z"/>
	<path class="st65" d="M324.985,43.942c-7.06,0.379-14.005-0.628-21.452,2.542C308.429,40.091,319.998,39.083,324.985,43.942z"/>
	<path class="st66" d="M459.378,155.157c6.964,2.859,9.002,6.458,7.67,12.901c-0.152,0.736,0.073,1.771-1.092,1.903
		c-0.963,0.109-1.508-0.41-1.728-1.34c-0.569-2.404,0.052-4.996-1.135-7.296C462.071,159.343,459.641,158.252,459.378,155.157z"/>
	<path class="st67" d="M406.499,71.695c4.204-0.554,9.249,3.233,9.297,6.614c0.009,0.655,0.043,1.452-0.736,1.555
		c-0.572,0.075-1.234-0.251-1.798-0.52c-0.239-0.114-0.28-0.585-0.493-0.82C410.738,76.292,408.689,74.076,406.499,71.695z"/>
	<path class="st68" d="M448.87,280.097c-1.309,7.468-5.898,12.988-11.342,17.649c-11.171,9.564-23.072,18.045-36.716,23.957
		c-8.115,3.517-16.708,5.106-25.154,7.186c-6.056,1.491-13.284-5.237-13.722-12.14c-0.366-5.767,0.69-11.343,2.115-17.047
		c1.072-4.293,3.907-8.032,3.799-12.609c4.595-6.228,7.182-13.626,11.842-19.858c10.083-13.484,22.122-22.755,40.134-22.293
		c12.567,0.323,21.892,5.21,27.646,16.319c2.297,4.435,2.97,9.387,2.022,14.432C449.221,277.148,449.075,278.628,448.87,280.097z"/>
	<path class="st69" d="M517.625,232.851c3.482-3.218,6.706-4.474,9.956-5.51c12.384-3.946,25.271-5.258,37.802-2.533
		c7.373,1.603,14.683,5.007,21.567,8.817c7.307,4.044,13.719,9.044,19.69,14.831c2.809,2.722,3.315,6.912,6.641,9.152
		c0.566,0.381,0.639,1.239,0.077,1.761c-0.879,0.815-1.465,0.007-2.056-0.548c-2.997-2.815-5.743-5.909-8.588-8.846
		c-7.455-7.692-16.459-13.019-26.264-16.081c-7.358-2.298-15.403-3.335-23.53-2.458
		C541.598,232.656,530.209,233.763,517.625,232.851z"/>
	<path class="st24" d="M322.871,290.072c3.4,5.522,2.674,8.837-2.717,12.413c-4.31,2.858-8.225,1.901-11.644-3.057
		c-1.559-2.26-3.849-4.217-3.703-7.359c0.009-1.662,0.019-3.323,0.029-4.984c0.686-1.87,1.673-3.341,4.01-3.017
		C314.746,283.209,319.385,285.295,322.871,290.072z"/>
	<path class="st70" d="M277.682,297.16c0.397,0.707,3.45,1.84-0.182,1.96c-8.304,0.277-14.264,4.352-18.426,11.221
		c-1.745,2.88-3.085,6.038-3.339,9.508c-0.646,0.691-0.164,2.822-1.768,2.075c-1.578-0.736-0.829-2.456-0.356-3.804
		c0.884-8.064,4.46-14.517,11.359-18.982c0.319,0.046,0.609-0.023,0.872-0.207c1.463-1.369,3.57-0.859,5.187-1.777
		C273.247,297.156,275.465,297.158,277.682,297.16z"/>
	<path class="st3" d="M374.865,232.101c4.985,0.002,9.971,0.004,14.956,0.007C385.663,236.047,379.644,236.045,374.865,232.101z"/>
	<path class="st71" d="M538.658,278.819c5.277,1.643,7.533,5.594,8.224,10.74C544.14,285.979,541.399,282.399,538.658,278.819z"/>
	<path class="st14" d="M271.029,297.153c-1.621,0.907-3.18,1.997-5.187,1.777C265.992,293.73,269.143,297.287,271.029,297.153z"/>
	<path class="st14" d="M308.846,284.068c-1.337,1.006-2.673,2.011-4.01,3.017C304.507,283.758,305.479,283.027,308.846,284.068z"/>
	<path class="st11" d="M204.834,77.939c-0.917-1.368-1.655-2.911-2.785-4.071c-3.225-3.311-4.322-7.038-2.44-11.324
		c2.088-4.754,6.989-7.771,11.838-7.547c2.84,0.131,9.313,5.17,10.213,7.845c0.634,1.886-0.711,2.758-1.789,3.71
		c-2.478,2.189-5.058,4.262-7.54,6.448c-0.837,0.737-1.879,1.567-0.982,2.925c0.724,1.096,1.856,1.399,3.056,1.206
		c2.398-0.386,5.506-1.879,5.617-3.513C220.395,68.126,208.076,80.194,204.834,77.939z"/>
	<path class="st11" d="M184.908,80.272c-0.187-3.578,0.292-6.957,2.89-9.701c2.17-0.093,2.978-4.105,5.726-2.175
		c1.647,1.157-2.275,17.256-4.338,14.868C188.044,81.945,187.173,80.058,184.908,80.272z"/>
	<path class="st72" d="M202.775,153.432c9.897-19.783,19.196-38.369,28.341-56.649c2.293,3.773-0.68,7.92-2.104,11.952
		c-1.585,4.488-4.041,8.585-7.265,12.297c-3.875,4.46-4.224,10.684-6.852,15.846C211.915,142.73,208.883,148.474,202.775,153.432z"
		/>
	<path class="st6" d="M179.77,97.93c0.091-2.422,0.77-4.656,2.123-6.676c3.049,3.248,5.319,7.927,11.286,5.257
		c1.674-0.749,2.486,1.218,3.131,2.517c0.812,1.634-0.459,2.33-1.57,3.103C189.384,105.857,185.062,104.654,179.77,97.93z"/>
	<path class="st63" d="M250.835,101.989c-7.643-1.277-12.428-6.098-14.32-13.142c-1.603-5.968-1.611-12.274,1.129-18.259
		C238.372,82.797,238.555,94.907,250.835,101.989z"/>
	<path class="st73" d="M250.816,175.995c-5.173,4.125-9.51,9.294-15.462,12.44c-0.862,0.456-2.122,2.332-2.599-0.378
		c8.303-5.963,15.191-13.327,21.265-21.496c0.837-1.126,1.452-3.41,3.076-2.481c1.991,1.14-0.168,2.53-0.82,3.608
		C254.563,170.522,252.65,173.235,250.816,175.995z"/>
	<path class="st74" d="M266.086,162.07c-0.191,1.921,0.008,3.77,0.611,5.634c0.596,1.844-0.688,1.648-1.856,1.395
		c-4.166-9.337-2.586-21.489,4.729-26.66C265.562,149.423,265.446,155.704,266.086,162.07z"/>
	<path class="st6" d="M177.917,115.33c-2.373-3.176-3.362-6.465-0.817-10.04C182.055,110.913,182.071,111.115,177.917,115.33z"/>
	<path class="st75" d="M130.862,155.137c2.508,3.026,4.904,6.121,6.115,9.945c0.361,2.958,0.921,5.907,1.038,8.874
		c0.21,5.329-1.667,9.956-5.36,13.827c-0.065,0.151-0.128,0.302-0.194,0.452c-0.702,1.598,3.053,2.68,0.806,4.019
		c-1.515,0.903-3.853,0.851-5.448-0.858c-3.941-1.531-5.724-5.096-7.65-8.406c-5.103-8.773-3.848-22.366,2.529-29.102
		c1.278,0.959,1.25,2.312,1.129,3.693c-1.372,5.5-2.482,11.041-0.357,16.589c1.24,3.236,2.706,7.752,6.381,7.242
		c3.293-0.457,2.435-5.09,2.692-8.134c0.464-5.502-0.594-10.525-4.236-14.848c-0.643-0.763-1.065-1.681-0.838-2.758
		C128.397,154.185,129.541,154.092,130.862,155.137z"/>
	<path class="st76" d="M92.837,186.962c6.957,0.106,5.77-2.427,5.178-6.173c-1.378-8.723-1.539-17.65,5.791-24.47
		c1.995-1.857,4.141-4.211,7.306-2.807c2.911,1.291,2.964,4.265,2.888,6.866c-0.202,6.971-0.981,13.846-4.218,20.227
		C106.936,186.215,101.079,188.96,92.837,186.962z"/>
	<path class="st77" d="M161.835,167.147c-1.87-2.921-1.253-6.18-0.679-9.157c0.824-4.277,6.847-5.452,10.653-2.229
		c1.497,1.268,2.71,2.87,4.052,4.32c-0.124,3.197,0.903,6.663-3.198,8.568C168.587,170.544,165.044,170.546,161.835,167.147z"/>
	<path class="st26" d="M130.862,155.137c-1.107-0.056-2.197-0.038-3.137,0.678c-1.619,0.658-2.737,2.523-4.842,2.008
		c0.074-1.317,0.744-2.662-0.183-3.934c0.351-2.636,2.76-2.87,4.512-3.885c2.66-1.542,5.506-2.944,5.67-6.627
		c1.918-0.511,3.844-0.468,5.773-0.084C138.424,148.799,134.657,151.977,130.862,155.137z"/>
	<path class="st5" d="M178.535,171.47c-0.164-2.271,1.252-3.306,3.244-3.283c2.615,0.029,4.49,1.84,4.781,4.153
		c0.313,2.491-1.722,3.638-4.165,3.757C179.099,176.258,178.82,173.898,178.535,171.47z"/>
	<path class="st15" d="M127.819,191.397c1.858,0.37,3.619,1.685,5.662,0.589c0.357-2.386-3.582-1.01-2.962-3.37
		c0.114-0.434,1.394-0.562,2.136-0.832c0.796,1.605,5.102,2.063,2.382,4.552C133.3,193.924,129.883,194.385,127.819,191.397z"/>
	<path class="st78" d="M418.499,372.973c-10.522,4.361-20.871,4.349-30.894-1.402C397.798,374.089,408.134,373.113,418.499,372.973z
		"/>
	<path class="st79" d="M416.057,365.947c-7.46-1.761-14.525-1.332-21.659,0.701c-1.557,0.444-4.2,2.798-5.036,0.169
		c-0.773-2.432,2.615-1.647,4.056-2.367c5.038-2.516,10.512-2.739,16.031-2.432C412.362,362.181,414.732,363.22,416.057,365.947z"/>
	<path class="st80" d="M403.887,371.007c-2.479,0-4.957,0.018-7.436-0.011c-0.762-0.009-1.808,0.178-1.745-1.062
		c0.044-0.859,0.561-1.624,1.528-1.635c5.117-0.058,10.236-0.101,15.353-0.05c1.055,0.011,1.934,0.752,1.745,1.928
		c-0.181,1.125-1.295,0.738-2.01,0.757c-2.477,0.066-4.957,0.026-7.435,0.026C403.887,370.976,403.887,370.992,403.887,371.007z"/>
	<path class="st81" d="M402.987,358.819c-6.849,1.399-13.687,2.549-19.2,7.386C387.349,359.368,394.525,356.659,402.987,358.819z"/>
	<path class="st11" d="M176.91,94.072c-1.342-3.87-5.222-2.979-7.955-4.242c-0.934-3.11,0.459-6.727-2.757-9.443
		c-1.319-1.114-0.254-3.834,1.254-4.777c1.58-0.989,2.331,1.251,3.475,2.042c1.474,1.02,1.996,4.167,3.588,3.551
		c2.483-0.961,4.504-3.196,6.609-5.019c1.038-0.899,0.793-2.086-0.01-3.113c-0.407-0.52-0.884-0.984-1.301-1.496
		c-1.946-2.39-1.448-5.313,0.514-6.644c2.259-1.533,2.379,2.459,4.192,3.025c0.37,0.18,0.527,0.404,0.471,0.672
		c-0.06,0.289-0.141,0.434-0.244,0.434c-1.938,5.381-2.254,11.266-5.324,16.317C177.835,87.987,180.05,91.821,176.91,94.072z"/>
	<path class="st82" d="M213.803,43.462c-12.181,1.499-23.158-8.755-23.194-21.747c2.588,4.71,4.551,9.795,9.021,13.226
		C204.043,38.326,208.394,41.698,213.803,43.462z"/>
	<path class="st83" d="M184.745,69.062c-0.076-0.367-0.152-0.735-0.227-1.104c0.641-5.373,1.543-10.732,0.822-16.234
		c4.19,5.799,2.552,12.176,1.906,18.446C186.411,69.802,185.578,69.432,184.745,69.062z"/>
	<path class="st84" d="M198.211,51.114c-7-3.347-10.636-10.748-7.795-15.803C190.98,41.584,195.845,45.36,198.211,51.114z"/>
	<path class="st85" d="M276.861,338.062c-1.059-2.936-4.151-3.127-6.312-4.478c-8.399-5.253-10.886-11.746-7.324-20.155
		c2.159-5.096,12.29-8.608,19.311-7.009c6.407,1.46,11.423,4.87,15.544,9.838c5.382,6.487,10.79,12.877,11.128,22.016
		c0.062,1.69-0.277,3.213-0.348,4.817c-3.717,3.215-7.552,2.642-12.23,1.834C289.53,343.7,283.749,339.408,276.861,338.062z"/>
	<path class="st86" d="M265.98,366.354c4.39-6.195,18.824-6.337,26.482-0.06C283.658,362.643,274.903,363.941,265.98,366.354z"/>
	<path class="st87" d="M264.212,364.044c2.27-5.273,4.338-6.26,11.452-5.654C271.519,360.1,267.931,361.483,264.212,364.044z"/>
	<path class="st10" d="M469.827,314.268c-0.379,3.246-2.66,5.893-5.813,7.5c-1.968,1.003-3.336-1.111-4.325-2.528
		c-2.379-3.409,0.278-5.902,2.024-8.367c0.992-1.4,2.28-3.379,4.371-2.481C468.218,309.309,469.937,310.985,469.827,314.268z"/>
	<path class="st12" d="M253.611,318.12c0.166,1.065-0.023,2.513,0.598,3.09c0.635,0.59,0.898-0.967,1.527-1.359
		c0.006,1.246,0.501,2.768-1.413,3.066c-0.863,0.135-1.585-0.383-2-1.139C251.407,320.11,252.259,319.016,253.611,318.12z"/>
	<path class="st88" d="M253.916,222.93c-0.174,3.848-2.695,6.189-5.618,8.036c-2.15,1.359-3.056-0.656-3.328-2.184
		c-0.666-3.74,0.572-6.836,4.045-8.735C252.438,218.175,253.908,219.065,253.916,222.93z"/>
	<path class="st89" d="M333.634,397.66c3.357-5.619,5.088-11.901,7.698-17.815C342.225,387.191,339.205,392.964,333.634,397.66z"/>
	<path class="st90" d="M44.166,196.682c-1.969,0.02-3.669-0.121-2.562-2.412c2.083-4.307,5.1-7.719,9.97-8.947
		c2.366-0.597,4.411,0.494,5.493,2.344c1.099,1.879-0.67,3.288-1.904,4.646C52.107,195.678,47.74,195.552,44.166,196.682z"/>
	<path class="st91" d="M26.601,193.66c-0.09,1.284,0.277,2.703-1.025,3.254c-1.394,0.589-2.138-0.885-2.682-1.661
		c-1.982-2.826-2.554-6.021-1.556-9.401c0.268-0.906,0.952-1.604,1.801-0.955C26.067,187.135,26.266,190.517,26.601,193.66z"/>
	<path class="st92" d="M244.258,256.475c-3.066-6.816,5.254-16.731,15.293-20.758C254.497,242.639,245.623,246.86,244.258,256.475z"
		/>
	<path class="st93" d="M171.023,113.966c-0.053,0.7-0.107,1.4-0.16,2.1c-4.92,1.843-5.776,1.225-6.083-3.765
		c-0.351-5.702-1.508-11.389,0.014-17.083c3.516,3.169,0.772,8.531,4.121,11.757C172.029,108.577,171.686,111.223,171.023,113.966z"
		/>
	<path class="st0" d="M124.736,119.067c3.886,2.538,5.56,7.096,9.093,9.957c0.356,0.298,0.477,0.665,0.329,1.112
		c0.619,4.285,5.505,4.972,7.146,8.483c0.667,1.428,2.161,2.457,2.574,4.124c-1.639,0.029-3.281,0.058-4.923,0.087
		c-1.172-5.374-5.542-7.141-9.972-8.841C127.568,129.015,126.152,124.041,124.736,119.067z"/>
	<path class="st30" d="M134.157,130.135c-0.109-0.37-0.219-0.74-0.328-1.111c0.406-4.413-4.201-7.592-3.002-12.202
		c1.557-0.191,2.198-1.593,3.248-2.452c0.63,1.635,1.258,3.268,1.887,4.9c0.551,1.325,0.084,2.615-0.132,3.914
		c0.159,1.894,0.109,3.836,0.522,5.673C137.063,132.019,134.771,129.539,134.157,130.135z"/>
	<path class="st0" d="M171.023,113.966c-0.703-2.33-1.406-4.66-2.109-6.991c3.566-1.439,3.56,2.253,4.58,3.693
		C174.769,112.466,173.575,114.119,171.023,113.966z"/>
	<path class="st94" d="M135.829,123.184c-1.627-1.362-0.823-2.641,0.132-3.915c1.2-0.942,2.401-1.884,3.601-2.826
		c1.273,3.479,1.6,7.066,1.309,10.961C138.179,127.052,137.839,124.077,135.829,123.184z"/>
	<path class="st3" d="M391.578,199.059c1.59,0.251,4.016-0.873,4.135,2.476c0.109,3.046-1.551,3.717-4.046,3.45
		c-3.179-0.341-4.077,1.25-3.825,4.117c0.18,2.043,0.237,3.898-2.867,3.935c-3.453,0.041-3.056-2.108-3.07-4.278
		C381.86,201.976,384.756,199.006,391.578,199.059z"/>
	<path class="st3" d="M395.158,225.085c-1.732-0.275-4.314,1.016-4.403-2.751c-0.081-3.404,1.904-3.36,4.164-3.184
		c3.306,0.256,3.93-1.665,3.787-4.371c-0.1-1.906-0.125-3.635,2.693-3.652c2.865-0.017,3.2,1.561,3.245,3.824
		C404.78,221.739,401.775,225.057,395.158,225.085z"/>
	<path class="st11" d="M204.775,66.047c0.056-3.434,2.252-5.206,5.233-5.608c2.357-0.318,3.986,1.467,4.544,3.72
		c0.292,1.179-6.091,6.714-7.236,6.302C205.361,69.757,204.743,68.042,204.775,66.047z"/>
	<path class="st95" d="M122.883,157.823c1.508-0.925,2.35-3.459,4.842-2.005c7.144,6.427,6.891,14.77,5.941,23.252
		c-0.238,2.125-1.762,3.711-3.609,4.329c-1.955,0.655-3.536-1.119-4.442-2.465C120.782,173.756,118.815,166.112,122.883,157.823z"/>
	<path class="st96" d="M107.709,175.972c-1.621,2.204-2.173,6.63-5.438,5.713c-2.91-0.817-2.425-5.087-2.252-7.829
		c0.406-6.42,1.374-12.809,7.351-16.91c0.705-0.484,1.382-0.862,2.259-0.62c3.03,3.339,1.755,6.923,0.602,10.497
		c-0.347,0.341-0.768,0.527-1.252,0.562c-3.533,0.062-3.987,1.03-2.108,4.525c0.586,0.377,1.123,0.798,1.415,1.456
		C108.248,174.27,108.631,175.266,107.709,175.972z"/>
	<path class="st97" d="M108.887,167.048c2.61-3.41,2.095-7.037,0.742-10.721c3.108,1.113,2.09,3.808,2.012,5.891
		c-0.181,4.867-1.329,9.54-3.932,13.755c0.044-0.939,0.089-1.877,0.133-2.816C106.325,170.801,107.039,168.827,108.887,167.048z"/>
	<path class="st98" d="M129.852,171.766c-0.19,1.122-0.124,3.842-2.319,3.487c-2.115-0.342-2.663-2.952-2.668-5.267
		c-0.004-2.008,0.635-4.435,2.411-4.129C129.36,166.215,129.995,168.853,129.852,171.766z"/>
	<path class="st99" d="M108.887,167.048c-0.348,2.036-0.696,4.072-1.045,6.109c-0.682-0.009-1.364-0.018-2.045-0.027
		c-0.818-1.689-0.932-3.46-0.344-5.208C106.106,165.978,107.173,165.101,108.887,167.048L108.887,167.048z"/>
	<path class="st97" d="M108.886,167.047c-5.992-0.493-2.046,4.062-3.089,6.082c-3.314-2.866-1.479-5.505,0.718-7.642
		C107.837,164.201,108.797,165.415,108.886,167.047z"/>
</g>
</svg>